<svg width="25" height="24" viewBox="0 0 25 24" fill="none" xmlns="http://www.w3.org/2000/svg">
<mask id="mask0_56_5272" style="mask-type:luminance" maskUnits="userSpaceOnUse" x="5" y="3" width="15" height="18">
<path d="M8.96372 10.1734C9.04104 10.1705 9.11815 10.1829 9.19044 10.2096C9.26273 10.2364 9.32871 10.277 9.38444 10.3291C9.44018 10.3812 9.48451 10.4437 9.51479 10.5128C9.54507 10.5819 9.56068 10.6562 9.56068 10.7313C9.56068 10.8064 9.54507 10.8808 9.51479 10.9499C9.48451 11.019 9.44018 11.0815 9.38444 11.1336C9.32871 11.1856 9.26273 11.2263 9.19044 11.2531C9.11815 11.2798 9.04104 11.2922 8.96372 11.2893H7.39449C6.88889 11.2893 6.46524 11.6584 6.40787 12.1388L6.4005 12.2542V18.347C6.4005 18.8377 6.78072 19.249 7.27567 19.3046L7.39449 19.3118H17.8555C18.3611 19.3118 18.7848 18.9427 18.8421 18.4623L18.8495 18.347V12.2542C18.8495 11.7634 18.4693 11.3522 17.9743 11.2965L17.8555 11.2893H16.2863C16.1337 11.2893 15.9874 11.2305 15.8795 11.1258C15.7716 11.0211 15.711 10.879 15.711 10.7309C15.711 10.5829 15.7716 10.4408 15.8795 10.3361C15.9874 10.2314 16.1337 10.1726 16.2863 10.1726H17.8555C18.4243 10.1726 18.9697 10.3919 19.3719 10.7822C19.7741 11.1726 20 11.7021 20 12.2542V18.347C20 18.899 19.7741 19.4285 19.3719 19.8189C18.9697 20.2092 18.4243 20.4286 17.8555 20.4286H7.39449C6.82573 20.4286 6.28027 20.2092 5.87811 19.8189C5.47594 19.4285 5.25 18.899 5.25 18.347V12.2542C5.25022 11.7022 5.47625 11.173 5.8784 10.7828C6.28054 10.3926 6.82587 10.1734 7.39449 10.1734H8.96372ZM12.702 3.57625L12.7184 3.57943C12.743 3.58262 12.7659 3.58818 12.7897 3.59534L12.8012 3.59852C12.8274 3.60648 12.8528 3.61682 12.8774 3.62875L12.8913 3.63511C12.956 3.6676 13.0138 3.71157 13.0618 3.76476L16.1699 6.78174L16.2371 6.8589C16.3204 6.97356 16.3562 7.11447 16.3373 7.25358C16.3185 7.39268 16.2464 7.5198 16.1353 7.60964C16.0243 7.69947 15.8825 7.74543 15.7381 7.73838C15.5937 7.73133 15.4574 7.67178 15.3562 7.57158L13.2011 5.47887V13.2691C13.2029 13.4105 13.1493 13.5473 13.0513 13.6519C12.9532 13.7564 12.8179 13.821 12.6727 13.8325C12.5275 13.844 12.3832 13.8016 12.2689 13.7139C12.1547 13.6261 12.079 13.4996 12.0571 13.3598L12.0489 13.2691V5.47728L9.89461 7.57238C9.79937 7.66488 9.67371 7.72199 9.53953 7.73376C9.40535 7.74554 9.27117 7.71123 9.16039 7.63681L9.0809 7.57238C8.98549 7.48003 8.92649 7.35811 8.91421 7.22786C8.90193 7.09762 8.93715 6.96732 9.01371 6.85969L9.0809 6.78254L12.2194 3.73613C12.2813 3.67451 12.3574 3.62798 12.4415 3.60034C12.5255 3.57269 12.615 3.56471 12.7028 3.57705L12.702 3.57625Z" fill="white"/>
</mask>
<g mask="url(#mask0_56_5272)">
<path d="M5.25 3.57141H20V20.4285H5.25V3.57141Z" fill="#343434"/>
</g>
</svg>
