<svg width="25" height="24" viewBox="0 0 25 24" fill="none" xmlns="http://www.w3.org/2000/svg">
<path fill-rule="evenodd" clip-rule="evenodd" d="M6.62943 6.16681C6.85263 5.94481 7.21503 5.94481 7.43823 6.16681L12.4614 11.1672L17.4846 6.16681C17.7078 5.94481 18.0702 5.94481 18.294 6.16681C18.5172 6.38881 18.5172 6.74941 18.294 6.97201L13.2426 12L18.294 17.028C18.5172 17.25 18.5172 17.6112 18.294 17.8332C18.0702 18.0552 17.7078 18.0552 17.484 17.8332L12.4614 12.8322L7.43823 17.8332C7.23183 18.0384 6.90723 18.054 6.68283 17.8806L6.62883 17.8332C6.40563 17.6112 6.40563 17.2506 6.62883 17.028L11.6802 12L6.62883 6.97201C6.40563 6.75001 6.40623 6.38881 6.62943 6.16681Z" fill="#343434"/>
</svg>
