<svg width="25" height="24" viewBox="0 0 25 24" fill="none" xmlns="http://www.w3.org/2000/svg">
<path d="M20.5391 17C21.0911 17.0003 21.5391 17.4479 21.5391 18C21.5391 18.5521 21.0911 18.9997 20.5391 19H4.53906C3.98678 19 3.53906 18.5523 3.53906 18C3.53906 17.4477 3.98678 17 4.53906 17H20.5391ZM20.5391 11C21.0911 11.0003 21.5391 11.4479 21.5391 12C21.5391 12.5521 21.0911 12.9997 20.5391 13H4.53906C3.98678 13 3.53906 12.5523 3.53906 12C3.53906 11.4477 3.98678 11 4.53906 11H20.5391ZM20.5391 5C21.0911 5.00026 21.5391 5.44788 21.5391 6C21.5391 6.55212 21.0911 6.99974 20.5391 7H4.53906C3.98678 7 3.53906 6.55228 3.53906 6C3.53906 5.44772 3.98678 5 4.53906 5H20.5391Z" fill="#343434"/>
</svg>
