<svg width="25" height="24" viewBox="0 0 25 24" fill="none" xmlns="http://www.w3.org/2000/svg">
<path d="M12.0815 1.61841C16.4334 1.61841 18.6098 1.61884 20.1353 2.6106C20.6278 2.93088 21.0615 3.31822 21.4194 3.75903C22.5277 5.12406 22.5269 7.07168 22.5269 10.9661V13.0432C22.5269 16.937 22.5273 18.8842 21.4194 20.2493C21.0615 20.6901 20.6279 21.0784 20.1353 21.3987C18.6098 22.3905 16.4334 22.3899 12.0815 22.3899C7.73005 22.3899 5.55417 22.3903 4.02881 21.3987C3.53616 21.0784 3.10256 20.6901 2.74463 20.2493C1.6366 18.8842 1.63623 16.9372 1.63623 13.0432V10.9661C1.63623 9.75202 1.63683 8.72674 1.67041 7.84985C1.74455 5.91399 1.98189 4.69847 2.74463 3.75903C3.10253 3.31827 3.53623 2.93084 4.02881 2.6106C5.07866 1.92812 6.43666 1.71501 8.6001 1.64868C9.57993 1.61864 10.725 1.61841 12.0815 1.61841ZM8.53271 11.6614C8.27358 11.4242 7.86633 11.4466 7.63916 11.7141C5.23012 14.5517 4.85632 15.9895 6.84326 17.8079C8.83008 19.626 10.2397 19.1363 12.8843 16.5149C13.1338 16.2676 13.1229 15.8625 12.8638 15.6252C12.6141 15.3969 12.2272 15.4088 11.9868 15.6467C11.743 15.8881 11.512 16.1082 11.2925 16.3079C10.6002 16.9374 10.0809 17.3048 9.66943 17.4934C9.29286 17.666 9.04603 17.673 8.82959 17.6194C8.57314 17.5559 8.21122 17.368 7.69092 16.8918C7.17063 16.4157 6.95255 16.0722 6.86768 15.8235C6.79611 15.6134 6.78349 15.368 6.92529 14.9807C7.08035 14.5575 7.40448 14.0123 7.97803 13.2747C8.16017 13.0404 8.36161 12.7932 8.5835 12.5315C8.80214 12.2736 8.78229 11.8899 8.53271 11.6614ZM14.5884 9.45825C14.3233 9.2158 13.9114 9.23283 13.6675 9.49634L9.36963 14.1379C9.12573 14.4015 9.14277 14.8124 9.40771 15.0549C9.67266 15.2973 10.0857 15.2802 10.3296 15.0168L14.6274 10.3743C14.8713 10.1108 14.8533 9.70074 14.5884 9.45825ZM17.1577 6.66626C15.1642 4.84187 13.7511 5.34099 11.0894 7.9856C10.8403 8.23303 10.8508 8.63821 11.1099 8.87524C11.3595 9.10364 11.7465 9.09188 11.9868 8.85376C12.2403 8.60216 12.48 8.37307 12.7075 8.16626C13.3997 7.53661 13.9191 7.16929 14.3306 6.98071C14.7072 6.80814 14.9539 6.80113 15.1704 6.85474C15.4268 6.91825 15.7888 7.1061 16.3091 7.58228C16.8294 8.05842 17.0475 8.4018 17.1323 8.65063C17.2038 8.86062 17.2173 9.10537 17.0757 9.49243C16.9207 9.9158 16.5958 10.4615 16.022 11.1995C15.8334 11.442 15.6233 11.6979 15.3921 11.97C15.1731 12.2278 15.194 12.6125 15.4438 12.8411C15.7028 13.0778 16.1091 13.0554 16.3364 12.7883C18.767 9.93206 19.1509 8.49051 17.1577 6.66626Z" fill="#343434"/>
</svg>
