<svg width="25" height="24" viewBox="0 0 25 24" fill="none" xmlns="http://www.w3.org/2000/svg">
<path d="M12.3018 1.61499C16.6535 1.61499 18.8301 1.61548 20.3555 2.60718C20.8479 2.92737 21.2809 3.31496 21.6387 3.75562C22.7468 5.12054 22.7471 7.06766 22.7471 10.9617V13.0388C22.7471 16.9329 22.7468 18.8799 21.6387 20.2449C21.2808 20.6857 20.848 21.074 20.3555 21.3943C18.8301 22.386 16.6535 22.3855 12.3018 22.3855C7.95037 22.3855 5.7743 22.386 4.24902 21.3943C3.75642 21.074 3.32372 20.6857 2.96582 20.2449C1.85766 18.8799 1.85742 16.9329 1.85742 13.0388V10.9617C1.85742 9.74785 1.85706 8.72319 1.89062 7.84644C1.96475 5.91045 2.20307 4.69506 2.96582 3.75562C3.32362 3.31496 3.75661 2.92737 4.24902 2.60718C5.2988 1.92466 6.65701 1.7116 8.82031 1.64526C9.80008 1.61522 10.9453 1.61499 12.3018 1.61499ZM8.35449 7.11401C7.96965 7.11401 7.65723 7.42376 7.65723 7.8064V15.6111C7.65723 15.8662 7.8655 16.073 8.12207 16.073H8.92773C9.18406 16.0728 9.3916 15.8661 9.3916 15.6111V10.1824H9.46289L11.5361 15.5291C11.6398 15.7963 11.8985 15.9723 12.1865 15.9724H12.4189C12.7067 15.9724 12.9653 15.7968 13.0693 15.53L15.1416 10.2078H15.2139V15.6111C15.2139 15.8662 15.4213 16.0729 15.6777 16.073H16.4834C16.7399 16.073 16.9482 15.8662 16.9482 15.6111V7.8064C16.9482 7.42376 16.6358 7.11401 16.251 7.11401H15.377C14.9921 7.11409 14.6475 7.34958 14.5098 7.70679L12.3506 13.3113H12.2549L10.0957 7.70679C9.95807 7.34961 9.61316 7.11421 9.22852 7.11401H8.35449Z" fill="#343434"/>
</svg>
