<svg width="25" height="24" viewBox="0 0 25 24" fill="none" xmlns="http://www.w3.org/2000/svg">
<g clip-path="url(#clip0_130_18302)">
<path d="M19.8924 0H5.49238C2.84142 0 0.692383 2.14903 0.692383 4.8V19.2C0.692383 21.851 2.84142 24 5.49238 24H19.8924C22.5434 24 24.6924 21.851 24.6924 19.2V4.8C24.6924 2.14903 22.5434 0 19.8924 0Z" fill="#343434"/>
<path d="M17.492 6.59998H7.89199C7.56061 6.59998 7.29199 6.8686 7.29199 7.19998V10.2C7.29199 10.5314 7.56061 10.8 7.89199 10.8H17.492C17.8234 10.8 18.092 10.5314 18.092 10.2V7.19998C18.092 6.8686 17.8234 6.59998 17.492 6.59998Z" stroke="white" stroke-width="0.9" stroke-linecap="round" stroke-linejoin="round"/>
<path d="M12.092 13.2H7.89199C7.56061 13.2 7.29199 13.4686 7.29199 13.8V16.8C7.29199 17.1313 7.56061 17.4 7.89199 17.4H12.092C12.4234 17.4 12.692 17.1313 12.692 16.8V13.8C12.692 13.4686 12.4234 13.2 12.092 13.2Z" stroke="white" stroke-width="0.9" stroke-linecap="round" stroke-linejoin="round"/>
<path d="M17.4928 13.2H15.6928C15.3614 13.2 15.0928 13.4686 15.0928 13.8V16.8C15.0928 17.1313 15.3614 17.4 15.6928 17.4H17.4928C17.8242 17.4 18.0928 17.1313 18.0928 16.8V13.8C18.0928 13.4686 17.8242 13.2 17.4928 13.2Z" stroke="white" stroke-width="0.9" stroke-linecap="round" stroke-linejoin="round"/>
</g>
<defs>
<clipPath id="clip0_130_18302">
<rect width="24" height="24" fill="white" transform="translate(0.692383)"/>
</clipPath>
</defs>
</svg>
