<svg width="24" height="24" viewBox="0 0 24 24" fill="none" xmlns="http://www.w3.org/2000/svg">
<path d="M20.0005 17C20.5525 17.0003 21.0005 17.4479 21.0005 18C21.0005 18.5521 20.5525 18.9997 20.0005 19H4.00049C3.4482 19 2.99951 18.5523 2.99951 18C2.99951 17.4477 3.4482 17 4.00049 17H20.0005ZM20.0005 11C20.5525 11.0003 21.0005 11.4479 21.0005 12C21.0005 12.5521 20.5525 12.9997 20.0005 13H4.00049C3.4482 13 2.99951 12.5523 2.99951 12C2.99951 11.4477 3.4482 11 4.00049 11H20.0005ZM20.0005 5C20.5525 5.00026 21.0005 5.44788 21.0005 6C21.0005 6.55212 20.5525 6.99974 20.0005 7H4.00049C3.4482 7 2.99951 6.55228 2.99951 6C2.99951 5.44772 3.4482 5 4.00049 5H20.0005Z" fill="#FF5B1A"/>
</svg>
