<svg width="25" height="24" viewBox="0 0 25 24" fill="none" xmlns="http://www.w3.org/2000/svg">
<g clip-path="url(#clip0_56_5220)">
<path d="M11.9292 3.38797C14.7362 3.38797 15.0687 3.40027 16.1726 3.44952C17.1986 3.49466 17.7525 3.66702 18.1218 3.81066C18.6103 3.99944 18.9633 4.22926 19.3284 4.59449C19.6977 4.96385 19.9235 5.31267 20.1123 5.80103C20.256 6.17037 20.4283 6.72849 20.4734 7.75036C20.5227 8.85843 20.5349 9.19074 20.5349 11.9937C20.5349 14.8007 20.5227 15.1332 20.4734 16.2371C20.4283 17.2631 20.256 17.8172 20.1123 18.1865C19.9235 18.6748 19.6937 19.0278 19.3284 19.3931C18.9591 19.7624 18.6103 19.988 18.1218 20.1768C17.7525 20.3205 17.1944 20.4928 16.1726 20.5379C15.0645 20.5872 14.7322 20.5994 11.9292 20.5994C9.12219 20.5994 8.78972 20.5872 7.68581 20.5379C6.65984 20.4928 6.10583 20.3205 5.73649 20.1768C5.24813 19.988 4.8952 19.7582 4.52995 19.3931C4.1606 19.0236 3.9349 18.6748 3.74612 18.1865C3.60248 17.8172 3.43012 17.2589 3.38498 16.2371C3.33573 15.1291 3.32343 14.7967 3.32343 11.9937C3.32343 9.1867 3.33573 8.85423 3.38498 7.75036C3.43012 6.7244 3.60248 6.17037 3.74612 5.80103C3.9349 5.31267 4.1647 4.95974 4.52995 4.59449C4.89931 4.22516 5.24813 3.99944 5.73649 3.81066C6.10583 3.66702 6.66395 3.49466 7.68581 3.44952C8.78972 3.40027 9.12219 3.38797 11.9292 3.38797ZM11.9292 1.49609C9.07709 1.49609 8.72006 1.50841 7.59963 1.55766C6.48338 1.60689 5.71597 1.78746 5.05114 2.046C4.35759 2.31686 3.77074 2.6739 3.188 3.26075C2.60114 3.84349 2.24411 4.43035 1.97325 5.11979C1.71471 5.78872 1.53414 6.55203 1.4849 7.66828C1.43566 8.79281 1.42334 9.14985 1.42334 12.0019C1.42334 14.854 1.43566 15.2111 1.4849 16.3315C1.53414 17.4477 1.71471 18.2151 1.97325 18.88C2.24411 19.5736 2.60114 20.1605 3.188 20.7431C3.77074 21.326 4.35759 21.687 5.04703 21.9537C5.71597 22.2123 6.47929 22.3929 7.59553 22.4422C8.71586 22.4913 9.07289 22.5038 11.9252 22.5038C14.7772 22.5038 15.1343 22.4913 16.2547 22.4422C17.3709 22.3929 18.1383 22.2123 18.8031 21.9537C19.4926 21.687 20.0795 21.326 20.6621 20.7431C21.245 20.1605 21.606 19.5736 21.8727 18.8841C22.1313 18.2151 22.3119 17.4519 22.3612 16.3357C22.4105 15.2153 22.4228 14.8582 22.4228 12.006C22.4228 9.15389 22.4105 8.79685 22.3612 7.67649C22.3119 6.56024 22.1313 5.79283 21.8727 5.128C21.6143 4.43035 21.2573 3.84349 20.6704 3.26075C20.0877 2.678 19.5008 2.31686 18.8113 2.05011C18.1423 1.79157 17.3791 1.611 16.2629 1.56176C15.1383 1.50841 14.7813 1.49609 11.9292 1.49609Z" fill="#D8D8D8"/>
<path d="M11.9293 6.60489C8.94982 6.60489 6.53271 9.02199 6.53271 12.0015C6.53271 14.9809 8.94982 17.3981 11.9293 17.3981C14.9087 17.3981 17.3259 14.9809 17.3259 12.0015C17.3259 9.02199 14.9087 6.60489 11.9293 6.60489ZM11.9293 15.502C9.99636 15.502 8.42873 13.9344 8.42873 12.0015C8.42873 10.0685 9.99636 8.5009 11.9293 8.5009C13.8622 8.5009 15.4298 10.0685 15.4298 12.0015C15.4298 13.9344 13.8622 15.502 11.9293 15.502Z" fill="#D8D8D8"/>
<path d="M18.7991 6.39117C18.7991 7.08883 18.2327 7.65106 17.5392 7.65106C16.8416 7.65106 16.2793 7.08473 16.2793 6.39117C16.2793 5.69351 16.8456 5.13129 17.5392 5.13129C18.2327 5.13129 18.7991 5.69762 18.7991 6.39117Z" fill="#D8D8D8"/>
</g>
<defs>
<clipPath id="clip0_56_5220">
<rect width="24" height="24" fill="white" transform="translate(0.230957)"/>
</clipPath>
</defs>
</svg>
