<svg width="25" height="24" viewBox="0 0 25 24" fill="none" xmlns="http://www.w3.org/2000/svg">
<path d="M5.35303 4.18864C9.40747 -0.0117614 15.994 -0.0117862 20.0483 4.18767C24.1101 8.39495 24.1027 15.2116 20.0483 19.4113C17.9589 21.5756 15.011 22.3201 12.2778 22.4601C9.82426 22.4052 6.23349 22.4582 4.08155 22.5002C3.29803 22.5151 2.8096 21.6213 3.22608 20.9338L4.53467 18.7726C4.5177 18.7465 2.30713 15.3332 2.30713 11.8068C2.30518 9.05054 3.31909 6.29477 5.35303 4.18864ZM8.41065 11.2922C7.88353 11.2922 7.45665 11.7192 7.45655 12.2463C7.45655 12.7734 7.88347 13.2004 8.41065 13.2004H8.52198C9.04911 13.2003 9.47608 12.7734 9.47608 12.2463C9.47597 11.7192 9.04904 11.2922 8.52198 11.2922H8.41065ZM12.6157 11.2922C12.0886 11.2922 11.6617 11.7192 11.6616 12.2463C11.6616 12.7734 12.0886 13.2003 12.6157 13.2004H12.7271C13.2542 13.2003 13.6812 12.7734 13.6812 12.2463C13.681 11.7192 13.2541 11.2922 12.7271 11.2922H12.6157ZM16.8218 11.2922C16.2947 11.2922 15.8678 11.7192 15.8677 12.2463C15.8677 12.7734 16.2946 13.2004 16.8218 13.2004H16.9331C17.4602 13.2003 17.8872 12.7734 17.8872 12.2463C17.8871 11.7192 17.4602 11.2922 16.9331 11.2922H16.8218Z" fill="#FF5B1A"/>
</svg>
