<svg width="25" height="24" viewBox="0 0 25 24" fill="none" xmlns="http://www.w3.org/2000/svg">
<path fill-rule="evenodd" clip-rule="evenodd" d="M11.9242 6.16681C12.148 6.38881 12.148 6.74941 11.9242 6.97201L7.47639 11.4H19.2922C19.6234 11.4 19.8922 11.6688 19.8922 12C19.8922 12.3312 19.6234 12.6 19.2922 12.6H7.47639L11.9248 17.028C12.148 17.25 12.148 17.6112 11.9248 17.8332C11.701 18.0552 11.3386 18.0552 11.1148 17.8332L5.75019 12.4932C5.62299 12.4044 5.53119 12.2682 5.50239 12.1098L5.49939 12.09C5.49699 12.078 5.49519 12.0648 5.49459 12.0516L5.49219 12.0114V11.9892C5.49219 11.9754 5.49339 11.9622 5.49459 11.949L5.49219 12C5.49219 11.9694 5.49459 11.9388 5.49879 11.9094L5.50299 11.8902C5.53119 11.7318 5.62299 11.5956 5.75019 11.5068L11.1154 6.16681C11.3386 5.94481 11.701 5.94481 11.9248 6.16681H11.9242Z" fill="black"/>
</svg>
