<svg width="25" height="24" viewBox="0 0 25 24" fill="none" xmlns="http://www.w3.org/2000/svg">
<path d="M12.3076 7.5C11.9098 7.5 11.5283 7.34196 11.247 7.06066C10.9657 6.77935 10.8076 6.39782 10.8076 6C10.8076 5.60218 10.9657 5.22065 11.247 4.93934C11.5283 4.65804 11.9098 4.5 12.3076 4.5C12.7054 4.5 13.087 4.65804 13.3683 4.93934C13.6496 5.22065 13.8076 5.60218 13.8076 6C13.8076 6.39782 13.6496 6.77935 13.3683 7.06066C13.087 7.34196 12.7054 7.5 12.3076 7.5ZM12.3076 13.5C11.9098 13.5 11.5283 13.342 11.247 13.0607C10.9657 12.7794 10.8076 12.3978 10.8076 12C10.8076 11.6022 10.9657 11.2206 11.247 10.9393C11.5283 10.658 11.9098 10.5 12.3076 10.5C12.7054 10.5 13.087 10.658 13.3683 10.9393C13.6496 11.2206 13.8076 11.6022 13.8076 12C13.8076 12.3978 13.6496 12.7794 13.3683 13.0607C13.087 13.342 12.7054 13.5 12.3076 13.5ZM10.8076 18C10.8076 18.3978 10.9657 18.7794 11.247 19.0607C11.5283 19.342 11.9098 19.5 12.3076 19.5C12.7054 19.5 13.087 19.342 13.3683 19.0607C13.6496 18.7794 13.8076 18.3978 13.8076 18C13.8076 17.6022 13.6496 17.2206 13.3683 16.9393C13.087 16.658 12.7054 16.5 12.3076 16.5C11.9098 16.5 11.5283 16.658 11.247 16.9393C10.9657 17.2206 10.8076 17.6022 10.8076 18Z" fill="#555555"/>
</svg>
