<svg width="25" height="24" viewBox="0 0 25 24" fill="none" xmlns="http://www.w3.org/2000/svg">
<path fill-rule="evenodd" clip-rule="evenodd" d="M13.0562 6.4695C13.6112 6.47175 15.1989 6.483 16.7747 6.54375L17.1527 6.55875C17.6293 6.57891 18.1056 6.60641 18.5814 6.64125C18.9534 6.67875 19.4694 6.71475 19.9359 7.2225C20.3537 7.662 20.4669 8.664 20.4669 8.664C20.4864 8.83575 20.6274 10.1055 20.6274 11.3752V12.6757C20.6274 14.0355 20.4654 15.3953 20.4654 15.3953C20.4452 15.5558 20.3169 16.4273 19.9299 16.8353C19.4762 17.3288 18.9699 17.3708 18.6849 17.4C18.2375 17.4363 17.7894 17.4646 17.3409 17.4847L16.9637 17.5012L16.5377 17.5178C14.9777 17.574 13.4574 17.5853 12.9962 17.5875C12.2304 17.5815 8.50669 17.5395 7.28869 17.4188C6.75844 17.349 6.19819 17.3085 5.75644 16.8285C5.33794 16.389 5.22544 15.387 5.22544 15.387C5.12563 14.4868 5.07206 13.5822 5.06494 12.6765V11.2192C5.07619 10.0177 5.20369 8.85675 5.22394 8.679C5.22619 8.65875 5.33944 7.6605 5.76169 7.2165C6.21694 6.7215 6.72319 6.68025 7.00819 6.65175C7.55569 6.60675 8.04319 6.5805 8.53819 6.55875L8.91694 6.54375C10.4934 6.48375 12.0812 6.47175 12.6347 6.46875L13.0562 6.4695Z" stroke="#343434" stroke-width="0.9375"/>
<path fill-rule="evenodd" clip-rule="evenodd" d="M11.1428 14.2522L11.1421 9.43573L15.6001 11.8522L11.1428 14.2522Z" fill="#343434"/>
</svg>
