<svg width="25" height="24" viewBox="0 0 25 24" fill="none" xmlns="http://www.w3.org/2000/svg">
<g clip-path="url(#clip0_56_5237)">
<path d="M18.6931 2C20.5387 2 22.0349 3.49239 22.0349 5.33333V10.7879H20.2121V8.09576H2.59183V18.6667C2.59183 19.5034 3.2719 20.1819 4.11082 20.1819H12.6172V22H4.11082C2.2652 22 0.769043 20.5076 0.769043 18.6667V5.33333C0.769043 3.49239 2.2652 2 4.11082 2H18.6931ZM23.6248 12.0525C24.1576 12.1949 24.5737 12.6099 24.7164 13.1413C24.8433 13.6136 24.737 14.1141 24.438 14.4927L24.3169 14.6286L17.9546 20.9749C17.9217 21.0076 17.8836 21.0343 17.8418 21.0539L17.7767 21.0779L15.554 21.6824C15.2848 21.7557 15.0356 21.5413 15.0479 21.2801L15.062 21.1917L15.6682 18.9747C15.6805 18.93 15.7004 18.8879 15.727 18.8501L15.7714 18.7973L22.1337 12.451C22.5238 12.062 23.0921 11.9101 23.6248 12.0525ZM6.5412 15.0303C7.38011 15.0303 8.06019 15.7087 8.06019 16.5454C8.06019 17.3823 7.38011 18.0606 6.5412 18.0606C5.70229 18.0606 5.02221 17.3823 5.02221 16.5454C5.02221 15.7087 5.70229 15.0303 6.5412 15.0303ZM11.402 15.0303C12.2409 15.0303 12.9209 15.7087 12.9209 16.5454C12.9209 17.3823 12.2409 18.0606 11.402 18.0606C10.563 18.0606 9.88297 17.3823 9.88297 16.5454C9.88297 15.7087 10.563 15.0303 11.402 15.0303ZM6.5412 10.1818C7.38011 10.1818 8.06019 10.8602 8.06019 11.697C8.06019 12.5338 7.38011 13.2121 6.5412 13.2121C5.70229 13.2121 5.02221 12.5338 5.02221 11.697C5.02221 10.8602 5.70229 10.1818 6.5412 10.1818ZM11.402 10.1818C12.2409 10.1818 12.9209 10.8602 12.9209 11.697C12.9209 12.5338 12.2409 13.2121 11.402 13.2121C10.563 13.2121 9.88297 12.5338 9.88297 11.697C9.88297 10.8602 10.563 10.1818 11.402 10.1818ZM16.2627 10.1818C17.1016 10.1818 17.7817 10.8602 17.7817 11.697C17.7817 12.5338 17.1016 13.2121 16.2627 13.2121C15.4239 13.2121 14.7437 12.5338 14.7437 11.697C14.7437 10.8602 15.4239 10.1818 16.2627 10.1818ZM18.6931 3.81819H4.11082C3.2719 3.81819 2.59183 4.49654 2.59183 5.33333V6.27757H20.2121V5.33333C20.2121 4.49654 19.532 3.81819 18.6931 3.81819Z" fill="#707070"/>
</g>
<defs>
<clipPath id="clip0_56_5237">
<rect width="24" height="24" fill="white" transform="translate(0.769043)"/>
</clipPath>
</defs>
</svg>
