<svg width="25" height="24" viewBox="0 0 25 24" fill="none" xmlns="http://www.w3.org/2000/svg">
<g clip-path="url(#clip0_56_5232)">
<path d="M22.7891 12.481C22.7891 11.7237 22.1753 11.109 21.418 11.109H4.27539C3.51797 11.109 2.90332 11.7236 2.90332 12.481V20.5719C2.90345 21.3292 3.51805 21.943 4.27539 21.943H21.418C22.1753 21.9429 22.7889 21.3291 22.7891 20.5719V12.481ZM24.8467 20.5719C24.8465 22.4653 23.3114 24.0005 21.418 24.0006H4.27539C2.38192 24.0006 0.846813 22.4653 0.84668 20.5719V12.481C0.84668 10.5875 2.38184 9.05234 4.27539 9.05234H21.418C23.3115 9.0524 24.8467 10.5875 24.8467 12.481V20.5719Z" fill="#707070"/>
<path d="M21.1916 4.23529H4.50142C3.95563 4.23529 3.51318 4.67774 3.51318 5.22352C3.51318 5.76931 3.95563 6.21176 4.50142 6.21176H21.1916C21.7374 6.21176 22.1799 5.76931 22.1799 5.22352C22.1799 4.67774 21.7374 4.23529 21.1916 4.23529Z" fill="#707070"/>
<path d="M18.5243 0H7.16744C6.62165 0 6.1792 0.442448 6.1792 0.988234C6.1792 1.53402 6.62165 1.97647 7.16744 1.97647H18.5243C19.0701 1.97647 19.5125 1.53402 19.5125 0.988234C19.5125 0.442448 19.0701 0 18.5243 0Z" fill="#707070"/>
</g>
<defs>
<clipPath id="clip0_56_5232">
<rect width="24" height="24" fill="white" transform="translate(0.846191)"/>
</clipPath>
</defs>
</svg>
