<svg width="25" height="24" viewBox="0 0 25 24" fill="none" xmlns="http://www.w3.org/2000/svg">
<path fill-rule="evenodd" clip-rule="evenodd" d="M12.2373 1.20752C15.1678 1.20752 15.5349 1.22008 16.6904 1.2749C17.8372 1.32549 18.6213 1.51125 19.3086 1.77686C20.0171 2.05094 20.6201 2.42223 21.2188 3.021C21.8216 3.61964 22.1886 4.2223 22.4541 4.93896C22.7198 5.62207 22.9054 6.41117 22.9561 7.55811C23.0067 8.70903 23.0195 9.0761 23.0195 12.0063C23.0195 14.9366 23.0067 15.3037 22.9561 16.4546C22.9054 17.6015 22.7198 18.3864 22.4541 19.0737C22.1801 19.782 21.8097 20.3853 21.2109 20.9839C20.6124 21.5826 20.009 21.9531 19.3008 22.2271C18.6177 22.4928 17.8285 22.6784 16.6816 22.729C15.5306 22.7795 15.1636 22.7925 12.2334 22.7925C9.30309 22.7925 8.93595 22.7795 7.78516 22.729C6.63823 22.6784 5.85334 22.4928 5.16602 22.2271C4.45776 21.9531 3.85452 21.5826 3.25586 20.9839C2.65287 20.3852 2.28611 19.7815 2.00781 19.0688C1.74226 18.3857 1.55643 17.5973 1.50586 16.4507C1.45526 15.2995 1.44238 14.9326 1.44238 12.0024C1.44238 9.07195 1.45526 8.70476 1.50586 7.54932C1.55644 6.40258 1.74223 5.61839 2.00781 4.93115C2.28608 4.22285 2.65302 3.61967 3.25586 3.021C3.85446 2.41816 4.45755 2.05123 5.16992 1.77295C5.85302 1.5073 6.64212 1.32158 7.78906 1.271C8.94017 1.2204 9.30709 1.20752 12.2373 1.20752ZM12.2373 3.15186C9.35372 3.15186 9.01179 3.16377 7.87793 3.21436C6.82839 3.26072 6.25449 3.4379 5.875 3.58545C5.37322 3.77942 5.01427 4.01162 4.63477 4.39111C4.25958 4.76632 4.02304 5.12874 3.8291 5.63037C3.68153 6.00982 3.50442 6.57939 3.45801 7.6333C3.40741 8.76751 3.39551 9.10953 3.39551 11.9937C3.39551 14.8737 3.40741 15.2156 3.45801 16.354C3.50441 17.4037 3.68153 17.9775 3.8291 18.3569C4.02304 18.8585 4.25538 19.2166 4.63477 19.5962C5.01005 19.9713 5.37322 20.2079 5.875 20.4019C6.25449 20.5495 6.82413 20.7266 7.87793 20.7729C9.0118 20.8236 9.35371 20.8364 12.2373 20.8364C15.1173 20.8364 15.4591 20.8236 16.5977 20.7729C17.6475 20.7266 18.2211 20.5495 18.6006 20.4019C19.1024 20.2079 19.4604 19.9756 19.8398 19.5962C20.2151 19.2209 20.4516 18.8585 20.6455 18.3569C20.7931 17.9775 20.9702 17.4081 21.0166 16.354C21.0673 15.2197 21.0801 14.8778 21.0801 11.9937C21.0801 9.11368 21.0673 8.77183 21.0166 7.6333C20.9702 6.5836 20.7931 6.00981 20.6455 5.63037C20.4516 5.12879 20.2192 4.77052 19.8398 4.39111C19.4648 4.01593 19.1024 3.77939 18.6006 3.58545C18.2211 3.43787 17.6518 3.26075 16.5977 3.21436C15.4634 3.16375 15.1215 3.15186 12.2373 3.15186ZM12.2373 6.45654C15.2986 6.45654 17.7831 8.94018 17.7832 12.0015C17.7832 15.0628 15.2987 17.5464 12.2373 17.5464C9.17616 17.5461 6.69336 15.0627 6.69336 12.0015C6.69345 8.94034 9.17622 6.4568 12.2373 6.45654ZM12.2373 8.40479C10.2515 8.40504 8.64072 10.0157 8.64062 12.0015C8.64062 13.9874 10.2515 15.5979 12.2373 15.5981C14.2234 15.5981 15.835 13.9875 15.835 12.0015C15.8349 10.0155 14.2233 8.40479 12.2373 8.40479ZM18.002 4.94287C18.7143 4.94309 19.2957 5.52448 19.2959 6.23682C19.2959 6.95353 18.7144 7.53152 18.002 7.53174C17.2852 7.53174 16.707 6.94945 16.707 6.23682C16.7072 5.52013 17.2894 4.94287 18.002 4.94287Z" fill="#D8D8D8"/>
</svg>
