<svg width="25" height="24" viewBox="0 0 25 24" fill="none" xmlns="http://www.w3.org/2000/svg">
<path d="M19.4311 17.4H18.8311V5.39999C18.8311 5.24086 18.7678 5.08825 18.6554 4.97572C18.5428 4.8632 18.3902 4.79999 18.2311 4.79999H14.0311C13.8719 4.79999 13.7193 4.8632 13.6068 4.97572C13.4943 5.08825 13.4311 5.24086 13.4311 5.39999V8.39999H9.83105C9.67192 8.39999 9.51931 8.4632 9.4068 8.57573C9.29427 8.68824 9.23105 8.84086 9.23105 8.99999V12H5.63105C5.47192 12 5.31931 12.0632 5.20679 12.1757C5.09427 12.2882 5.03105 12.4409 5.03105 12.6V17.4H4.43105C4.27193 17.4 4.11931 17.4632 4.00679 17.5757C3.89427 17.6882 3.83105 17.8409 3.83105 18C3.83105 18.1591 3.89427 18.3117 4.00679 18.4243C4.11931 18.5367 4.27193 18.6 4.43105 18.6H19.4311C19.5902 18.6 19.7428 18.5367 19.8554 18.4243C19.9678 18.3117 20.0311 18.1591 20.0311 18C20.0311 17.8409 19.9678 17.6882 19.8554 17.5757C19.7428 17.4632 19.5902 17.4 19.4311 17.4ZM10.4311 9.59999H13.4311V17.4H10.4311V9.59999ZM6.23105 13.2H9.23105V17.4H6.23105V13.2ZM14.6311 17.4V5.99999H17.6311V17.4H14.6311Z" fill="#BABABA"/>
</svg>
