<svg width="25" height="24" viewBox="0 0 25 24" fill="none" xmlns="http://www.w3.org/2000/svg">
<path fill-rule="evenodd" clip-rule="evenodd" d="M7.53084 14.5407C7.60052 14.4129 7.64012 14.2663 7.64012 14.1105V10.9902C7.64012 8.45929 9.69184 6.40757 12.2228 6.40757C14.7537 6.40757 16.8054 8.45929 16.8054 10.9902V14.1106C16.8054 14.2546 16.8399 14.3965 16.9062 14.5244L17.5965 15.8576H6.84896L7.53084 14.5407ZM6.74012 10.9902V14.1105L6.04975 15.4438C5.73955 16.0428 6.17434 16.7576 6.84896 16.7576H8.88345C9.4175 18.0769 10.7109 19.0076 12.2218 19.0076C13.7326 19.0076 15.026 18.0769 15.56 16.7576H17.5965C18.2711 16.7576 18.7059 16.0428 18.3957 15.4438L17.7054 14.1106V10.9902C17.7054 7.96223 15.2507 5.50757 12.2228 5.50757C9.19478 5.50757 6.74012 7.96223 6.74012 10.9902ZM14.5605 16.7576H9.88298C10.3498 17.5646 11.2224 18.1076 12.2218 18.1076C13.2211 18.1076 14.0937 17.5646 14.5605 16.7576ZM12.2218 11.8076L12.2419 11.8076H12.2017L12.2218 11.8076Z" fill="#343434"/>
<path fill-rule="evenodd" clip-rule="evenodd" d="M9.22919 4.79686L8.83076 5.00604C8.25383 5.30893 7.03585 6.26465 6.3123 7.53087L6.08904 7.92158L5.30762 7.47505L5.53088 7.08434C6.35018 5.65057 7.70363 4.58129 8.41241 4.20918L8.81084 4L9.22919 4.79686Z" fill="#343434"/>
<path fill-rule="evenodd" clip-rule="evenodd" d="M15.2139 4.79686L15.6123 5.00604C16.1893 5.30893 17.4072 6.26465 18.1308 7.53087L18.3541 7.92158L19.1355 7.47505L18.9122 7.08434C18.0929 5.65057 16.7395 4.58129 16.0307 4.20918L15.6323 4L15.2139 4.79686Z" fill="#343434"/>
</svg>
