<svg width="25" height="24" viewBox="0 0 25 24" fill="none" xmlns="http://www.w3.org/2000/svg">
<g clip-path="url(#clip0_56_5233)">
<path fill-rule="evenodd" clip-rule="evenodd" d="M21.6287 14.2662C22.0137 13.8778 22.575 13.726 23.101 13.8682C23.6271 14.0104 24.038 14.4249 24.1789 14.9556C24.32 15.4863 24.1696 16.0525 23.7844 16.441L17.5017 22.7788C17.4531 22.8279 17.3925 22.8634 17.3261 22.8816L15.1312 23.4855C14.8358 23.5667 14.5648 23.2933 14.6453 22.9954L15.2439 20.7812C15.2621 20.7142 15.2972 20.6533 15.3459 20.604L21.6287 14.2662ZM14.2233 8.71826C15.2519 9.7219 15.8131 11.1255 15.8131 12.5939C15.8131 13.9645 15.3242 15.2785 14.4228 16.2635L14.2234 16.4696L9.84671 20.7402C8.81924 21.7429 7.38349 22.2895 5.88204 22.2895C4.38047 22.2895 2.94489 21.7429 1.91736 20.7402C-0.263042 18.6126 -0.329114 15.386 1.71915 13.1916L1.91736 12.989L2.68973 12.2353C3.26192 11.677 4.12529 11.677 4.69748 12.2353C5.2341 12.759 5.26986 13.5351 4.80481 14.0926L4.69748 14.2085L3.92512 14.9622C2.82668 16.034 2.82668 17.6954 3.92512 18.7673C4.97388 19.7907 6.57595 19.8393 7.67741 18.9135L7.83873 18.7673L12.2154 14.4966C12.7349 13.9896 13.0713 13.2674 13.0713 12.5941C13.0715 11.9879 12.7991 11.3424 12.3657 10.8497L12.2154 10.6915C11.6404 10.1304 11.6404 9.27956 12.2154 8.71829C12.7876 8.15995 13.6509 8.15995 14.2233 8.71826ZM20.1445 2.09683C22.3249 4.22443 22.391 7.45105 20.3427 9.64543L20.1445 9.84806L19.3721 10.6017C18.7999 11.1601 17.9366 11.1601 17.3642 10.6017C16.8275 10.0781 16.7917 9.30199 17.2569 8.7445L17.3642 8.62856L18.1366 7.87489C19.235 6.80304 19.235 5.14164 18.1366 4.06979C17.0878 3.04641 15.4857 2.99768 14.3842 3.92359L14.2229 4.06979L9.8465 8.34072C9.32696 8.84768 8.99056 9.56987 8.99056 10.2432C8.99056 11.0231 9.27301 11.6968 9.8465 12.1456C10.4214 12.7066 10.4214 13.5575 9.8465 14.1188C9.58225 14.3766 9.16976 14.5376 8.84239 14.5376C8.43261 14.5376 8.13538 14.4087 7.83852 14.1188C6.81001 13.1152 6.2487 11.7116 6.2487 10.2432C6.2487 8.87261 6.73766 7.55858 7.63907 6.5735L7.83852 6.36755L12.2152 2.09683C14.3765 -0.012212 17.942 -0.0522492 20.1445 2.09683Z" fill="#707070"/>
</g>
<defs>
<clipPath id="clip0_56_5233">
<rect width="24" height="24" fill="white" transform="translate(0.230957)"/>
</clipPath>
</defs>
</svg>
