<svg width="25" height="24" viewBox="0 0 25 24" fill="none" xmlns="http://www.w3.org/2000/svg">
<g clip-path="url(#clip0_56_5234)">
<path d="M20.2824 0C21.4317 0 22.5338 0.456546 23.3464 1.2692C24.1592 2.08186 24.6157 3.18406 24.6157 4.33333V19.6667C24.6157 20.816 24.1592 21.9181 23.3464 22.7307C22.5338 23.5435 21.4317 24 20.2824 24H4.94905C3.79979 24 2.69758 23.5435 1.88493 22.7307C1.07227 21.9181 0.615723 20.816 0.615723 19.6667V4.33333C0.615723 3.18406 1.07227 2.08186 1.88493 1.2692C2.69758 0.456546 3.79979 0 4.94905 0H20.2824ZM21.0557 21.868L13.3157 14.2867C13.1469 14.1212 12.9248 14.0209 12.6891 14.0035C12.4533 13.9862 12.219 14.053 12.0277 14.192L11.9157 14.2853L4.17305 21.868C4.41572 21.9533 4.67705 22 4.94905 22H20.2824C20.553 22 20.8144 21.9533 21.0557 21.868ZM20.2824 2H4.94905C4.33022 2 3.73673 2.24584 3.29915 2.68342C2.86156 3.12101 2.61572 3.7145 2.61572 4.33333V19.6667C2.61572 19.944 2.66372 20.2107 2.75305 20.4587L10.5171 12.8573C11.0493 12.3363 11.7563 12.0319 12.5006 12.0033C13.2448 11.9747 13.9731 12.224 14.5437 12.7027L14.7144 12.8573L22.477 20.46C22.5664 20.212 22.6157 19.9453 22.6157 19.6667V4.33333C22.6157 3.7145 22.37 3.12101 21.9324 2.68342C21.4948 2.24584 20.9012 2 20.2824 2ZM16.9517 4.66667C17.748 4.66667 18.5119 4.98302 19.0749 5.54613C19.638 6.10923 19.9544 6.87298 19.9544 7.66933C19.9544 8.4657 19.638 9.22942 19.0749 9.79254C18.5119 10.3556 17.748 10.672 16.9517 10.672C16.1554 10.672 15.3916 10.3556 14.8285 9.79254C14.2654 9.22942 13.9491 8.4657 13.9491 7.66933C13.9491 6.87298 14.2654 6.10923 14.8285 5.54613C15.3916 4.98302 16.1554 4.66667 16.9517 4.66667ZM16.9517 6.66667C16.6858 6.66667 16.4308 6.7723 16.2427 6.96034C16.0547 7.14838 15.9491 7.40341 15.9491 7.66933C15.9491 7.93526 16.0547 8.19029 16.2427 8.37832C16.4308 8.56637 16.6858 8.672 16.9517 8.672C17.2176 8.672 17.4727 8.56637 17.6607 8.37832C17.8487 8.19029 17.9544 7.93526 17.9544 7.66933C17.9544 7.40341 17.8487 7.14838 17.6607 6.96034C17.4727 6.7723 17.2176 6.66667 16.9517 6.66667Z" fill="#707070"/>
</g>
<defs>
<clipPath id="clip0_56_5234">
<rect width="24" height="24" fill="white" transform="translate(0.615723)"/>
</clipPath>
</defs>
</svg>
