<svg width="25" height="24" viewBox="0 0 25 24" fill="none" xmlns="http://www.w3.org/2000/svg">
<path d="M9.84668 16.8076C10.5897 16.8081 11.1924 17.4111 11.1924 18.1543C11.192 18.8971 10.5895 19.4996 9.84668 19.5C9.10347 19.5 8.50039 18.8974 8.5 18.1543C8.5 17.4109 9.10323 16.8076 9.84668 16.8076ZM16 16.8076C16.7432 16.8079 17.3457 17.4111 17.3457 18.1543C17.3453 18.8972 16.7429 19.4997 16 19.5C15.2568 19.5 14.6537 18.8974 14.6533 18.1543C14.6533 17.4109 15.2566 16.8076 16 16.8076ZM9.84668 10.6533C10.5895 10.6538 11.1922 11.2569 11.1924 12C11.1922 12.743 10.5896 13.3453 9.84668 13.3457C9.10337 13.3457 8.50023 12.7432 8.5 12C8.50018 11.2566 9.10345 10.6533 9.84668 10.6533ZM16 10.6533C16.7429 10.6536 17.3455 11.2568 17.3457 12C17.3455 12.743 16.743 13.3454 16 13.3457C15.2567 13.3457 14.6535 12.7432 14.6533 12C14.6535 11.2566 15.2568 10.6533 16 10.6533ZM9.84668 4.5C10.5897 4.50044 11.1923 5.10358 11.1924 5.84668C11.1922 6.58971 10.5896 7.19195 9.84668 7.19238C9.10338 7.19238 8.50018 6.58996 8.5 5.84668C8.50009 5.10333 9.10331 4.5 9.84668 4.5ZM16 4.5C16.7431 4.50026 17.3456 5.10352 17.3457 5.84668C17.3455 6.58977 16.743 7.19213 16 7.19238C15.2567 7.19238 14.6535 6.58998 14.6533 5.84668C14.6534 5.1033 15.2566 4.5 16 4.5Z" fill="#BABABA"/>
</svg>
