<svg width="25" height="24" viewBox="0 0 25 24" fill="none" xmlns="http://www.w3.org/2000/svg">
<path fill-rule="evenodd" clip-rule="evenodd" d="M17.8179 5.71875C18.4907 5.71875 19.0997 5.991 19.5399 6.432C19.9809 6.873 20.2532 7.482 20.2532 8.154V14.8335C20.2532 15.5055 19.9809 16.1145 19.5407 16.5555C19.0997 16.9958 18.4907 17.268 17.8179 17.268H13.6539L12.5777 19.2293L10.9652 17.2688H6.92793C6.60806 17.2692 6.29127 17.2064 5.99575 17.084C5.70024 16.9616 5.43182 16.782 5.20593 16.5555C4.97946 16.3296 4.79987 16.0612 4.67747 15.7657C4.55506 15.4702 4.49226 15.1534 4.49268 14.8335V8.154C4.49268 7.48125 4.76493 6.873 5.20593 6.432C5.43182 6.20554 5.70024 6.02594 5.99575 5.90354C6.29127 5.78114 6.60806 5.71834 6.92793 5.71875H17.8179Z" stroke="#343434" stroke-width="0.9375"/>
<path fill-rule="evenodd" clip-rule="evenodd" d="M16.4385 10.1872C16.7685 10.1872 17.0722 10.3147 17.31 10.5292V10.332H18.1807V13.2C18.1808 13.5519 18.0426 13.8898 17.796 14.1409C17.5494 14.392 17.2141 14.5362 16.8622 14.5425H16.656V13.6605C16.7336 13.6762 16.8137 13.6749 16.8907 13.6565C16.9678 13.6381 17.0399 13.6031 17.102 13.554C17.1641 13.5048 17.2148 13.4427 17.2504 13.372C17.2861 13.3013 17.3059 13.2237 17.3085 13.1445L17.31 13.1272V12.894C17.0722 13.1126 16.7614 13.2346 16.4385 13.236C15.6765 13.236 15.0585 12.5535 15.0585 11.7112C15.0585 10.8697 15.6765 10.1872 16.4385 10.1872ZM13.1355 10.1872C13.9972 10.1872 14.6955 10.902 14.6955 11.7847C14.6955 12.666 13.9972 13.3815 13.1355 13.3815C12.273 13.3815 11.574 12.666 11.574 11.784C11.574 10.902 12.273 10.1865 13.1355 10.1865V10.1872ZM7.36346 9.315V10.6012C7.60089 10.3825 7.9114 10.2603 8.23421 10.2585C8.99621 10.2585 9.61421 10.941 9.61421 11.7832C9.61421 12.6255 8.99621 13.308 8.23421 13.308C7.90421 13.308 7.60121 13.1797 7.36346 12.9652V13.2352H6.49121V9.315H7.36271H7.36346ZM9.79571 9.24225C10.4602 9.24225 11.0062 9.753 11.0617 10.404H11.0662V13.2352H10.1947V13.0987C10.1754 13.1052 10.1559 13.1112 10.1362 13.1167C10.1709 13.0601 10.1907 12.9956 10.194 12.9292L10.1947 12.909V10.5127C10.1948 10.4097 10.155 10.3107 10.0837 10.2363C10.0124 10.1619 9.91515 10.118 9.81221 10.1137H9.72296C9.71094 10.1137 9.69893 10.1142 9.68696 10.1152V9.2475C9.72221 9.2445 9.75896 9.243 9.79571 9.243V9.24225ZM8.08946 10.9845C7.68821 10.9845 7.36346 11.3422 7.36346 11.7832C7.36346 12.2242 7.68821 12.582 8.08946 12.582C8.49071 12.582 8.81546 12.2242 8.81546 11.7832C8.81546 11.3422 8.49071 10.9845 8.08946 10.9845ZM13.1355 11.0572C12.7545 11.0572 12.4455 11.3827 12.4455 11.7832C12.4455 12.1845 12.7545 12.5092 13.1355 12.5092C13.5157 12.5092 13.8255 12.1845 13.8255 11.7832C13.8255 11.3827 13.5157 11.0572 13.1355 11.0572ZM16.584 10.9845C16.4406 10.9845 16.3004 11.027 16.1812 11.1065C16.0619 11.186 15.9688 11.2991 15.9137 11.4315C15.8586 11.5638 15.844 11.7095 15.8716 11.8502C15.8991 11.9909 15.9678 12.1203 16.0688 12.222C16.1698 12.3237 16.2987 12.3933 16.4391 12.4219C16.5796 12.4505 16.7254 12.4369 16.8582 12.3827C16.9909 12.3286 17.1047 12.2363 17.1851 12.1177C17.2655 11.999 17.3089 11.8591 17.31 11.7157V11.6902C17.3045 11.5014 17.2256 11.3221 17.09 11.1904C16.9545 11.0588 16.7729 10.9852 16.584 10.9852V10.9845Z" fill="#343434"/>
</svg>
