<svg width="25" height="24" viewBox="0 0 25 24" fill="none" xmlns="http://www.w3.org/2000/svg">
<path d="M20.3853 17C20.9373 17.0003 21.3853 17.4479 21.3853 18C21.3853 18.5521 20.9373 18.9997 20.3853 19H4.38525C3.83297 19 3.38525 18.5523 3.38525 18C3.38525 17.4477 3.83297 17 4.38525 17H20.3853ZM20.3853 11C20.9373 11.0003 21.3853 11.4479 21.3853 12C21.3853 12.5521 20.9373 12.9997 20.3853 13H4.38525C3.83297 13 3.38525 12.5523 3.38525 12C3.38525 11.4477 3.83297 11 4.38525 11H20.3853ZM20.3853 5C20.9373 5.00026 21.3853 5.44788 21.3853 6C21.3853 6.55212 20.9373 6.99974 20.3853 7H4.38525C3.83297 7 3.38525 6.55228 3.38525 6C3.38525 5.44772 3.83297 5 4.38525 5H20.3853Z" fill="#BABABA"/>
</svg>
