<svg width="25" height="24" viewBox="0 0 25 24" fill="none" xmlns="http://www.w3.org/2000/svg">
<path d="M12.3397 18.597C12.7393 18.2079 13.3794 18.2168 13.7684 18.6165C14.1571 19.0162 14.1484 19.6553 13.7489 20.0442L12.95 20.8216C12.5504 21.2106 11.9114 21.2017 11.5223 20.802C11.1335 20.4024 11.1415 19.7633 11.5409 19.3743L12.3397 18.597Z" fill="#FF5B1A"/>
<path d="M10.3475 16.5657C10.7471 16.177 11.3864 16.1857 11.7752 16.5852C12.164 16.9849 12.1553 17.6241 11.7557 18.013L10.9549 18.7923C10.5552 19.181 9.91613 19.1723 9.52719 18.7727C9.13841 18.3731 9.14717 17.734 9.54672 17.345L10.3475 16.5657Z" fill="#FF5B1A"/>
<path d="M4.16879 3.85867C6.24525 1.77294 9.61912 1.76468 11.7049 3.84109L11.6756 3.86941L11.6805 3.87332L9.96664 5.58621L7.07895 8.4866C6.43232 9.27181 6.47606 10.4403 7.20981 11.1741C8.4796 12.4429 9.82063 11.3942 10.0409 11.1741L13.8006 7.41238L19.3719 12.9837C19.7613 13.3736 19.7616 14.004 19.3719 14.3938C18.9821 14.7836 18.3521 14.7832 17.952 14.3938L13.3309 9.77273L12.6209 10.4837L17.242 15.1038C17.6312 15.4937 17.6313 16.1241 17.242 16.5139C16.8522 16.9037 16.2212 16.9033 15.8211 16.5139L11.201 11.8938L10.4911 12.6038L15.1102 17.2249C15.4998 17.6149 15.5001 18.2452 15.1102 18.635C15.0275 18.7176 14.9325 18.7808 14.8329 18.8284C14.7523 18.5428 14.6011 18.2718 14.3797 18.0442C13.9835 17.6374 13.445 17.453 12.9198 17.4925C12.977 16.9712 12.812 16.4289 12.4178 16.0237C12.0096 15.6046 11.4485 15.4253 10.909 15.4856C10.9843 14.9499 10.8212 14.3859 10.4149 13.968C9.71648 13.2506 8.56788 13.2345 7.85043 13.9329L6.4559 15.2913C6.39844 15.3472 6.34614 15.4068 6.2977 15.468L3.25961 12.4134C3.18615 12.3399 3.11635 12.2563 3.0516 12.1653C1.14683 10.0779 1.19864 6.84074 3.21371 4.81668L4.16879 3.85867Z" fill="#FF5B1A"/>
<path d="M8.41 14.513C8.78181 14.1515 9.37636 14.1599 9.73813 14.5315C10.0998 14.9032 10.0921 15.4978 9.72055 15.8596L8.82504 16.7307C8.4533 17.0926 7.85883 17.0848 7.49692 16.7132C7.13503 16.3414 7.14276 15.7469 7.51449 15.385L8.41 14.513Z" fill="#FF5B1A"/>
<path d="M13.1141 3.86258C15.1999 1.7861 18.5747 1.79342 20.6512 3.87918L21.5887 4.82156C23.6651 6.90727 23.6577 10.2812 21.5721 12.3577C21.555 12.3762 21.5389 12.3959 21.5213 12.4134L20.8612 13.0442L13.8104 6.0032L9.33969 10.4641C8.94982 10.8533 8.29992 10.8531 7.91 10.4641C7.52002 10.0741 7.52003 9.44306 7.91 9.05301L13.0409 3.93289C13.0644 3.90934 13.0897 3.88645 13.1151 3.86355L13.1141 3.86258Z" fill="#FF5B1A"/>
</svg>
