<svg width="25" height="24" viewBox="0 0 25 24" fill="none" xmlns="http://www.w3.org/2000/svg">
<g clip-path="url(#clip0_56_5215)">
<path d="M18.3076 -0.0591736H6.30762C2.99391 -0.0591736 0.307617 2.64035 0.307617 5.97041V18.0295C0.307617 21.3595 2.99391 24.059 6.30762 24.059H18.3076C21.6213 24.059 24.3076 21.3595 24.3076 18.0295V5.97041C24.3076 2.64035 21.6213 -0.0591736 18.3076 -0.0591736Z" fill="#EDAB47"/>
<path d="M16.5073 10.394C17.1681 10.394 17.7075 10.9277 17.7075 11.5902V15.5238C17.7073 16.1862 17.168 16.7201 16.5073 16.7201H8.10791C7.44732 16.72 6.90794 16.1862 6.90771 15.5238V11.5902C6.90771 10.9277 7.44718 10.394 8.10791 10.394H16.5073ZM8.10791 11.2338C7.90721 11.2339 7.74756 11.3955 7.74756 11.5902V15.5238C7.74778 15.7184 7.90735 15.8802 8.10791 15.8803H16.5073C16.708 15.8803 16.8675 15.7184 16.8677 15.5238V11.5902C16.8677 11.3955 16.7081 11.2338 16.5073 11.2338H8.10791ZM16.0874 8.3588C16.3194 8.3588 16.5073 8.54594 16.5073 8.77676C16.5072 9.00748 16.3193 9.19473 16.0874 9.19473H8.52783C8.29595 9.19473 8.10803 9.00748 8.10791 8.77676C8.10791 8.54594 8.29587 8.3588 8.52783 8.3588H16.0874ZM14.8882 6.56778C15.12 6.56798 15.3081 6.75505 15.3081 6.98575C15.308 7.21639 15.1199 7.40352 14.8882 7.40372H9.72803C9.49611 7.40372 9.30817 7.21651 9.30811 6.98575C9.30811 6.75493 9.49607 6.56778 9.72803 6.56778H14.8882Z" fill="white"/>
</g>
<defs>
<clipPath id="clip0_56_5215">
<rect width="24" height="24" fill="white" transform="translate(0.307617)"/>
</clipPath>
</defs>
</svg>
