<svg width="24" height="24" viewBox="0 0 24 24" fill="none" xmlns="http://www.w3.org/2000/svg">
<rect width="24" height="24" rx="12" fill="#FF5B1A"/>
<path fill-rule="evenodd" clip-rule="evenodd" d="M13.9901 7.55782L7.8629 13.6851C7.80753 13.7404 7.76757 13.8093 7.74696 13.8848L7.06616 16.3812C6.97455 16.717 7.28277 17.0252 7.61868 16.9337L10.115 16.2529C10.1905 16.2322 10.2594 16.1922 10.3147 16.1369L16.4419 10.0097C16.8799 9.57168 17.051 8.93331 16.8907 8.33502C16.7304 7.73673 16.2631 7.26941 15.6648 7.1091C15.0665 6.94879 14.4281 7.11984 13.9901 7.55782ZM15.4319 7.97839C15.7196 8.05549 15.9443 8.28023 16.0214 8.56795L16.0397 8.65473C16.0807 8.9161 15.9952 9.18373 15.8056 9.37329L9.76217 15.416L8.14105 15.8582L8.58322 14.237L14.6265 8.19418C14.8371 7.98356 15.1441 7.9013 15.4319 7.97839Z" fill="white"/>
</svg>
