<svg width="25" height="24" viewBox="0 0 25 24" fill="none" xmlns="http://www.w3.org/2000/svg">
<g clip-path="url(#clip0_56_5231)">
<circle cx="12.4614" cy="12" r="12" fill="#D8D8D8"/>
<path fill-rule="evenodd" clip-rule="evenodd" d="M16.2387 8.22275C16.5357 8.52075 16.5357 9.00475 16.2387 9.30275L13.5407 11.9998L16.2387 14.6978C16.5357 14.9948 16.5357 15.4778 16.2387 15.7768C15.9407 16.0738 15.4567 16.0738 15.1587 15.7768L12.4617 13.0788L9.76366 15.7768C9.46666 16.0738 8.98366 16.0738 8.68466 15.7768C8.38766 15.4788 8.38766 14.9948 8.68466 14.6968L11.3827 11.9998L8.68466 9.30175C8.38766 9.00475 8.38766 8.52175 8.68466 8.22275C8.98266 7.92575 9.46666 7.92575 9.76466 8.22275L12.4617 10.9207L15.1597 8.22275C15.4567 7.92575 15.9397 7.92575 16.2387 8.22275Z" fill="white"/>
</g>
<defs>
<clipPath id="clip0_56_5231">
<rect width="24" height="24" fill="white" transform="translate(0.461426)"/>
</clipPath>
</defs>
</svg>
