<svg width="25" height="24" viewBox="0 0 25 24" fill="none" xmlns="http://www.w3.org/2000/svg">
<path d="M5.42969 4.1886C9.48413 -0.0118047 16.0707 -0.0118291 20.125 4.18762C24.1867 8.3949 24.1794 15.2116 20.125 19.4113C18.0355 21.5756 15.0876 22.32 12.3545 22.4601C9.90092 22.4052 6.31015 22.4581 4.1582 22.5001C3.37469 22.5151 2.88626 21.6213 3.30273 20.9337L4.61133 18.7726C4.59436 18.7464 2.38379 15.3332 2.38379 11.8068C2.38184 9.05049 3.39574 6.29472 5.42969 4.1886ZM8.4873 11.2921C7.96019 11.2921 7.53331 11.7191 7.5332 12.2462C7.5332 12.7734 7.96012 13.2003 8.4873 13.2003H8.59863C9.12577 13.2003 9.55273 12.7734 9.55273 12.2462C9.55263 11.7192 9.1257 11.2922 8.59863 11.2921H8.4873ZM12.6924 11.2921C12.1653 11.2922 11.7384 11.7192 11.7383 12.2462C11.7383 12.7734 12.1652 13.2003 12.6924 13.2003H12.8037C13.3308 13.2003 13.7578 12.7734 13.7578 12.2462C13.7577 11.7192 13.3308 11.2922 12.8037 11.2921H12.6924ZM16.8984 11.2921C16.3713 11.2921 15.9444 11.7191 15.9443 12.2462C15.9443 12.7734 16.3713 13.2003 16.8984 13.2003H17.0098C17.5369 13.2003 17.9639 12.7734 17.9639 12.2462C17.9638 11.7192 17.5368 11.2922 17.0098 11.2921H16.8984Z" fill="#343434"/>
</svg>
