<svg width="25" height="24" viewBox="0 0 25 24" fill="none" xmlns="http://www.w3.org/2000/svg">
<path d="M14.0764 5C14.1422 4.99988 14.2075 5.01275 14.2683 5.03785C14.3292 5.06296 14.3846 5.09982 14.4312 5.14633L19.3923 10.1074C19.4862 10.2014 19.539 10.3288 19.539 10.4617C19.539 10.5946 19.4862 10.722 19.3923 10.816C18.9112 11.2971 18.3179 11.4053 17.8859 11.4053C17.7085 11.4053 17.5501 11.3873 17.4249 11.3662L14.2838 14.5073C14.3665 14.8404 14.4201 15.1802 14.4442 15.5225C14.4903 16.2261 14.4121 17.2133 13.7226 17.9029C13.6286 17.9969 13.5012 18.0496 13.3683 18.0496C13.2354 18.0496 13.108 17.9969 13.014 17.9029L10.1786 15.0685L6.9895 18.2577C6.79406 18.4531 5.76777 19.1617 5.57233 18.9662C5.37689 18.7708 6.08548 17.7435 6.28091 17.5491L9.47005 14.3599L6.63571 11.5246C6.54177 11.4306 6.48899 11.3032 6.48899 11.1703C6.48899 11.0374 6.54177 10.91 6.63571 10.816C7.32525 10.1265 8.31246 10.0473 9.01604 10.0944C9.35846 10.1184 9.69817 10.1721 10.0313 10.2548L13.1723 7.11473C13.1461 6.96211 13.1327 6.80756 13.1323 6.6527C13.1323 6.22173 13.2405 5.6284 13.7226 5.14633C13.8165 5.05265 13.9437 5.00003 14.0764 5Z" fill="#979797"/>
</svg>
