<svg width="25" height="24" viewBox="0 0 25 24" fill="none" xmlns="http://www.w3.org/2000/svg">
<g clip-path="url(#clip0_56_5210)">
<path d="M18.3848 0H6.38477C3.07106 0 0.384766 2.68629 0.384766 6V18C0.384766 21.3137 3.07106 24 6.38477 24H18.3848C21.6985 24 24.3848 21.3137 24.3848 18V6C24.3848 2.68629 21.6985 0 18.3848 0Z" fill="#FF5B1A"/>
<path d="M10.7349 9C10.8486 8.99989 10.9582 9.04282 11.0415 9.12016C11.1248 9.1975 11.1758 9.30352 11.1842 9.41691C11.1925 9.5303 11.1577 9.64265 11.0866 9.73138C11.0155 9.82011 10.9134 9.87864 10.8009 9.8952L10.7349 9.9H9.38494C8.83858 9.89982 8.31365 10.1126 7.9216 10.4931C7.52955 10.8737 7.30125 11.392 7.28516 11.9382C7.26908 12.4843 7.46647 13.0152 7.83545 13.4182C8.20442 13.8211 8.71591 14.0644 9.26134 14.0964L9.38494 14.1H10.7349C10.8486 14.0999 10.9582 14.1428 11.0415 14.2202C11.1248 14.2975 11.1758 14.4035 11.1842 14.5169C11.1925 14.6303 11.1577 14.7427 11.0866 14.8314C11.0155 14.9201 10.9134 14.9786 10.8009 14.9952L10.7349 15H9.38494C8.60175 15.0008 7.84929 14.6953 7.28832 14.1488C6.72735 13.6022 6.40236 12.858 6.38278 12.075C6.36319 11.2921 6.65056 10.5325 7.1835 9.9586C7.71644 9.38469 8.45269 9.04195 9.23494 9.0036L9.38494 9H10.7349ZM15.3849 9C16.1681 8.99919 16.9206 9.30469 17.4816 9.85123C18.0425 10.3978 18.3675 11.142 18.3871 11.925C18.4067 12.7079 18.1193 13.4675 17.5864 14.0414C17.0534 14.6153 16.3172 14.9581 15.5349 14.9964L15.3849 15H14.0349C13.9212 15.0001 13.8117 14.9572 13.7284 14.8798C13.645 14.8025 13.5941 14.6965 13.5857 14.5831C13.5774 14.4697 13.6122 14.3573 13.6833 14.2686C13.7544 14.1799 13.8565 14.1214 13.9689 14.1048L14.0349 14.1H15.3849C15.9313 14.1002 16.4562 13.8874 16.8483 13.5069C17.2403 13.1263 17.4686 12.608 17.4847 12.0618C17.5008 11.5157 17.3034 10.9848 16.9344 10.5818C16.5655 10.1789 16.054 9.93558 15.5085 9.9036L15.3849 9.9H14.0349C13.9212 9.90012 13.8117 9.85719 13.7284 9.77984C13.645 9.7025 13.5941 9.59648 13.5857 9.48309C13.5774 9.3697 13.6122 9.25735 13.6833 9.16862C13.7544 9.07989 13.8565 9.02136 13.9689 9.0048L14.0349 9H15.3849ZM9.38494 11.55H15.3849C15.499 11.55 15.6087 11.5933 15.692 11.6712C15.7753 11.749 15.826 11.8556 15.8338 11.9693C15.8415 12.0831 15.8058 12.1955 15.7339 12.284C15.6619 12.3724 15.5591 12.4303 15.4461 12.4458L15.3849 12.45H9.38494C9.27093 12.45 9.16118 12.4067 9.07787 12.3288C8.99456 12.251 8.9439 12.1444 8.93613 12.0307C8.92836 11.9169 8.96405 11.8045 9.036 11.716C9.10795 11.6276 9.21079 11.5697 9.32374 11.5542L9.38494 11.55Z" fill="white"/>
</g>
<defs>
<clipPath id="clip0_56_5210">
<rect width="24" height="24" fill="white" transform="translate(0.384766)"/>
</clipPath>
</defs>
</svg>
