<svg width="25" height="24" viewBox="0 0 25 24" fill="none" xmlns="http://www.w3.org/2000/svg">
<g clip-path="url(#clip0_130_19564)">
<path d="M19.5848 0H5.18477C2.5338 0 0.384766 2.14903 0.384766 4.8V19.2C0.384766 21.851 2.5338 24 5.18477 24H19.5848C22.2357 24 24.3848 21.851 24.3848 19.2V4.8C24.3848 2.14903 22.2357 0 19.5848 0Z" fill="#FF5B1A"/>
<path d="M10.7379 9C10.8516 8.99989 10.9611 9.04282 11.0444 9.12016C11.1278 9.1975 11.1787 9.30352 11.1871 9.41691C11.1955 9.5303 11.1606 9.64265 11.0895 9.73138C11.0184 9.82011 10.9164 9.87864 10.8039 9.8952L10.7379 9.9H9.38787C8.84151 9.89982 8.31658 10.1126 7.92453 10.4931C7.53248 10.8737 7.30418 11.392 7.28809 11.9382C7.27201 12.4843 7.4694 13.0152 7.83838 13.4182C8.20735 13.8211 8.71884 14.0644 9.26427 14.0964L9.38787 14.1H10.7379C10.8516 14.0999 10.9611 14.1428 11.0444 14.2202C11.1278 14.2975 11.1787 14.4035 11.1871 14.5169C11.1955 14.6303 11.1606 14.7427 11.0895 14.8314C11.0184 14.9201 10.9164 14.9786 10.8039 14.9952L10.7379 15H9.38787C8.60468 15.0008 7.85222 14.6953 7.29125 14.1488C6.73028 13.6022 6.40529 12.858 6.3857 12.075C6.36612 11.2921 6.65349 10.5325 7.18643 9.9586C7.71937 9.38469 8.45562 9.04195 9.23787 9.0036L9.38787 9H10.7379ZM15.3879 9C16.1711 8.99919 16.9235 9.30469 17.4845 9.85123C18.0455 10.3978 18.3705 11.142 18.39 11.925C18.4096 12.7079 18.1223 13.4675 17.5893 14.0414C17.0564 14.6153 16.3201 14.9581 15.5379 14.9964L15.3879 15H14.0379C13.9242 15.0001 13.8147 14.9572 13.7313 14.8798C13.648 14.8025 13.597 14.6965 13.5886 14.5831C13.5803 14.4697 13.6152 14.3573 13.6862 14.2686C13.7573 14.1799 13.8594 14.1214 13.9719 14.1048L14.0379 14.1H15.3879C15.9342 14.1002 16.4592 13.8874 16.8512 13.5069C17.2433 13.1263 17.4716 12.608 17.4877 12.0618C17.5037 11.5157 17.3063 10.9848 16.9374 10.5818C16.5684 10.1789 16.0569 9.93558 15.5115 9.9036L15.3879 9.9H14.0379C13.9242 9.90012 13.8147 9.85719 13.7313 9.77984C13.648 9.7025 13.597 9.59648 13.5886 9.48309C13.5803 9.3697 13.6152 9.25735 13.6862 9.16862C13.7573 9.07989 13.8594 9.02136 13.9719 9.0048L14.0379 9H15.3879ZM9.38787 11.55H15.3879C15.5019 11.55 15.6116 11.5933 15.6949 11.6712C15.7783 11.749 15.8289 11.8556 15.8367 11.9693C15.8445 12.0831 15.8088 12.1955 15.7368 12.284C15.6649 12.3724 15.562 12.4303 15.4491 12.4458L15.3879 12.45H9.38787C9.27386 12.45 9.16411 12.4067 9.0808 12.3288C8.99749 12.251 8.94683 12.1444 8.93906 12.0307C8.93129 11.9169 8.96698 11.8045 9.03893 11.716C9.11088 11.6276 9.21372 11.5697 9.32667 11.5542L9.38787 11.55Z" fill="white"/>
</g>
<defs>
<clipPath id="clip0_130_19564">
<rect width="24" height="24" fill="white" transform="translate(0.384766)"/>
</clipPath>
</defs>
</svg>
