<svg width="25" height="24" viewBox="0 0 25 24" fill="none" xmlns="http://www.w3.org/2000/svg">
<path d="M10.1945 4.33334H14.5755C14.5755 3.75238 14.3447 3.19522 13.9339 2.78443C13.5231 2.37363 12.966 2.14286 12.385 2.14286C11.804 2.14286 11.2469 2.37363 10.8361 2.78443C10.4253 3.19522 10.1945 3.75238 10.1945 4.33334ZM8.55166 4.33334C8.55166 3.82993 8.65082 3.33146 8.84345 2.86638C9.03611 2.4013 9.31846 1.97872 9.67443 1.62275C10.0304 1.2668 10.453 0.984438 10.918 0.791795C11.3831 0.599152 11.8815 0.5 12.385 0.5C12.8884 0.5 13.3869 0.599152 13.8519 0.791795C14.317 0.984438 14.7396 1.2668 15.0956 1.62275C15.4515 1.97872 15.7339 2.4013 15.9266 2.86638C16.1191 3.33146 16.2183 3.82993 16.2183 4.33334H22.5159C22.7338 4.33334 22.9427 4.41987 23.0967 4.57392C23.2508 4.72798 23.3374 4.9369 23.3374 5.15477C23.3374 5.37262 23.2508 5.58155 23.0967 5.7356C22.9427 5.88965 22.7338 5.97619 22.5159 5.97619H21.0702L19.7889 19.2406C19.6905 20.257 19.2171 21.2002 18.461 21.8865C17.7049 22.5728 16.7203 22.9528 15.6991 22.9523H9.0708C8.0499 22.9525 7.06554 22.5723 6.30966 21.8862C5.55378 21.1999 5.08056 20.2568 4.98229 19.2406L3.69976 5.97619H2.25405C2.03619 5.97619 1.82726 5.88965 1.6732 5.7356C1.51916 5.58155 1.43262 5.37262 1.43262 5.15477C1.43262 4.9369 1.51916 4.72798 1.6732 4.57392C1.82726 4.41987 2.03619 4.33334 2.25405 4.33334H8.55166ZM10.7421 9.53572C10.7421 9.31785 10.6556 9.10893 10.5015 8.95488C10.3475 8.80083 10.1386 8.71429 9.92071 8.71429C9.70286 8.71429 9.49392 8.80083 9.33988 8.95488C9.18583 9.10893 9.09928 9.31785 9.09928 9.53572V17.7499C9.09928 17.9679 9.18583 18.1768 9.33988 18.3309C9.49392 18.4849 9.70286 18.5714 9.92071 18.5714C10.1386 18.5714 10.3475 18.4849 10.5015 18.3309C10.6556 18.1768 10.7421 17.9679 10.7421 17.7499V9.53572ZM14.8493 8.71429C15.0671 8.71429 15.2761 8.80083 15.4301 8.95488C15.5842 9.10893 15.6707 9.31785 15.6707 9.53572V17.7499C15.6707 17.9679 15.5842 18.1768 15.4301 18.3309C15.2761 18.4849 15.0671 18.5714 14.8493 18.5714C14.6314 18.5714 14.4225 18.4849 14.2684 18.3309C14.1143 18.1768 14.0278 17.9679 14.0278 17.7499V9.53572C14.0278 9.31785 14.1143 9.10893 14.2684 8.95488C14.4225 8.80083 14.6314 8.71429 14.8493 8.71429ZM6.61748 19.0829C6.67655 19.6926 6.96055 20.2584 7.41412 20.6701C7.86768 21.0817 8.45829 21.3096 9.0708 21.3095H15.6991C16.3117 21.3096 16.9023 21.0817 17.3558 20.6701C17.8094 20.2584 18.0934 19.6926 18.1525 19.0829L19.4209 5.97619H5.34919L6.61748 19.0829Z" fill="#BABABA"/>
</svg>
