<svg width="25" height="24" viewBox="0 0 25 24" fill="none" xmlns="http://www.w3.org/2000/svg">
<g clip-path="url(#clip0_56_5216)">
<path d="M18.6924 0H6.69238C3.37867 0 0.692383 2.68629 0.692383 6V18C0.692383 21.3137 3.37867 24 6.69238 24H18.6924C22.0061 24 24.6924 21.3137 24.6924 18V6C24.6924 2.68629 22.0061 0 18.6924 0Z" fill="#29BCDD"/>
<path d="M16.293 7.04999C17.204 7.05028 17.9424 7.78929 17.9424 8.70038V15.3C17.9424 16.2111 17.204 16.9501 16.293 16.9504H9.09277C8.1815 16.9504 7.44238 16.2113 7.44238 15.3V8.70038C7.44238 7.78911 8.1815 7.04999 9.09277 7.04999H16.293ZM12.6934 13.1965C12.6571 13.1965 12.622 13.2097 12.5947 13.2336L12.585 13.2414L9.19727 16.05H16.1875L12.8008 13.2414L12.792 13.2336C12.7647 13.2097 12.7296 13.1965 12.6934 13.1965ZM9.09277 7.95038C8.67856 7.95038 8.34277 8.28616 8.34277 8.70038V15.3C8.34277 15.3884 8.3606 15.4722 8.38867 15.551L12.0107 12.548V12.549C12.2009 12.3863 12.4428 12.2961 12.6934 12.2961C12.9436 12.2961 13.185 12.3865 13.375 12.549L16.9961 15.551C17.0242 15.4722 17.043 15.3884 17.043 15.3V8.70038C17.043 8.28634 16.7069 7.95067 16.293 7.95038H9.09277ZM14.792 8.70038C15.6204 8.70038 16.2919 9.37204 16.292 10.2004C16.2918 11.0286 15.6203 11.7004 14.792 11.7004C13.9639 11.7001 13.2922 11.0285 13.292 10.2004C13.2921 9.37219 13.9638 8.70062 14.792 8.70038ZM14.792 9.60077C14.4609 9.60101 14.1925 9.86924 14.1924 10.2004C14.1926 10.5314 14.461 10.8007 14.792 10.801C15.1232 10.801 15.3924 10.5316 15.3926 10.2004C15.3925 9.8691 15.1233 9.60077 14.792 9.60077Z" fill="white"/>
</g>
<defs>
<clipPath id="clip0_56_5216">
<rect width="24" height="24" fill="white" transform="translate(0.692383)"/>
</clipPath>
</defs>
</svg>
