<svg width="25" height="24" viewBox="0 0 25 24" fill="none" xmlns="http://www.w3.org/2000/svg">
<path d="M12.7245 18.597C13.1241 18.2079 13.7642 18.2168 14.1532 18.6165C14.5419 19.0162 14.5332 19.6553 14.1336 20.0442L13.3348 20.8216C12.9351 21.2106 12.2961 21.2017 11.9071 20.802C11.5182 20.4024 11.5263 19.7633 11.9256 19.3743L12.7245 18.597Z" fill="#BABABA"/>
<path d="M10.7323 16.5657C11.1318 16.177 11.7711 16.1857 12.16 16.5852C12.5488 16.9849 12.54 17.6241 12.1405 18.013L11.3397 18.7923C10.94 19.181 10.3009 19.1723 9.91195 18.7727C9.52318 18.3731 9.53194 17.734 9.93149 17.345L10.7323 16.5657Z" fill="#BABABA"/>
<path d="M4.55356 3.85867C6.63002 1.77294 10.0039 1.76468 12.0897 3.84109L12.0604 3.86941L12.0653 3.87332L10.3514 5.58621L7.46371 8.4866C6.81709 9.27181 6.86083 10.4403 7.59457 11.1741C8.86437 12.4429 10.2054 11.3942 10.4256 11.1741L14.1854 7.41238L19.7567 12.9837C20.1461 13.3736 20.1464 14.004 19.7567 14.3938C19.3668 14.7836 18.7368 14.7832 18.3368 14.3938L13.7157 9.77273L13.0057 10.4837L17.6268 15.1038C18.016 15.4937 18.0161 16.1241 17.6268 16.5139C17.2369 16.9037 16.606 16.9033 16.2059 16.5139L11.5858 11.8938L10.8758 12.6038L15.495 17.2249C15.8845 17.6149 15.8849 18.2452 15.495 18.635C15.4122 18.7176 15.3173 18.7808 15.2176 18.8284C15.1371 18.5428 14.9859 18.2718 14.7645 18.0442C14.3682 17.6374 13.8298 17.453 13.3045 17.4925C13.3617 16.9712 13.1967 16.4289 12.8026 16.0237C12.3944 15.6046 11.8333 15.4253 11.2938 15.4856C11.3691 14.9499 11.206 14.3859 10.7997 13.968C10.1012 13.2506 8.95265 13.2345 8.2352 13.9329L6.84067 15.2913C6.78321 15.3472 6.7309 15.4068 6.68246 15.468L3.64438 12.4134C3.57092 12.3399 3.50112 12.2563 3.43637 12.1653C1.53159 10.0779 1.58341 6.84074 3.59848 4.81668L4.55356 3.85867Z" fill="#BABABA"/>
<path d="M8.79477 14.513C9.16658 14.1515 9.76113 14.1599 10.1229 14.5315C10.4846 14.9032 10.4768 15.4978 10.1053 15.8596L9.20981 16.7307C8.83806 17.0926 8.24359 17.0848 7.88168 16.7132C7.5198 16.3414 7.52752 15.7469 7.89926 15.385L8.79477 14.513Z" fill="#BABABA"/>
<path d="M13.4989 3.86258C15.5847 1.7861 18.9595 1.79342 21.036 3.87918L21.9735 4.82156C24.0499 6.90727 24.0425 10.2812 21.9569 12.3577C21.9398 12.3762 21.9236 12.3959 21.9061 12.4134L21.2459 13.0442L14.1952 6.0032L9.72445 10.4641C9.33458 10.8533 8.68469 10.8531 8.29477 10.4641C7.90478 10.0741 7.90479 9.44306 8.29477 9.05301L13.4256 3.93289C13.4492 3.90934 13.4744 3.88645 13.4998 3.86355L13.4989 3.86258Z" fill="#BABABA"/>
</svg>
