<svg width="25" height="24" viewBox="0 0 25 24" fill="none" xmlns="http://www.w3.org/2000/svg">
<path d="M4.7378 4.18864C8.79224 -0.0117614 15.3788 -0.0117862 19.4331 4.18767C23.4948 8.39495 23.4875 15.2116 19.4331 19.4113C17.3436 21.5756 14.3957 22.3201 11.6626 22.4601C9.20903 22.4052 5.61826 22.4582 3.46631 22.5002C2.68279 22.5151 2.19437 21.6213 2.61084 20.9338L3.91944 18.7726C3.90247 18.7465 1.6919 15.3332 1.6919 11.8068C1.68995 9.05054 2.70385 6.29477 4.7378 4.18864ZM7.79541 11.2922C7.2683 11.2922 6.84142 11.7192 6.84131 12.2463C6.84131 12.7734 7.26823 13.2004 7.79541 13.2004H7.90674C8.43388 13.2003 8.86084 12.7734 8.86084 12.2463C8.86074 11.7192 8.43381 11.2922 7.90674 11.2922H7.79541ZM12.0005 11.2922C11.4734 11.2922 11.0465 11.7192 11.0464 12.2463C11.0464 12.7734 11.4733 13.2003 12.0005 13.2004H12.1118C12.639 13.2003 13.0659 12.7734 13.0659 12.2463C13.0658 11.7192 12.6389 11.2922 12.1118 11.2922H12.0005ZM16.2065 11.2922C15.6794 11.2922 15.2526 11.7192 15.2524 12.2463C15.2524 12.7734 15.6794 13.2004 16.2065 13.2004H16.3179C16.845 13.2003 17.272 12.7734 17.272 12.2463C17.2719 11.7192 16.8449 11.2922 16.3179 11.2922H16.2065Z" fill="#BABABA"/>
</svg>
