<svg width="25" height="24" viewBox="0 0 25 24" fill="none" xmlns="http://www.w3.org/2000/svg">
<path d="M2.97949 9.73001C2.97949 5.65075 6.28621 2.34418 10.3654 2.34406C14.4448 2.34406 17.7514 5.65067 17.7514 9.73001C17.7514 11.442 17.0958 13.0922 16.1183 14.3448L21.3684 19.5949C21.7234 19.95 21.7973 20.4518 21.4423 20.8068C21.0873 21.1617 20.5854 21.0879 20.2304 20.7329L14.9803 15.4828C13.7277 16.4604 12.0774 17.1159 10.3654 17.1159C6.2862 17.1158 2.97949 13.8092 2.97949 9.73001ZM6.25124 5.61581C3.97136 7.89587 3.97078 11.5924 6.25055 13.8725C8.53066 16.1526 12.2278 16.1525 14.5079 13.8725C16.7881 11.5923 16.7881 7.89528 14.5079 5.61512C12.2277 3.3353 8.53129 3.33576 6.25124 5.61581Z" fill="#343434"/>
</svg>
