<svg width="25" height="24" viewBox="0 0 25 24" fill="none" xmlns="http://www.w3.org/2000/svg">
<g clip-path="url(#clip0_56_5236)">
<path d="M23.3634 12.1181C23.8389 12.2492 24.2103 12.6315 24.3378 13.1208C24.4511 13.5558 24.3562 14.0167 24.0892 14.3654L23.9812 14.4906L18.3018 20.3349C18.2725 20.3651 18.2384 20.3897 18.2011 20.4078L18.143 20.4298L16.1589 20.9866C15.9187 21.054 15.6962 20.8567 15.7072 20.6161L15.7197 20.5347L16.2609 18.493C16.2719 18.4517 16.2896 18.413 16.3133 18.3783L16.3531 18.3296L22.0324 12.4851C22.3805 12.1269 22.8879 11.987 23.3634 12.1181ZM16.2481 15.2791L13.5427 18.0697H1.7407C0.991833 18.0697 0.384766 17.4451 0.384766 16.6745C0.384766 15.9037 0.991833 15.2791 1.7407 15.2791H16.2481ZM21.2687 9.13953C21.7181 9.13953 22.0823 9.51439 22.0823 9.97675C22.0823 10.4006 21.7762 10.7509 21.3792 10.8063L21.2687 10.814H1.20097C0.75166 10.814 0.387413 10.4391 0.387413 9.97675C0.387413 9.55289 0.693484 9.20261 1.09058 9.14713L1.20097 9.13953H21.2687ZM4.99494 3C5.44424 3 5.8085 3.37484 5.8085 3.83721C5.8085 4.29959 5.44424 4.67443 4.99494 4.67443H1.19832C0.749012 4.67443 0.384766 4.29959 0.384766 3.83721C0.384766 3.37484 0.749012 3 1.19832 3H4.99494ZM12.8593 3C13.3086 3 13.6729 3.37484 13.6729 3.83721C13.6729 4.29959 13.3086 4.67443 12.8593 4.67443H9.6051C9.1558 4.67443 8.79154 4.29959 8.79154 3.83721C8.79154 3.37484 9.1558 3 9.6051 3H12.8593ZM21.2661 3C21.7154 3 22.0796 3.37484 22.0796 3.83721C22.0796 4.29959 21.7154 4.67443 21.2661 4.67443H17.4695C17.0202 4.67443 16.656 4.29959 16.656 3.83721C16.656 3.37484 17.0202 3 17.4695 3H21.2661Z" fill="#707070"/>
</g>
<defs>
<clipPath id="clip0_56_5236">
<rect width="24" height="24" fill="white" transform="translate(0.384766)"/>
</clipPath>
</defs>
</svg>
