<svg width="25" height="24" viewBox="0 0 25 24" fill="none" xmlns="http://www.w3.org/2000/svg">
<path d="M12.3892 1.61841C16.7411 1.61841 18.9174 1.61884 20.4429 2.6106C20.9355 2.93088 21.3691 3.31822 21.7271 3.75903C22.8353 5.12406 22.8345 7.07168 22.8345 10.9661V13.0432C22.8345 16.937 22.8349 18.8842 21.7271 20.2493C21.3691 20.6901 20.9355 21.0784 20.4429 21.3987C18.9174 22.3905 16.741 22.3899 12.3892 22.3899C8.03767 22.3899 5.86179 22.3903 4.33643 21.3987C3.84378 21.0784 3.41017 20.6901 3.05225 20.2493C1.94422 18.8842 1.94385 16.9372 1.94385 13.0432V10.9661C1.94385 9.75202 1.94445 8.72674 1.97803 7.84985C2.05217 5.91399 2.28951 4.69847 3.05225 3.75903C3.41014 3.31827 3.84385 2.93084 4.33643 2.6106C5.38628 1.92812 6.74428 1.71501 8.90771 1.64868C9.88755 1.61864 11.0327 1.61841 12.3892 1.61841Z" fill="#FF5B1A"/>
<path fill-rule="evenodd" clip-rule="evenodd" d="M7.94713 11.7145C8.1743 11.447 8.58089 11.4242 8.84004 11.6614C9.08973 11.8899 9.1102 12.2739 8.8915 12.5319C8.66953 12.7937 8.46773 13.0407 8.28553 13.2751C7.71172 14.013 7.38737 14.5579 7.2324 14.9812C7.09051 15.3688 7.10391 15.6137 7.17559 15.8238C7.26046 16.0726 7.4779 16.4161 7.99821 16.8922C8.51851 17.3684 8.88079 17.5555 9.13723 17.619C9.35371 17.6727 9.60031 17.6656 9.97697 17.493C10.3885 17.3044 10.9078 16.9379 11.6 16.3084C11.8198 16.1085 12.0507 15.888 12.2948 15.6463C12.5352 15.4083 12.9218 15.3969 13.1715 15.6253C13.4306 15.8625 13.4415 16.2673 13.192 16.5146C10.5472 19.1363 9.13733 19.6265 7.15038 17.8081C5.16343 15.9897 5.53809 14.5521 7.94713 11.7145ZM15.7001 11.97C15.481 12.2279 15.5013 12.6122 15.7512 12.8408C16.0102 13.0779 16.4165 13.0553 16.6439 12.788C19.0746 9.93158 19.4585 8.49039 17.4649 6.66596C15.4713 4.8415 14.0586 5.34106 11.3966 7.98595C11.1476 8.23339 11.1586 8.63785 11.4177 8.87488C11.6674 9.10346 12.0543 9.09184 12.2947 8.85337C12.5483 8.60165 12.7877 8.37269 13.0152 8.1658C13.7074 7.53615 14.2268 7.16968 14.6382 6.9811C15.015 6.80846 15.2615 6.80146 15.4781 6.85511C15.7344 6.91862 16.0968 7.10566 16.617 7.58184C17.1373 8.058 17.3548 8.40149 17.4397 8.65033C17.5113 8.86048 17.5247 9.10528 17.3829 9.49285C17.2279 9.91622 16.9036 10.4611 16.3298 11.1991C16.1411 11.4417 15.9315 11.6978 15.7001 11.97ZM9.67736 14.1384C9.43346 14.4019 9.45055 14.8121 9.7155 15.0546C9.98044 15.297 10.3929 15.28 10.6368 15.0165L14.9346 10.374C15.1784 10.1105 15.1614 9.7004 14.8964 9.4579C14.6314 9.2154 14.2189 9.23239 13.975 9.49592L9.67736 14.1384Z" fill="white"/>
</svg>
