<svg width="25" height="24" viewBox="0 0 25 24" fill="none" xmlns="http://www.w3.org/2000/svg">
<path d="M24.6924 12C24.6924 5.37258 19.3197 0 12.6924 0C6.06496 0 0.692383 5.37258 0.692383 12C0.692383 18.6274 6.06496 24 12.6924 24C19.3197 24 24.6924 18.6274 24.6924 12Z" fill="#FF5B1A"/>
<path fill-rule="evenodd" clip-rule="evenodd" d="M16.001 9.36C16.354 8.936 16.985 8.878 17.409 9.232C17.801 9.558 17.879 10.121 17.612 10.539L17.537 10.64L12.537 16.64C12.187 17.06 11.574 17.116 11.155 16.79L11.062 16.707L8.06203 13.707C7.67203 13.317 7.67203 12.683 8.06203 12.293C8.42203 11.933 8.99003 11.905 9.38203 12.21L9.47603 12.293L11.701 14.517L16.001 9.36Z" fill="white"/>
</svg>
