<svg width="25" height="24" viewBox="0 0 25 24" fill="none" xmlns="http://www.w3.org/2000/svg">
<g clip-path="url(#clip0_130_19747)">
<path d="M18.1538 0H6.15381C2.8401 0 0.153809 2.68629 0.153809 6V18C0.153809 21.3137 2.8401 24 6.15381 24H18.1538C21.4675 24 24.1538 21.3137 24.1538 18V6C24.1538 2.68629 21.4675 0 18.1538 0Z" fill="#9447ED"/>
<path d="M16.0038 7C16.4414 7 16.8611 7.17384 17.1705 7.48327C17.48 7.79271 17.6538 8.21239 17.6538 8.65V14.65C17.6538 15.0876 17.48 15.5073 17.1705 15.8167C16.8611 16.1262 16.4414 16.3 16.0038 16.3H8.80381C8.3662 16.3 7.94652 16.1262 7.63708 15.8167C7.32765 15.5073 7.15381 15.0876 7.15381 14.65V8.65C7.15381 8.21239 7.32765 7.79271 7.63708 7.48327C7.94652 7.17384 8.3662 7 8.80381 7H16.0038ZM16.0038 7.9H8.80381C8.38981 7.9 8.05381 8.236 8.05381 8.65V14.65C8.05381 15.064 8.38981 15.4 8.80381 15.4H16.0038C16.4178 15.4 16.7538 15.064 16.7538 14.65V8.65C16.7538 8.236 16.4178 7.9 16.0038 7.9ZM11.2452 10.222C11.2854 10.1533 11.3512 10.1035 11.4282 10.0833C11.5051 10.0632 11.5869 10.0744 11.6556 10.1146L13.7724 11.3554C13.8171 11.3816 13.8542 11.4188 13.8802 11.4636C13.9062 11.5083 13.9202 11.559 13.9208 11.6108C13.9214 11.6626 13.9086 11.7136 13.8837 11.7589C13.8587 11.8043 13.8225 11.8424 13.7784 11.8696L11.6604 13.1704C11.615 13.1982 11.5629 13.2134 11.5096 13.2145C11.4564 13.2155 11.4038 13.2023 11.3573 13.1763C11.3108 13.1503 11.272 13.1123 11.2451 13.0664C11.2181 13.0204 11.2039 12.9681 11.2038 12.9148V10.3732C11.204 10.32 11.2183 10.2678 11.2452 10.222Z" fill="white"/>
</g>
<defs>
<clipPath id="clip0_130_19747">
<rect width="24" height="24" fill="white" transform="translate(0.153809)"/>
</clipPath>
</defs>
</svg>
