<svg width="25" height="24" viewBox="0 0 25 24" fill="none" xmlns="http://www.w3.org/2000/svg">
<g clip-path="url(#clip0_56_5275)">
<path d="M14.6084 4.96875H9.5459C7.06062 4.96875 5.0459 6.98347 5.0459 9.46875V14.5312C5.0459 17.0165 7.06062 19.0312 9.5459 19.0312H14.6084C17.0937 19.0312 19.1084 17.0165 19.1084 14.5312V9.46875C19.1084 6.98347 17.0937 4.96875 14.6084 4.96875Z" stroke="#343434" stroke-width="0.9375"/>
<path d="M15.8271 9C16.2414 9 16.5771 8.66421 16.5771 8.25C16.5771 7.83579 16.2414 7.5 15.8271 7.5C15.4129 7.5 15.0771 7.83579 15.0771 8.25C15.0771 8.66421 15.4129 9 15.8271 9Z" fill="#343434"/>
<path d="M15.3584 12C15.3584 10.1878 13.8893 8.71875 12.0771 8.71875C10.265 8.71875 8.7959 10.1878 8.7959 12C8.7959 13.8122 10.265 15.2812 12.0771 15.2812C13.8893 15.2812 15.3584 13.8122 15.3584 12Z" stroke="#343434" stroke-width="0.9375"/>
</g>
<defs>
<clipPath id="clip0_56_5275">
<rect width="24" height="24" fill="white" transform="translate(0.0771484)"/>
</clipPath>
</defs>
</svg>
