<svg width="25" height="24" viewBox="0 0 25 24" fill="none" xmlns="http://www.w3.org/2000/svg">
<g clip-path="url(#clip0_56_5211)">
<path d="M18.769 0H6.76904C3.45533 0 0.769043 2.68629 0.769043 6V18C0.769043 21.3137 3.45533 24 6.76904 24H18.769C22.0828 24 24.769 21.3137 24.769 18V6C24.769 2.68629 22.0828 0 18.769 0Z" fill="#1EBF6D"/>
<path d="M10.9692 16.9602C10.8552 16.9602 10.7455 16.9169 10.6622 16.839C10.5789 16.7612 10.5282 16.6546 10.5204 16.5409C10.5127 16.4271 10.5483 16.3147 10.6203 16.2262C10.6922 16.1378 10.7951 16.08 10.908 16.0644L10.9692 16.0602H12.3192V8.85001H9.61924V9.55861C9.61923 9.66735 9.57985 9.77242 9.50838 9.85437C9.4369 9.93632 9.33817 9.98962 9.23044 10.0044L9.16924 10.0086C9.0605 10.0086 8.95543 9.96923 8.87348 9.89775C8.79153 9.82628 8.73823 9.72755 8.72344 9.61981L8.71924 9.55861V8.40001C8.71924 8.29127 8.75862 8.18621 8.8301 8.10425C8.90157 8.0223 9.00031 7.969 9.10804 7.95421L9.16924 7.95001H16.3692C16.478 7.95002 16.583 7.9894 16.665 8.06087C16.747 8.13235 16.8003 8.23108 16.815 8.33881L16.8192 8.40001V9.55861C16.8192 9.67263 16.7759 9.78238 16.6981 9.86569C16.6202 9.949 16.5137 9.99966 16.3999 10.0074C16.2862 10.0152 16.1737 9.9795 16.0853 9.90755C15.9968 9.8356 15.939 9.73276 15.9234 9.61981L15.9192 9.55861V8.85001H13.2192V16.0602H14.5692C14.6833 16.0602 14.793 16.1036 14.8763 16.1814C14.9596 16.2592 15.0103 16.3658 15.0181 16.4795C15.0258 16.5933 14.9901 16.7057 14.9182 16.7942C14.8462 16.8826 14.7434 16.9405 14.6304 16.956L14.5692 16.9602H10.9692Z" fill="white"/>
</g>
<defs>
<clipPath id="clip0_56_5211">
<rect width="24" height="24" fill="white" transform="translate(0.769043)"/>
</clipPath>
</defs>
</svg>
