<svg width="25" height="24" viewBox="0 0 25 24" fill="none" xmlns="http://www.w3.org/2000/svg">
<path d="M19.2368 7.1709C19.2368 6.93864 19.0491 6.75016 18.8169 6.75H5.646C5.41363 6.75 5.2251 6.93853 5.2251 7.1709V16.8291C5.2251 17.0614 5.41364 17.25 5.646 17.25H18.8169C19.049 17.2498 19.2368 17.0613 19.2368 16.8291V7.1709ZM20.7368 16.8291C20.7368 17.8897 19.8775 18.7498 18.8169 18.75H5.646C4.58519 18.75 3.7251 17.8898 3.7251 16.8291V7.1709C3.7251 6.1101 4.5852 5.25 5.646 5.25H18.8169C19.8775 5.25016 20.7368 6.1102 20.7368 7.1709V16.8291Z" fill="white"/>
<path d="M4.60032 5.90257C4.89302 5.60986 5.36788 5.61004 5.66087 5.90257L12.4353 12.6653L18.4167 5.99925C18.6933 5.69093 19.168 5.66504 19.4763 5.94163C19.7846 6.21823 19.8105 6.69288 19.5339 7.0012L13.0241 14.2571C12.8867 14.4103 12.6918 14.5004 12.4861 14.5061C12.2803 14.5117 12.0809 14.4327 11.9353 14.2873L4.60032 6.96311C4.30761 6.67042 4.3078 6.19555 4.60032 5.90257Z" fill="white"/>
</svg>
