<svg width="25" height="24" viewBox="0 0 25 24" fill="none" xmlns="http://www.w3.org/2000/svg">
<g clip-path="url(#clip0_56_5230)">
<path fill-rule="evenodd" clip-rule="evenodd" d="M4.34544 11.2459C4.75721 10.7899 5.49705 10.7508 5.96858 11.1538C6.42129 11.5407 6.45925 12.1908 6.06421 12.6289C5.70659 13.0254 5.37873 13.4018 5.07995 13.7607C4.03771 15.0126 3.44854 15.937 3.16706 16.6551C2.90934 17.3126 2.93367 17.728 3.06386 18.0844C3.21803 18.5064 3.613 19.0891 4.5581 19.8969C5.50322 20.7046 6.1613 21.022 6.62701 21.1298C7.02032 21.2208 7.46817 21.2088 8.15243 20.916C8.89985 20.5961 9.84316 19.9744 11.1006 18.9064C11.461 18.6002 11.8378 18.2657 12.2338 17.902C12.6713 17.5001 13.3721 17.4814 13.8249 17.8684C14.2964 18.2714 14.3156 18.9593 13.8603 19.3781C9.14105 23.7187 6.59398 24.5069 3.01806 21.4505C-0.557858 18.3943 0.0773008 15.9721 4.34544 11.2459ZM18.6627 11.4206C18.2668 11.8584 18.3045 12.5091 18.7576 12.8963C19.2287 13.299 19.9681 13.2601 20.3802 12.8049C24.6899 8.04509 25.3425 5.61644 21.7537 2.54921C18.1649 -0.518053 15.6124 0.286784 10.8605 4.66865C10.4061 5.08769 10.4255 5.77508 10.8968 6.17782C11.3498 6.56499 12.0512 6.54608 12.4884 6.14348C12.9025 5.76203 13.2957 5.41234 13.6712 5.09341C14.9286 4.02536 15.8719 3.40369 16.6193 3.08379C17.3036 2.79092 17.7514 2.77906 18.1448 2.87007C18.6105 2.97781 19.2686 3.29511 20.2137 4.10286C21.1587 4.91063 21.5538 5.49337 21.7079 5.91541C21.8381 6.27186 21.8625 6.68727 21.6047 7.34471C21.3232 8.06281 20.7341 8.98717 19.6918 10.2391C19.3805 10.6129 19.0379 11.0057 18.6627 11.4206ZM7.58528 15.2077C7.13079 15.6662 7.16264 16.3801 7.65643 16.8021C8.15022 17.2241 8.91896 17.1946 9.37346 16.736L17.18 8.86045C17.6345 8.40193 17.6026 7.6881 17.1088 7.26606C16.615 6.84404 15.8463 6.87361 15.3918 7.33213L7.58528 15.2077Z" fill="#FF5B1A"/>
</g>
<defs>
<clipPath id="clip0_56_5230">
<rect width="24" height="24" fill="white" transform="translate(0.0771484)"/>
</clipPath>
</defs>
</svg>
