<svg width="25" height="24" viewBox="0 0 25 24" fill="none" xmlns="http://www.w3.org/2000/svg">
<g clip-path="url(#clip0_56_5214)">
<path d="M18.9229 0H6.92285C3.60914 0 0.922852 2.68629 0.922852 6V18C0.922852 21.3137 3.60914 24 6.92285 24H18.9229C22.2366 24 24.9229 21.3137 24.9229 18V6C24.9229 2.68629 22.2366 0 18.9229 0Z" fill="#5FD12F"/>
<path d="M7.37285 7.79999C7.2535 7.79999 7.13905 7.8474 7.05465 7.93179C6.97026 8.01618 6.92285 8.13064 6.92285 8.24999C6.92285 8.36934 6.97026 8.48379 7.05465 8.56819C7.13905 8.65258 7.2535 8.69999 7.37285 8.69999H9.47285C9.5922 8.69999 9.70666 8.65258 9.79105 8.56819C9.87544 8.48379 9.92285 8.36934 9.92285 8.24999C9.92285 8.13064 9.87544 8.01618 9.79105 7.93179C9.70666 7.8474 9.5922 7.79999 9.47285 7.79999H7.37285ZM11.5729 8.24999C11.5729 8.13064 11.6203 8.01618 11.7047 7.93179C11.789 7.8474 11.9035 7.79999 12.0229 7.79999H13.8229C13.9422 7.79999 14.0567 7.8474 14.1411 7.93179C14.2254 8.01618 14.2729 8.13064 14.2729 8.24999C14.2729 8.36934 14.2254 8.48379 14.1411 8.56819C14.0567 8.65258 13.9422 8.69999 13.8229 8.69999H12.0229C11.9035 8.69999 11.789 8.65258 11.7047 8.56819C11.6203 8.48379 11.5729 8.36934 11.5729 8.24999ZM16.3729 7.79999C16.2535 7.79999 16.139 7.8474 16.0547 7.93179C15.9703 8.01618 15.9229 8.13064 15.9229 8.24999C15.9229 8.36934 15.9703 8.48379 16.0547 8.56819C16.139 8.65258 16.2535 8.69999 16.3729 8.69999H18.4729C18.5922 8.69999 18.7067 8.65258 18.791 8.56819C18.8754 8.48379 18.9229 8.36934 18.9229 8.24999C18.9229 8.13064 18.8754 8.01618 18.791 7.93179C18.7067 7.8474 18.5922 7.79999 18.4729 7.79999H16.3729ZM7.37405 11.1H18.4741C18.5881 11.1 18.6978 11.1433 18.7811 11.2212C18.8644 11.299 18.9151 11.4056 18.9229 11.5193C18.9306 11.6331 18.8949 11.7455 18.823 11.834C18.751 11.9224 18.6482 11.9802 18.5353 11.9958L18.4741 12H7.37405C7.26009 11.9998 7.15044 11.9564 7.06725 11.8785C6.98405 11.8006 6.9335 11.6941 6.92581 11.5804C6.91812 11.4667 6.95386 11.3543 7.0258 11.2659C7.09775 11.1775 7.20055 11.1197 7.31345 11.1042L7.37405 11.1ZM6.92285 15.15C6.92285 14.736 7.25885 14.4 7.67285 14.4H18.1729C18.3718 14.4 18.5625 14.479 18.7032 14.6197C18.8438 14.7603 18.9229 14.9511 18.9229 15.15C18.9229 15.3489 18.8438 15.5397 18.7032 15.6803C18.5625 15.821 18.3718 15.9 18.1729 15.9H7.67285C7.25885 15.9 6.92285 15.564 6.92285 15.15Z" fill="white"/>
</g>
<defs>
<clipPath id="clip0_56_5214">
<rect width="24" height="24" fill="white" transform="translate(0.922852)"/>
</clipPath>
</defs>
</svg>
