<svg width="25" height="24" viewBox="0 0 25 24" fill="none" xmlns="http://www.w3.org/2000/svg">
<g clip-path="url(#clip0_56_5219)">
<path fill-rule="evenodd" clip-rule="evenodd" d="M12.9914 1C6.35329 1 1 5.30222 1 10.5252C1 13.9154 3.22697 16.8838 6.56742 18.5789L5.43681 22.821C5.4155 22.8846 5.41221 22.9529 5.42734 23.0182C5.44246 23.0835 5.47541 23.1433 5.52247 23.191C5.59107 23.2518 5.67936 23.2854 5.77085 23.2856C5.84671 23.2794 5.91869 23.2494 5.97643 23.1995L10.8415 19.904C11.5596 20.0036 12.2835 20.0554 13.0085 20.059C19.638 20.059 24.9999 15.7567 24.9999 10.5252C24.9999 5.29361 19.6208 1 12.9914 1ZM5.19643 9.01973H3.88593C3.72351 9.02436 3.56308 8.98253 3.42341 8.89922C3.3614 8.86013 3.30809 8.8087 3.26681 8.74802C3.22554 8.68716 3.19721 8.61859 3.18359 8.54642C3.17943 8.50065 3.17943 8.45453 3.18359 8.40876C3.17951 8.32305 3.19607 8.23768 3.23185 8.15968C3.26765 8.08185 3.32159 8.01379 3.38915 7.96134C3.53848 7.85269 3.71871 7.79529 3.90306 7.79778H7.85166C8.01534 7.792 8.17682 7.8371 8.31413 7.92688C8.37773 7.96425 8.43208 8.01517 8.47356 8.07619C8.51505 8.13722 8.54248 8.20665 8.55396 8.27968C8.55825 8.32254 8.55825 8.36591 8.55396 8.40876C8.55808 8.49568 8.54145 8.58225 8.50579 8.66162C8.47013 8.74082 8.41613 8.81042 8.34842 8.86476C8.20271 8.97328 8.02425 9.02796 7.84309 9.01973H6.57543V13.5456C6.58059 13.6421 6.56573 13.7385 6.53182 13.8288C6.49789 13.9191 6.44568 14.0014 6.37843 14.0705C6.31395 14.1365 6.23645 14.1883 6.15089 14.2222C6.06533 14.2563 5.97362 14.2721 5.88164 14.2683C5.72078 14.273 5.56334 14.2214 5.43626 14.1221C5.31526 14.0252 5.23315 13.8878 5.20499 13.7349C5.19653 13.6721 5.19653 13.6085 5.20499 13.5456L5.19643 9.01973ZM9.1807 7.78821C9.05848 7.86825 8.97002 7.99082 8.9323 8.13242L7.11646 13.08C7.10684 13.1066 7.09518 13.1338 7.08339 13.1614C7.05323 13.2321 7.02224 13.3046 7.02224 13.3726C7.00753 13.458 7.00753 13.5453 7.02224 13.6306C7.0177 13.6793 7.0177 13.7283 7.02224 13.777C7.04734 13.9197 7.12349 14.0482 7.23637 14.1384C7.35224 14.2258 7.49411 14.2712 7.63893 14.2675C7.77265 14.2843 7.90802 14.2541 8.02202 14.1819C8.13602 14.1098 8.22174 14 8.26425 13.8717L8.62391 12.8133H10.8766L11.2363 13.8717C11.28 13.9977 11.3645 14.1051 11.4765 14.177C11.5882 14.2488 11.7209 14.2807 11.8531 14.2675C11.939 14.2695 12.0243 14.2538 12.1039 14.2212C12.1836 14.1886 12.2556 14.1399 12.3156 14.0782C12.3775 14.0218 12.4265 13.9526 12.4591 13.8752C12.4915 13.7981 12.5069 13.7146 12.504 13.6306C12.5069 13.5763 12.5069 13.5218 12.504 13.4673C12.4742 13.3361 12.4371 13.2069 12.3927 13.08L10.6797 8.21848C10.6387 8.04619 10.5346 7.89568 10.3884 7.79682C10.2502 7.71798 10.0932 7.67924 9.93447 7.68496H9.60893C9.45944 7.67826 9.31099 7.71404 9.1807 7.78821ZM8.97516 11.8411L9.78876 9.25973L10.594 11.8411H8.97516ZM12.7001 8.40774C12.6914 8.21471 12.7591 8.02597 12.8885 7.88282C12.9543 7.81622 13.0334 7.76413 13.1203 7.73005C13.2074 7.69595 13.3006 7.68054 13.3939 7.68488C13.5543 7.68299 13.7109 7.73445 13.8393 7.83119C13.9582 7.93219 14.0373 8.07259 14.0619 8.22705C14.0705 8.28688 14.0705 8.34774 14.0619 8.40774V12.9338H16.4174C16.5807 12.9315 16.7412 12.9763 16.88 13.0627C16.9423 13.1013 16.9959 13.1527 17.0372 13.2135C17.0785 13.2742 17.1067 13.3431 17.1199 13.4155V13.5446C17.1238 13.6303 17.1073 13.7157 17.0715 13.7935C17.0357 13.8715 16.9817 13.9395 16.9142 13.992C16.7648 14.1007 16.5847 14.1579 16.4004 14.1555H13.5053C13.3209 14.1674 13.1376 14.1192 12.9828 14.0179C12.8443 13.9138 12.7521 13.7594 12.7258 13.5876C12.7195 13.4931 12.7195 13.3982 12.7258 13.3037L12.7001 8.40774ZM17.4629 7.88265C17.3365 8.02768 17.2692 8.21505 17.2743 8.40756L17.2231 13.5014C17.2145 13.5641 17.2145 13.6279 17.2231 13.6908C17.2512 13.8435 17.3333 13.981 17.4543 14.0779C17.5788 14.1758 17.7331 14.2275 17.8911 14.2243C17.9856 14.2282 18.08 14.2126 18.1685 14.1787C18.2568 14.1446 18.3373 14.0926 18.4051 14.0263C18.5312 13.8812 18.5986 13.6939 18.5935 13.5014V12.0645L19.3558 11.2642L20.9489 13.8456C21.0149 13.9666 21.1088 14.0698 21.223 14.1468C21.3284 14.2023 21.4465 14.2291 21.5655 14.2243C21.7446 14.2267 21.9195 14.1692 22.0623 14.0607C22.1384 13.9958 22.1976 13.9133 22.2348 13.8204C22.2721 13.7275 22.2864 13.6269 22.2764 13.5273V13.4842C22.2293 13.3395 22.1598 13.2031 22.0709 13.0798V12.9938L20.3578 10.3264L21.7798 8.76036C21.8424 8.68922 21.897 8.61139 21.9425 8.52808C21.987 8.44939 22.0107 8.36042 22.011 8.26991C22.0068 8.25002 22.0068 8.22962 22.011 8.20974C22.0145 8.19259 22.0145 8.17511 22.011 8.15796C21.9987 8.08854 21.9728 8.02237 21.9346 7.96322C21.8962 7.90408 21.8465 7.8532 21.7884 7.81381C21.6648 7.72893 21.5184 7.6839 21.3685 7.68472C21.2662 7.6827 21.1654 7.70961 21.0774 7.76224C20.984 7.83698 20.8954 7.91728 20.8119 8.00317L18.6449 10.5156V8.40756C18.649 8.34739 18.649 8.28688 18.6449 8.22688C18.6171 8.07139 18.5352 7.93099 18.4136 7.83103C18.2734 7.72843 18.1023 7.67752 17.929 7.68691C17.7559 7.69633 17.5911 7.76553 17.4629 7.88265Z" fill="#D8D8D8"/>
</g>
<defs>
<clipPath id="clip0_56_5219">
<rect width="24" height="24" fill="white" transform="translate(0.846191)"/>
</clipPath>
</defs>
</svg>
