<svg width="25" height="24" viewBox="0 0 25 24" fill="none" xmlns="http://www.w3.org/2000/svg">
<path d="M12.4937 18.597C12.8933 18.2079 13.5334 18.2169 13.9224 18.6165C14.3111 19.0162 14.3024 19.6553 13.9028 20.0443L13.104 20.8216C12.7043 21.2106 12.0653 21.2017 11.6763 20.8021C11.2874 20.4025 11.2954 19.7634 11.6948 19.3743L12.4937 18.597ZM10.5015 16.5657C10.901 16.177 11.5403 16.1858 11.9292 16.5853C12.318 16.9849 12.3092 17.6241 11.9097 18.013L11.1089 18.7923C10.7092 19.181 10.0701 19.1723 9.68115 18.7728C9.29237 18.3731 9.30113 17.734 9.70068 17.345L10.5015 16.5657ZM4.32275 3.8587C6.39921 1.77297 9.77309 1.76472 11.8589 3.84113L11.8296 3.86945L11.8345 3.87335L10.1206 5.58624L7.23291 8.48663C6.58629 9.27185 6.63002 10.4403 7.36377 11.1741C8.63357 12.443 9.9746 11.3943 10.1948 11.1741L13.9546 7.41241L19.5259 12.9837C19.9153 13.3736 19.9156 14.004 19.5259 14.3939C19.136 14.7836 18.506 14.7833 18.106 14.3939L13.4849 9.77277L12.7749 10.4837L17.396 15.1038C17.7852 15.4938 17.7853 16.1241 17.396 16.514C17.0061 16.9037 16.3752 16.9033 15.9751 16.514L11.355 11.8939L10.645 12.6038L15.2642 17.2249C15.6537 17.615 15.6541 18.2452 15.2642 18.6351C15.1814 18.7176 15.0865 18.7809 14.9868 18.8284C14.9063 18.5428 14.7551 18.2719 14.5337 18.0443C14.1374 17.6374 13.599 17.453 13.0737 17.4925C13.1309 16.9712 12.9659 16.4289 12.5718 16.0237C12.1636 15.6047 11.6025 15.4253 11.063 15.4857C11.1383 14.9499 10.9752 14.3859 10.5688 13.9681C9.87045 13.2507 8.72185 13.2345 8.00439 13.9329L6.60986 15.2913C6.55241 15.3472 6.5001 15.4068 6.45166 15.4681L3.41357 12.4134C3.34012 12.34 3.27032 12.2563 3.20557 12.1653C1.30079 10.0779 1.3526 6.84077 3.36768 4.81671L4.32275 3.8587ZM8.56396 14.513C8.93577 14.1515 9.53032 14.1599 9.89209 14.5316C10.2538 14.9033 10.246 15.4978 9.87451 15.8597L8.979 16.7308C8.60726 17.0926 8.01279 17.0849 7.65088 16.7132C7.289 16.3414 7.29672 15.747 7.66846 15.3851L8.56396 14.513ZM13.2681 3.86261C15.3539 1.78613 18.7287 1.79345 20.8052 3.87921L21.7427 4.82159C23.8191 6.90731 23.8117 10.2812 21.7261 12.3577C21.709 12.3763 21.6928 12.396 21.6753 12.4134L21.0151 13.0443L13.9644 6.00323L9.49365 10.4642C9.10378 10.8533 8.45389 10.8532 8.06396 10.4642C7.67398 10.0741 7.67399 9.4431 8.06396 9.05304L13.1948 3.93292C13.2184 3.90938 13.2436 3.88648 13.269 3.86359L13.2681 3.86261Z" fill="#343434"/>
</svg>
