<svg width="25" height="24" viewBox="0 0 25 24" fill="none" xmlns="http://www.w3.org/2000/svg">
<g clip-path="url(#clip0_56_5213)">
<path d="M18.5386 0H6.53857C3.22487 0 0.538574 2.68629 0.538574 6V18C0.538574 21.3137 3.22487 24 6.53857 24H18.5386C21.8523 24 24.5386 21.3137 24.5386 18V6C24.5386 2.68629 21.8523 0 18.5386 0Z" fill="#F042B2"/>
<path d="M16.1392 7.04999C17.0502 7.0503 17.7886 7.7893 17.7886 8.70038V15.3C17.7886 16.2111 17.0502 16.9501 16.1392 16.9504H8.93896C8.02769 16.9504 7.28857 16.2113 7.28857 15.3V8.70038C7.28857 7.78911 8.02769 7.04999 8.93896 7.04999H16.1392ZM8.18896 10.0685V15.3C8.18896 15.7142 8.52475 16.05 8.93896 16.05H16.1392C16.5531 16.0497 16.8892 15.714 16.8892 15.3V10.0685H8.18896ZM10.1382 13.5002C10.337 13.5002 10.5278 13.5794 10.6685 13.7199C10.8091 13.8606 10.8882 14.0513 10.8882 14.2502C10.8882 14.4491 10.8091 14.6398 10.6685 14.7805C10.5278 14.921 10.337 15.0002 10.1382 15.0002C9.93941 15.0001 9.74847 14.921 9.60791 14.7805C9.46738 14.6398 9.38818 14.449 9.38818 14.2502C9.38818 14.0514 9.46738 13.8605 9.60791 13.7199C9.74847 13.5793 9.93941 13.5003 10.1382 13.5002ZM12.5386 13.5002C12.7375 13.5002 12.9282 13.5793 13.0688 13.7199C13.2095 13.8606 13.2886 14.0513 13.2886 14.2502C13.2886 14.4491 13.2095 14.6398 13.0688 14.7805C12.9282 14.9211 12.7375 15.0002 12.5386 15.0002C12.3397 15.0002 12.149 14.9211 12.0083 14.7805C11.8676 14.6398 11.7886 14.4491 11.7886 14.2502C11.7886 14.0513 11.8676 13.8606 12.0083 13.7199C12.149 13.5793 12.3397 13.5002 12.5386 13.5002ZM10.1382 11.0998C10.3369 11.0998 10.5278 11.1791 10.6685 11.3195C10.809 11.4601 10.8881 11.651 10.8882 11.8498C10.8882 12.0487 10.8091 12.2394 10.6685 12.3801C10.5278 12.5207 10.3371 12.5998 10.1382 12.5998C9.93941 12.5997 9.74847 12.5206 9.60791 12.3801C9.4675 12.2395 9.38818 12.0485 9.38818 11.8498C9.38829 11.651 9.46735 11.4601 9.60791 11.3195C9.74847 11.179 9.93941 11.0999 10.1382 11.0998ZM12.5386 11.0998C12.7374 11.0998 12.9282 11.179 13.0688 11.3195C13.2094 11.4601 13.2885 11.651 13.2886 11.8498C13.2886 12.0486 13.2094 12.2394 13.0688 12.3801C12.9282 12.5207 12.7375 12.5998 12.5386 12.5998C12.3397 12.5998 12.149 12.5207 12.0083 12.3801C11.8678 12.2394 11.7886 12.0486 11.7886 11.8498C11.7887 11.651 11.8677 11.4601 12.0083 11.3195C12.1489 11.179 12.3398 11.0998 12.5386 11.0998ZM14.939 11.0998C15.1377 11.0999 15.3287 11.179 15.4692 11.3195C15.6098 11.4601 15.6889 11.651 15.689 11.8498C15.689 12.0485 15.6096 12.2395 15.4692 12.3801C15.3287 12.5206 15.1377 12.5997 14.939 12.5998C14.7401 12.5998 14.5493 12.5207 14.4087 12.3801C14.268 12.2394 14.189 12.0487 14.189 11.8498C14.1891 11.651 14.2681 11.4601 14.4087 11.3195C14.5493 11.1791 14.7402 11.0998 14.939 11.0998ZM8.93896 7.95038C8.52475 7.95038 8.18896 8.28616 8.18896 8.70038V9.16815H16.8892V8.70038C16.8892 8.28636 16.5531 7.95069 16.1392 7.95038H8.93896Z" fill="white"/>
</g>
<defs>
<clipPath id="clip0_56_5213">
<rect width="24" height="24" fill="white" transform="translate(0.538574)"/>
</clipPath>
</defs>
</svg>
