<svg width="25" height="24" viewBox="0 0 25 24" fill="none" xmlns="http://www.w3.org/2000/svg">
<g clip-path="url(#clip0_56_5229)">
<path d="M24.6924 12C24.6924 5.37258 19.3197 0 12.6924 0C6.06496 0 0.692383 5.37258 0.692383 12C0.692383 18.6274 6.06496 24 12.6924 24C19.3197 24 24.6924 18.6274 24.6924 12Z" fill="#D8D8D8"/>
<path fill-rule="evenodd" clip-rule="evenodd" d="M12.5089 15.3376C13.0422 15.3376 13.3595 15.0628 13.4609 14.5133C13.5196 14.2543 13.5635 13.6446 13.5929 13.5416C13.6222 13.4386 13.6636 13.3355 13.7169 13.2325C13.7703 13.1294 13.8515 13.0158 13.9608 12.8917C14.0703 12.7675 14.2156 12.6235 14.3969 12.4597C15.0528 11.8785 15.5075 11.465 15.7608 11.2193C16.0143 10.9736 16.2329 10.6816 16.4169 10.3435C16.6008 10.0053 16.6929 9.61163 16.6929 9.16248C16.6929 8.59181 16.5316 8.06341 16.2089 7.57728C15.8862 7.09115 15.4289 6.70674 14.8368 6.42404C14.2449 6.14135 13.5622 6 12.7889 6C11.9569 6 11.2289 6.16909 10.6049 6.50726C9.98087 6.84545 9.50621 7.27213 9.18086 7.78732C8.85553 8.30251 8.69287 8.8111 8.69287 9.31308C8.69287 9.55614 8.79553 9.78204 9.00086 9.99076C9.20621 10.1995 9.45821 10.3038 9.75686 10.3038C10.2635 10.3038 10.6075 10.0053 10.7889 9.40819C10.9809 8.83752 11.2155 8.40554 11.4929 8.11229C11.7702 7.81902 12.2022 7.67239 12.7889 7.67239C13.2903 7.67239 13.6996 7.8177 14.0169 8.10833C14.3343 8.39894 14.4929 8.75562 14.4929 9.17833C14.4929 9.39498 14.4408 9.59578 14.3369 9.78071C14.2329 9.96565 14.1048 10.1334 13.9529 10.284C13.8009 10.4346 13.5543 10.6579 13.2129 10.9538C12.8236 11.2919 12.5142 11.5839 12.2849 11.8296C12.0555 12.0752 11.8715 12.3606 11.7329 12.6856C11.5942 13.0105 11.5249 13.8238 11.5249 14.2675C11.5249 14.6216 11.6195 14.8884 11.8089 15.068C11.9982 15.2478 12.2315 15.3376 12.5089 15.3376ZM12.5969 19.3333C12.9115 19.3333 13.1889 19.2276 13.4289 19.0163C13.6689 18.805 13.7889 18.5143 13.7889 18.1445C13.7889 17.8115 13.6743 17.5315 13.4448 17.3042C13.2155 17.0771 12.9329 16.9634 12.5969 16.9634C12.2555 16.9634 11.9675 17.0771 11.7329 17.3042C11.4982 17.5315 11.3809 17.8115 11.3809 18.1445C11.3809 18.5196 11.5022 18.8116 11.7449 19.0202C11.9875 19.2289 12.2715 19.3333 12.5969 19.3333Z" fill="#979797"/>
</g>
<defs>
<clipPath id="clip0_56_5229">
<rect width="24" height="24" fill="white" transform="translate(0.692383)"/>
</clipPath>
</defs>
</svg>
