<svg width="25" height="24" viewBox="0 0 25 24" fill="none" xmlns="http://www.w3.org/2000/svg">
<g clip-path="url(#clip0_56_5212)">
<path d="M18.1538 0H6.15381C2.8401 0 0.153809 2.68629 0.153809 6V18C0.153809 21.3137 2.8401 24 6.15381 24H18.1538C21.4675 24 24.1538 21.3137 24.1538 18V6C24.1538 2.68629 21.4675 0 18.1538 0Z" fill="#9447ED"/>
<path d="M15.7538 7.35001C16.1914 7.35001 16.6111 7.52384 16.9205 7.83328C17.23 8.14271 17.4038 8.5624 17.4038 9.00001V15C17.4038 15.4376 17.23 15.8573 16.9205 16.1667C16.6111 16.4762 16.1914 16.65 15.7538 16.65H8.55381C8.1162 16.65 7.69652 16.4762 7.38708 16.1667C7.07765 15.8573 6.90381 15.4376 6.90381 15V9.00001C6.90381 8.5624 7.07765 8.14271 7.38708 7.83328C7.69652 7.52384 8.1162 7.35001 8.55381 7.35001H15.7538ZM15.7538 8.25001H8.55381C8.13981 8.25001 7.80381 8.58601 7.80381 9.00001V15C7.80381 15.414 8.13981 15.75 8.55381 15.75H15.7538C16.1678 15.75 16.5038 15.414 16.5038 15V9.00001C16.5038 8.58601 16.1678 8.25001 15.7538 8.25001ZM10.9952 10.572C11.0354 10.5033 11.1012 10.4535 11.1782 10.4333C11.2551 10.4132 11.3369 10.4244 11.4056 10.4646L13.5224 11.7054C13.5671 11.7316 13.6042 11.7688 13.6302 11.8136C13.6562 11.8583 13.6702 11.909 13.6708 11.9608C13.6714 12.0126 13.6586 12.0636 13.6337 12.109C13.6087 12.1543 13.5725 12.1924 13.5284 12.2196L11.4104 13.5204C11.365 13.5482 11.3129 13.5634 11.2596 13.5645C11.2064 13.5655 11.1538 13.5523 11.1073 13.5263C11.0608 13.5003 11.022 13.4623 10.9951 13.4164C10.9681 13.3704 10.9539 13.3181 10.9538 13.2648V10.7232C10.954 10.67 10.9683 10.6178 10.9952 10.572Z" fill="white"/>
</g>
<defs>
<clipPath id="clip0_56_5212">
<rect width="24" height="24" fill="white" transform="translate(0.153809)"/>
</clipPath>
</defs>
</svg>
