<svg width="25" height="24" viewBox="0 0 25 24" fill="none" xmlns="http://www.w3.org/2000/svg">
<g clip-path="url(#clip0_56_5232)">
<path d="M21.4185 9.05273C23.3118 9.05303 24.8472 10.5881 24.8472 12.4814V20.5723C24.8468 22.4653 23.3115 24.0007 21.4185 24.001H4.27588C2.38254 24.001 0.847513 22.4655 0.847168 20.5723V12.4814C0.847168 10.5879 2.38233 9.05273 4.27588 9.05273H21.4185ZM4.27588 11.1094C3.51846 11.1094 2.90381 11.724 2.90381 12.4814V20.5723C2.90415 21.3294 3.51867 21.9434 4.27588 21.9434H21.4185C22.1754 21.9431 22.7892 21.3292 22.7896 20.5723V12.4814C22.7896 11.7242 22.1756 11.1097 21.4185 11.1094H4.27588ZM21.1919 4.23535C21.7375 4.23556 22.1802 4.67798 22.1802 5.22363C22.1801 5.76924 21.7375 6.21171 21.1919 6.21191H4.50146C3.95572 6.21191 3.51325 5.76937 3.51318 5.22363C3.51318 4.67785 3.95568 4.23535 4.50146 4.23535H21.1919ZM18.5239 0C19.0697 0 19.5122 0.442495 19.5122 0.988281C19.5122 1.53404 19.0697 1.97656 18.5239 1.97656H7.16748C6.62171 1.97656 6.17923 1.53404 6.1792 0.988281C6.1792 0.442495 6.62169 0 7.16748 0H18.5239Z" fill="#707070"/>
</g>
<defs>
<clipPath id="clip0_56_5232">
<rect width="24" height="24" fill="white" transform="translate(0.846191)"/>
</clipPath>
</defs>
</svg>
