<svg width="25" height="24" viewBox="0 0 25 24" fill="none" xmlns="http://www.w3.org/2000/svg">
<path d="M12.6865 1.61499C17.0383 1.61499 19.2149 1.61548 20.7402 2.60718C21.2326 2.92737 21.6656 3.31496 22.0234 3.75562C23.1316 5.12054 23.1318 7.06766 23.1318 10.9617V13.0388C23.1318 16.9329 23.1316 18.8799 22.0234 20.2449C21.6655 20.6857 21.2328 21.074 20.7402 21.3943C19.2149 22.386 17.0383 22.3855 12.6865 22.3855C8.33514 22.3855 6.15906 22.386 4.63379 21.3943C4.14119 21.074 3.70849 20.6857 3.35059 20.2449C2.24242 18.8799 2.24219 16.9329 2.24219 13.0388V10.9617C2.24219 9.74785 2.24183 8.72319 2.27539 7.84644C2.34951 5.91045 2.58784 4.69506 3.35059 3.75562C3.70839 3.31496 4.14137 2.92737 4.63379 2.60718C5.68357 1.92466 7.04178 1.7116 9.20508 1.64526C10.1848 1.61522 11.3301 1.61499 12.6865 1.61499ZM8.73926 7.11401C8.35441 7.11401 8.04199 7.42376 8.04199 7.8064V15.6111C8.04199 15.8662 8.25027 16.073 8.50684 16.073H9.3125C9.56883 16.0728 9.77637 15.8661 9.77637 15.6111V10.1824H9.84766L11.9209 15.5291C12.0246 15.7963 12.2833 15.9723 12.5713 15.9724H12.8037C13.0914 15.9724 13.3501 15.7968 13.4541 15.53L15.5264 10.2078H15.5986V15.6111C15.5986 15.8662 15.806 16.0729 16.0625 16.073H16.8682C17.1247 16.073 17.333 15.8662 17.333 15.6111V7.8064C17.333 7.42376 17.0206 7.11401 16.6357 7.11401H15.7617C15.3769 7.11409 15.0322 7.34958 14.8945 7.70679L12.7354 13.3113H12.6396L10.4805 7.70679C10.3428 7.34961 9.99792 7.11421 9.61328 7.11401H8.73926Z" fill="#FF5B1A"/>
</svg>
