<svg width="24" height="24" viewBox="0 0 24 24" fill="none" xmlns="http://www.w3.org/2000/svg">
<g clip-path="url(#clip0_56_5235)">
<path d="M20.2563 0.762268C22.3462 0.762268 24.0404 2.54758 24.0404 4.74985V19.2501C24.0404 21.4524 22.3462 23.2378 20.2563 23.2378H3.74361C1.65369 23.2378 -0.0405273 21.4524 -0.0405273 19.2501V4.74985C-0.0405273 2.54758 1.65369 0.762268 3.74361 0.762268H20.2563ZM20.2563 2.93732H3.74361C2.79365 2.93732 2.02354 3.74881 2.02354 4.74985V19.2501C2.02354 20.2513 2.79365 21.0628 3.74361 21.0628H20.2563C21.2062 21.0628 21.9763 20.2513 21.9763 19.2501V4.74985C21.9763 3.74881 21.2062 2.93732 20.2563 2.93732ZM9.34222 8.54852C9.53432 8.20305 9.95584 8.0871 10.2837 8.28954L15.1389 11.2874C15.2363 11.3476 15.3181 11.4321 15.3772 11.5334C15.5762 11.8746 15.475 12.3211 15.1512 12.5307L10.296 15.6742C10.1877 15.7444 10.063 15.7815 9.93585 15.7815C9.55585 15.7815 9.24781 15.4569 9.24781 15.0565V8.91506C9.24781 8.78621 9.2804 8.65969 9.34222 8.54852Z" fill="#707070"/>
</g>
<defs>
<clipPath id="clip0_56_5235">
<rect width="24" height="24" fill="white"/>
</clipPath>
</defs>
</svg>
