<svg width="25" height="24" viewBox="0 0 25 24" fill="none" xmlns="http://www.w3.org/2000/svg">
<g clip-path="url(#clip0_56_5279)">
<path d="M12.6611 1.26318H12.661C6.70622 1.26318 1.87891 6.09049 1.87891 12.0453V12.0453C1.87891 18.0001 6.70622 22.8274 12.661 22.8274H12.6611C18.6158 22.8274 23.4432 18.0001 23.4432 12.0453V12.0453C23.4432 6.09049 18.6158 1.26318 12.6611 1.26318Z" stroke="#BABABA" stroke-width="1.92"/>
<path fill-rule="evenodd" clip-rule="evenodd" d="M16.014 8.77468C16.3317 8.39346 16.8983 8.34195 17.2796 8.65963C17.6315 8.95288 17.7023 9.45819 17.4613 9.83403L17.3945 9.9251L12.902 15.3161C12.5879 15.6931 12.0363 15.744 11.66 15.4502L11.5764 15.3763L7.98241 11.7822C7.63152 11.4314 7.63152 10.8625 7.98241 10.5116C8.30629 10.1877 8.81597 10.1628 9.16844 10.4368L9.25308 10.5116L12.1507 13.4084L16.014 8.77468Z" fill="#BABABA"/>
</g>
<defs>
<clipPath id="clip0_56_5279">
<rect width="24" height="24" fill="white" transform="translate(0.615723)"/>
</clipPath>
</defs>
</svg>
