<svg width="25" height="24" viewBox="0 0 25 24" fill="none" xmlns="http://www.w3.org/2000/svg">
<g clip-path="url(#clip0_136_21733)">
<path d="M10.2796 0H14.6432C20.0656 0 24.4614 4.39582 24.4614 9.81818V14.1818C24.4614 19.6042 20.0656 24 14.6432 24H10.2796C4.85724 24 0.461426 19.6042 0.461426 14.1818V9.81818C0.461426 4.39582 4.85724 0 10.2796 0Z" fill="#707070"/>
<mask id="mask0_136_21733" style="mask-type:luminance" maskUnits="userSpaceOnUse" x="0" y="0" width="25" height="24">
<path d="M10.2796 0H14.6432C20.0656 0 24.4614 4.39582 24.4614 9.81818V14.1818C24.4614 19.6042 20.0656 24 14.6432 24H10.2796C4.85724 24 0.461426 19.6042 0.461426 14.1818V9.81818C0.461426 4.39582 4.85724 0 10.2796 0Z" fill="white"/>
</mask>
<g mask="url(#mask0_136_21733)">
<path fill-rule="evenodd" clip-rule="evenodd" d="M9.7342 4.36365C10.638 4.36365 11.3706 5.09619 11.3706 6.00001V7.09092H17.4797C18.312 7.09092 18.9884 7.75637 19.0069 8.58383V14.7987C19.0069 15.3518 18.708 15.8613 18.2258 16.1313L13.2077 18.9415C12.744 19.2011 12.1789 19.2011 11.7153 18.9415L6.69711 16.1313C6.21492 15.8618 5.91602 15.3513 5.91602 14.7987V8.61819C5.91602 7.77492 6.60002 7.09092 7.44329 7.09092H8.09783V6.00001C8.09783 5.10765 8.81238 4.38219 9.69983 4.36365H9.7342ZM11.3706 12.5455C11.3706 12.8466 11.1262 13.0909 10.8251 13.0909C10.524 13.0909 10.2797 12.8466 10.2797 12.5455V6.00001C10.2797 5.69892 10.0353 5.45456 9.7342 5.45456C9.43311 5.45456 9.18874 5.69892 9.18874 6.00001V8.18183H7.44329C7.2022 8.18183 7.00692 8.3771 7.00692 8.61819V14.7987C7.00692 14.9569 7.09202 15.1026 7.23056 15.1795L12.2487 17.9896C12.3807 18.0638 12.5422 18.0638 12.6742 17.9896L17.6924 15.1795C17.8309 15.1026 17.916 14.9569 17.916 14.7987V8.61819C17.916 8.3771 17.7207 8.18183 17.4797 8.18183H11.3706V12.5455Z" fill="white"/>
</g>
</g>
<defs>
<clipPath id="clip0_136_21733">
<rect width="24" height="24" fill="white" transform="translate(0.461426)"/>
</clipPath>
</defs>
</svg>
