<svg width="25" height="24" viewBox="0 0 25 24" fill="none" xmlns="http://www.w3.org/2000/svg">
<g clip-path="url(#clip0_130_19659)">
<path d="M19.969 0H5.56904C2.91808 0 0.769043 2.14903 0.769043 4.8V19.2C0.769043 21.851 2.91808 24 5.56904 24H19.969C22.62 24 24.769 21.851 24.769 19.2V4.8C24.769 2.14903 22.62 0 19.969 0Z" fill="#1EBF6D"/>
<path d="M11.019 16.0102C10.905 16.0102 10.7953 15.9669 10.712 15.889C10.6287 15.8112 10.578 15.7046 10.5702 15.5909C10.5625 15.4771 10.5982 15.3647 10.6701 15.2762C10.7421 15.1878 10.8449 15.1299 10.9578 15.1144L11.019 15.1102H12.369V7.9H9.66904V8.6086C9.66904 8.71734 9.62966 8.82241 9.55818 8.90436C9.48671 8.98631 9.38798 9.03961 9.28024 9.0544L9.21904 9.0586C9.1103 9.0586 9.00524 9.01921 8.92328 8.94774C8.84133 8.87627 8.78803 8.77753 8.77324 8.6698L8.76904 8.6086V7.45C8.76905 7.34126 8.80843 7.23619 8.8799 7.15424C8.95138 7.07229 9.05011 7.01899 9.15784 7.0042L9.21904 7H16.419C16.5278 7 16.6328 7.03939 16.7148 7.11086C16.7968 7.18233 16.8501 7.28107 16.8648 7.3888L16.869 7.45V8.6086C16.869 8.72261 16.8257 8.83236 16.7479 8.91567C16.67 8.99899 16.5635 9.04964 16.4497 9.05742C16.336 9.06519 16.2235 9.02949 16.1351 8.95754C16.0466 8.88559 15.9888 8.78275 15.9732 8.6698L15.969 8.6086V7.9H13.269V15.1102H14.619C14.7331 15.1102 14.8428 15.1535 14.9261 15.2314C15.0094 15.3092 15.0601 15.4158 15.0679 15.5295C15.0756 15.6433 15.0399 15.7557 14.968 15.8442C14.896 15.9326 14.7932 15.9905 14.6802 16.006L14.619 16.0102H11.019Z" fill="white"/>
</g>
<defs>
<clipPath id="clip0_130_19659">
<rect width="24" height="24" fill="white" transform="translate(0.769043)"/>
</clipPath>
</defs>
</svg>
