<svg width="25" height="24" viewBox="0 0 25 24" fill="none" xmlns="http://www.w3.org/2000/svg">
<g clip-path="url(#clip0_56_5279)">
<path d="M1 12C1 5.37258 6.37258 0 13 0C19.6274 0 25 5.37258 25 12C25 18.6274 19.6274 24 13 24C6.37258 24 1 18.6274 1 12Z" fill="#EEEEEE"/>
<path fill-rule="evenodd" clip-rule="evenodd" d="M16.232 9.35997C16.585 8.93597 17.216 8.87797 17.64 9.23197C18.032 9.55797 18.11 10.121 17.843 10.539L17.768 10.64L12.768 16.64C12.418 17.06 11.805 17.116 11.386 16.79L11.293 16.707L8.29299 13.707C7.90299 13.317 7.90299 12.683 8.29299 12.293C8.65299 11.933 9.22099 11.905 9.61299 12.21L9.70699 12.293L11.932 14.517L16.232 9.35997Z" fill="white"/>
</g>
<defs>
<clipPath id="clip0_56_5279">
<rect width="24" height="24" fill="white" transform="translate(0.615723)"/>
</clipPath>
</defs>
</svg>
