<svg width="24" height="24" viewBox="0 0 24 24" fill="none" xmlns="http://www.w3.org/2000/svg">
<path d="M15.2999 12.45C15.2999 12.6689 15.213 12.8787 15.0582 13.0334C14.9035 13.1881 14.6937 13.275 14.4749 13.275H9.5249C9.3061 13.275 9.09626 13.1881 8.94153 13.0334C8.78682 12.8787 8.6999 12.6689 8.6999 12.45C8.6999 12.2312 8.78682 12.0214 8.94153 11.8667C9.09626 11.712 9.3061 11.625 9.5249 11.625H14.4749C14.6937 11.625 14.9035 11.712 15.0582 11.8667C15.213 12.0214 15.2999 12.2312 15.2999 12.45ZM22.7249 6.67505V18.3179C22.7221 18.7301 22.5573 19.1245 22.2658 19.416C21.9744 19.7075 21.5799 19.8723 21.1677 19.875H2.9249C2.4873 19.875 2.06761 19.7012 1.75818 19.3917C1.44874 19.0824 1.2749 18.6626 1.2749 18.225V4.20005C1.2749 3.76244 1.44874 3.34276 1.75818 3.03332C2.06761 2.72389 2.4873 2.55005 2.9249 2.55005H8.42147C8.77897 2.54699 9.12729 2.6631 9.41147 2.88005L12.2783 5.02505H21.0749C21.5125 5.02505 21.9322 5.19889 22.2417 5.50832C22.551 5.81776 22.7249 6.23744 22.7249 6.67505ZM21.0749 6.67505H12.2783C11.9208 6.67811 11.5725 6.562 11.2883 6.34505L8.42147 4.20005H2.9249V18.225H21.0749V6.67505Z" fill="#BABABA"/>
</svg>
