<svg width="25" height="24" viewBox="0 0 25 24" fill="none" xmlns="http://www.w3.org/2000/svg">
<path fill-rule="evenodd" clip-rule="evenodd" d="M20.3848 12C20.3848 12.631 19.8728 13.143 19.2418 13.143H13.5278V18.857C13.5278 19.488 13.0148 20 12.3848 20C11.7548 20 11.2418 19.488 11.2418 18.857V13.143H5.52777C4.89677 13.143 4.38477 12.63 4.38477 12C4.38477 11.37 4.89677 10.857 5.52777 10.857H11.2418V5.143C11.2418 4.512 11.7548 4 12.3848 4C13.0148 4 13.5278 4.512 13.5278 5.143V10.857H19.2418C19.8728 10.857 20.3848 11.369 20.3848 12Z" fill="#5B5B5B"/>
</svg>
