<svg width="25" height="24" viewBox="0 0 25 24" fill="none" xmlns="http://www.w3.org/2000/svg">
<path d="M12.0713 1.61499C16.423 1.61499 18.5996 1.61548 20.125 2.60718C20.6174 2.92737 21.0504 3.31496 21.4082 3.75562C22.5164 5.12054 22.5166 7.06766 22.5166 10.9617V13.0388C22.5166 16.9329 22.5163 18.8799 21.4082 20.2449C21.0503 20.6857 20.6176 21.074 20.125 21.3943C18.5996 22.386 16.423 22.3855 12.0713 22.3855C7.71991 22.3855 5.54383 22.386 4.01855 21.3943C3.52595 21.074 3.09325 20.6857 2.73535 20.2449C1.62719 18.8799 1.62695 16.9329 1.62695 13.0388V10.9617C1.62695 9.74785 1.62659 8.72319 1.66016 7.84644C1.73428 5.91045 1.97261 4.69506 2.73535 3.75562C3.09315 3.31496 3.52614 2.92737 4.01855 2.60718C5.06833 1.92466 6.42654 1.7116 8.58984 1.64526C9.56961 1.61522 10.7149 1.61499 12.0713 1.61499ZM8.12402 7.11401C7.73918 7.11401 7.42676 7.42376 7.42676 7.8064V15.6111C7.42676 15.8662 7.63503 16.073 7.8916 16.073H8.69727C8.95359 16.0728 9.16113 15.8661 9.16113 15.6111V10.1824H9.23242L11.3057 15.5291C11.4093 15.7963 11.668 15.9723 11.9561 15.9724H12.1885C12.4762 15.9724 12.7349 15.7968 12.8389 15.53L14.9111 10.2078H14.9834V15.6111C14.9834 15.8662 15.1908 16.0729 15.4473 16.073H16.2529C16.5095 16.073 16.7178 15.8662 16.7178 15.6111V7.8064C16.7178 7.42376 16.4054 7.11401 16.0205 7.11401H15.1465C14.7617 7.11409 14.417 7.34958 14.2793 7.70679L12.1201 13.3113H12.0244L9.86523 7.70679C9.7276 7.34961 9.38269 7.11421 8.99805 7.11401H8.12402Z" fill="#BABABA"/>
</svg>
