<svg width="25" height="24" viewBox="0 0 25 24" fill="none" xmlns="http://www.w3.org/2000/svg">
<g clip-path="url(#clip0_56_5217)">
<path d="M18.888 0H5.26634C2.40043 0 0.0771484 2.32328 0.0771484 5.18919V18.8108C0.0771484 21.6767 2.40043 24 5.26634 24H18.888C21.7539 24 24.0771 21.6767 24.0771 18.8108V5.18919C24.0771 2.32328 21.7539 0 18.888 0Z" fill="#FFEBF2"/>
<path d="M12.0808 6.94812C13.7282 6.94812 13.9233 6.95539 14.5712 6.98425C15.1733 7.01078 15.4985 7.11191 15.7153 7.19623C16.0019 7.30702 16.209 7.44187 16.4233 7.65625C16.6401 7.87303 16.7726 8.07774 16.8834 8.36438C16.9677 8.58109 17.0688 8.90866 17.0953 9.5084C17.1242 10.1587 17.1315 10.3538 17.1315 11.9988C17.1315 13.6462 17.1242 13.8413 17.0953 14.4892C17.0688 15.0913 16.9677 15.4165 16.8834 15.6332C16.7726 15.9198 16.6377 16.127 16.4233 16.3413C16.2066 16.5581 16.0019 16.6906 15.7153 16.8014C15.4985 16.8857 15.1709 16.9868 14.5712 17.0133C13.9209 17.0422 13.7258 17.0494 12.0808 17.0494C10.4334 17.0494 10.2383 17.0422 9.59041 17.0133C8.98827 16.9868 8.66317 16.8857 8.44639 16.8014C8.15975 16.6906 7.95264 16.5557 7.73826 16.3413C7.52148 16.1246 7.38903 15.9198 7.27824 15.6332C7.19398 15.4165 7.09279 15.0889 7.06633 14.4892C7.0374 13.8389 7.0302 13.6438 7.0302 11.9988C7.0302 10.3514 7.0374 10.1563 7.06633 9.5084C7.09279 8.90626 7.19398 8.58109 7.27824 8.36438C7.38903 8.07774 7.52395 7.87063 7.73826 7.65625C7.95504 7.43947 8.15975 7.30702 8.44639 7.19623C8.66317 7.11191 8.99067 7.01078 9.59041 6.98425C10.2383 6.95539 10.4334 6.94812 12.0808 6.94812ZM12.0808 5.83783C10.4069 5.83783 10.1974 5.84506 9.53982 5.87396C8.88475 5.90286 8.43433 6.00883 8.04416 6.16057C7.63714 6.31953 7.2927 6.52909 6.95067 6.87346C6.6063 7.21549 6.39674 7.55993 6.23778 7.96455C6.08604 8.35712 5.98007 8.80514 5.95117 9.46021C5.92227 10.1201 5.91504 10.3297 5.91504 12.0036C5.91504 13.6775 5.92227 13.887 5.95117 14.5446C5.98007 15.1997 6.08604 15.6501 6.23778 16.0402C6.39674 16.4473 6.6063 16.7917 6.95067 17.1337C7.2927 17.4758 7.63714 17.6877 8.04176 17.8442C8.43433 17.996 8.88235 18.102 9.53742 18.1308C10.195 18.1598 10.4045 18.167 12.0784 18.167C13.7523 18.167 13.9619 18.1598 14.6194 18.1308C15.2745 18.102 15.7249 17.996 16.115 17.8442C16.5197 17.6877 16.8641 17.4758 17.2061 17.1337C17.5481 16.7917 17.7601 16.4473 17.9166 16.0427C18.0684 15.6501 18.1743 15.2021 18.2032 14.547C18.2322 13.8894 18.2394 13.6799 18.2394 12.006C18.2394 10.3321 18.2322 10.1225 18.2032 9.46501C18.1743 8.80994 18.0684 8.35952 17.9166 7.96935C17.7649 7.55993 17.5554 7.21549 17.2109 6.87346C16.8689 6.53149 16.5245 6.31953 16.1199 6.16298C15.7273 6.01124 15.2793 5.90527 14.6242 5.87637C13.9642 5.84506 13.7547 5.83783 12.0808 5.83783Z" fill="#E31270"/>
<path d="M12.0807 8.83643C10.3322 8.83643 8.91357 10.255 8.91357 12.0036C8.91357 13.7522 10.3322 15.1708 12.0807 15.1708C13.8293 15.1708 15.248 13.7522 15.248 12.0036C15.248 10.255 13.8293 8.83643 12.0807 8.83643ZM12.0807 14.058C10.9463 14.058 10.0263 13.138 10.0263 12.0036C10.0263 10.8692 10.9463 9.94918 12.0807 9.94918C13.2152 9.94918 14.1352 10.8692 14.1352 12.0036C14.1352 13.138 13.2152 14.058 12.0807 14.058Z" fill="#E31270"/>
<path d="M16.1126 8.71123C16.1126 9.12072 15.7803 9.45069 15.3732 9.45069C14.9638 9.45069 14.6338 9.11832 14.6338 8.71123C14.6338 8.3018 14.9662 7.97183 15.3732 7.97183C15.7803 7.97183 16.1126 8.3042 16.1126 8.71123Z" fill="#E31270"/>
</g>
<rect x="0.577148" y="0.5" width="23" height="23" rx="9.5" stroke="#EEEEEE"/>
<defs>
<clipPath id="clip0_56_5217">
<rect x="0.0771484" width="24" height="24" rx="10" fill="white"/>
</clipPath>
</defs>
</svg>
