<svg width="25" height="24" viewBox="0 0 25 24" fill="none" xmlns="http://www.w3.org/2000/svg">
<path d="M6.38477 22C5.83477 22 5.36393 21.8042 4.97227 21.4125C4.5806 21.0208 4.38477 20.55 4.38477 20V10C4.38477 9.45 4.5806 8.97917 4.97227 8.5875C5.36393 8.19583 5.83477 8 6.38477 8H7.38477V6C7.38477 4.61667 7.87227 3.4375 8.84727 2.4625C9.82227 1.4875 11.0014 1 12.3848 1C13.7681 1 14.9473 1.4875 15.9223 2.4625C16.8973 3.4375 17.3848 4.61667 17.3848 6V8H18.3848C18.9348 8 19.4056 8.19583 19.7973 8.5875C20.1889 8.97917 20.3848 9.45 20.3848 10V20C20.3848 20.55 20.1889 21.0208 19.7973 21.4125C19.4056 21.8042 18.9348 22 18.3848 22H6.38477ZM12.3848 17C12.9348 17 13.4056 16.8042 13.7973 16.4125C14.1889 16.0208 14.3848 15.55 14.3848 15C14.3848 14.45 14.1889 13.9792 13.7973 13.5875C13.4056 13.1958 12.9348 13 12.3848 13C11.8348 13 11.3639 13.1958 10.9723 13.5875C10.5806 13.9792 10.3848 14.45 10.3848 15C10.3848 15.55 10.5806 16.0208 10.9723 16.4125C11.3639 16.8042 11.8348 17 12.3848 17ZM9.38477 8H15.3848V6C15.3848 5.16667 15.0931 4.45833 14.5098 3.875C13.9264 3.29167 13.2181 3 12.3848 3C11.5514 3 10.8431 3.29167 10.2598 3.875C9.67643 4.45833 9.38477 5.16667 9.38477 6V8Z" fill="#707070"/>
</svg>
