<svg width="25" height="24" viewBox="0 0 25 24" fill="none" xmlns="http://www.w3.org/2000/svg">
<g clip-path="url(#clip0_56_5238)">
<path d="M22.1295 11.9894C22.6593 12.133 23.0731 12.5518 23.2151 13.0879C23.3412 13.5644 23.2356 14.0694 22.9381 14.4513L22.8177 14.5885L16.4902 20.9913C16.4576 21.0244 16.4195 21.0514 16.3779 21.0711L16.3133 21.0953L14.1027 21.7053C13.835 21.7791 13.5872 21.5629 13.5994 21.2994L13.6135 21.2101L14.2163 18.9733C14.2285 18.9281 14.2483 18.8857 14.2747 18.8477L14.319 18.7943L20.6466 12.3915C21.0344 11.999 21.5996 11.8457 22.1295 11.9894ZM16.2846 2C16.8321 2 17.2928 2.41034 17.3667 2.96472L17.3756 3.10404V5.55306C17.3756 6.1628 16.8872 6.6571 16.2846 6.6571C15.7371 6.6571 15.2765 6.24676 15.2025 5.69239L15.1936 5.55306L15.1931 4.20741H9.85488V19.142H12.2913L11.8645 20.7276C11.8075 20.9389 11.782 21.148 11.7843 21.3511H5.00482C4.40225 21.3511 3.91376 20.8569 3.91376 20.2471C3.91376 19.6931 4.31926 19.227 4.86713 19.1521L5.0048 19.143L7.67343 19.142V4.20741H2.33525L2.33592 5.55306C2.33592 6.06089 1.99517 6.49491 1.5164 6.62139L1.38256 6.64807L1.24486 6.6571C0.697378 6.6571 0.236705 6.24676 0.162731 5.69239L0.153809 5.55306V3.10404C0.153809 2.55004 0.55932 2.08388 1.10717 2.00903L1.24486 2H16.2846Z" fill="#707070"/>
</g>
<defs>
<clipPath id="clip0_56_5238">
<rect width="24" height="24" fill="white" transform="translate(0.153809)"/>
</clipPath>
</defs>
</svg>
