<svg width="25" height="24" viewBox="0 0 25 24" fill="none" xmlns="http://www.w3.org/2000/svg">
<path d="M22.2733 8.48144L21.1112 4.08994C20.9 3.22558 20.1508 2.63013 19.2769 2.63013H6.26344C5.39908 2.63013 4.64037 3.23518 4.43868 4.08994L3.25739 8.48144C3.0269 9.46104 3.23818 10.4599 3.85284 11.2474C3.92967 11.353 4.03532 11.4299 4.12175 11.5259V18.7693C4.12175 20.4836 5.48211 21.7343 7.19639 21.7343H18.3392C20.0535 21.7343 21.4089 20.4836 21.4089 18.7693V11.5259C21.4954 11.4395 21.601 11.353 21.6778 11.257C22.2925 10.4695 22.5134 9.46104 22.2733 8.48144ZM7.45354 20.2865C6.41208 20.2865 5.56782 19.4422 5.56782 18.4008V12.3852C5.64466 12.3948 6.18662 12.4286 6.26344 12.4286C7.09899 12.4286 7.85771 11.9233 8.41474 11.3566C8.99098 11.9329 9.7593 12.4286 10.6333 12.4286C11.4688 12.4286 12.2179 11.9041 12.7749 11.3566C13.3416 11.9041 14.1099 12.4286 14.9743 12.4286C15.781 12.4286 16.5493 11.9329 17.1255 11.3566C17.6826 11.9233 18.4413 12.4286 19.2769 12.4286C19.3537 12.4286 19.891 12.3948 19.9678 12.3852V18.4008C19.9678 19.4422 19.1235 20.2865 18.0822 20.2865H7.45354Z" fill="#5B5B5B"/>
<path d="M17.3129 15.0857H16.4558C15.9824 15.0857 15.5986 15.4694 15.5986 15.9428C15.5986 16.4162 15.9824 16.8 16.4558 16.8H17.3129C17.7863 16.8 18.1701 16.4162 18.1701 15.9428C18.1701 15.4694 17.7863 15.0857 17.3129 15.0857Z" fill="#5B5B5B"/>
</svg>
