<svg width="25" height="24" viewBox="0 0 25 24" fill="none" xmlns="http://www.w3.org/2000/svg">
<path d="M9.03857 6V8" stroke="black" stroke-linecap="round"/>
<mask id="path-2-inside-1_55_9008" fill="white">
<path d="M6.53857 8C6.53857 7.44771 6.98629 7 7.53857 7H17.5386C18.0909 7 18.5386 7.44772 18.5386 8V17C18.5386 17.5523 18.0909 18 17.5386 18H7.53857C6.98629 18 6.53857 17.5523 6.53857 17V8Z"/>
</mask>
<path d="M5.53857 6C5.53857 4.89543 6.434 4 7.53857 4H17.5386C18.6431 4 19.5386 4.89543 19.5386 6L17.5386 10H7.53857L5.53857 6ZM19.5386 17C19.5386 18.1046 18.6431 19 17.5386 19H7.53857C6.434 19 5.53857 18.1046 5.53857 17H7.53857H17.5386H19.5386ZM7.53857 19C6.434 19 5.53857 18.1046 5.53857 17V6C5.53857 4.89543 6.434 4 7.53857 4V10V17V19ZM17.5386 4C18.6431 4 19.5386 4.89543 19.5386 6V17C19.5386 18.1046 18.6431 19 17.5386 19V17V10V4Z" fill="black" mask="url(#path-2-inside-1_55_9008)"/>
<path d="M16.0386 6V7.5" stroke="black" stroke-linecap="round"/>
</svg>
