<svg width="25" height="24" viewBox="0 0 25 24" fill="none" xmlns="http://www.w3.org/2000/svg">
<path d="M12.7739 1.61841C17.1258 1.61841 19.3022 1.61884 20.8276 2.6106C21.3202 2.93088 21.7539 3.31822 22.1118 3.75903C23.22 5.12406 23.2192 7.07168 23.2192 10.9661V13.0432C23.2192 16.937 23.2196 18.8842 22.1118 20.2493C21.7539 20.6901 21.3203 21.0784 20.8276 21.3987C19.3022 22.3905 17.1258 22.3899 12.7739 22.3899C8.42244 22.3899 6.24655 22.3903 4.72119 21.3987C4.22854 21.0784 3.79494 20.6901 3.43701 20.2493C2.32899 18.8842 2.32861 16.9372 2.32861 13.0432V10.9661C2.32861 9.75202 2.32921 8.72674 2.36279 7.84985C2.43694 5.91399 2.67428 4.69847 3.43701 3.75903C3.79491 3.31827 4.22861 2.93084 4.72119 2.6106C5.77105 1.92812 7.12905 1.71501 9.29248 1.64868C10.2723 1.61864 11.4174 1.61841 12.7739 1.61841Z" fill="#BABABA"/>
<path fill-rule="evenodd" clip-rule="evenodd" d="M8.3319 11.7145C8.55906 11.447 8.96565 11.4242 9.22481 11.6614C9.47449 11.8899 9.49497 12.2739 9.27627 12.5319C9.05429 12.7937 8.85249 13.0407 8.67029 13.2751C8.09648 14.013 7.77214 14.5579 7.61717 14.9812C7.47528 15.3688 7.48867 15.6137 7.56035 15.8238C7.64523 16.0726 7.86267 16.4161 8.38298 16.8922C8.90328 17.3684 9.26555 17.5555 9.522 17.619C9.73847 17.6727 9.98507 17.6656 10.3617 17.493C10.7732 17.3044 11.2925 16.9379 11.9848 16.3084C12.2046 16.1085 12.4354 15.888 12.6795 15.6463C12.9199 15.4083 13.3065 15.3969 13.5562 15.6253C13.8154 15.8625 13.8263 16.2673 13.5768 16.5146C10.932 19.1363 9.5221 19.6265 7.53514 17.8081C5.5482 15.9897 5.92286 14.5521 8.3319 11.7145ZM16.0849 11.97C15.8657 12.2279 15.8861 12.6122 16.136 12.8408C16.3949 13.0779 16.8012 13.0553 17.0286 12.788C19.4594 9.93158 19.8433 8.49039 17.8496 6.66596C15.8561 4.8415 14.4434 5.34106 11.7814 7.98595C11.5324 8.23339 11.5434 8.63785 11.8024 8.87488C12.0522 9.10346 12.4391 9.09184 12.6794 8.85337C12.9331 8.60165 13.1724 8.37269 13.4 8.1658C14.0922 7.53615 14.6116 7.16968 15.023 6.9811C15.3997 6.80846 15.6462 6.80146 15.8628 6.85511C16.1192 6.91862 16.4815 7.10566 17.0018 7.58184C17.5221 8.058 17.7395 8.40149 17.8244 8.65033C17.8961 8.86048 17.9095 9.10528 17.7676 9.49285C17.6127 9.91622 17.2883 10.4611 16.7145 11.1991C16.5259 11.4417 16.3162 11.6978 16.0849 11.97ZM10.0621 14.1384C9.81823 14.4019 9.83532 14.8121 10.1003 15.0546C10.3652 15.297 10.7777 15.28 11.0216 15.0165L15.3193 10.374C15.5632 10.1105 15.5461 9.7004 15.2812 9.4579C15.0161 9.2154 14.6037 9.23239 14.3598 9.49592L10.0621 14.1384Z" fill="white"/>
</svg>
