<svg width="25" height="24" viewBox="0 0 25 24" fill="none" xmlns="http://www.w3.org/2000/svg">
<g clip-path="url(#clip0_136_21411)">
<path d="M9.89555 0H14.2587C19.6815 0 24.0771 4.3956 24.0771 9.8184V14.1816C24.0771 19.6044 19.6815 24 14.2587 24H9.89555C4.47275 24 0.0771484 19.6044 0.0771484 14.1816V9.8184C0.0771484 4.3956 4.47275 0 9.89555 0Z" fill="#6D6D6D"/>
<mask id="mask0_136_21411" style="mask-type:luminance" maskUnits="userSpaceOnUse" x="0" y="0" width="25" height="24">
<path d="M9.89555 0H14.2587C19.6815 0 24.0771 4.3956 24.0771 9.8184V14.1816C24.0771 19.6044 19.6815 24 14.2587 24H9.89555C4.47275 24 0.0771484 19.6044 0.0771484 14.1816V9.8184C0.0771484 4.3956 4.47275 0 9.89555 0Z" fill="white"/>
</mask>
<g mask="url(#mask0_136_21411)">
<path opacity="0.3" d="M15.6231 11.9998C17.5816 11.9998 19.1691 10.4122 19.1691 8.45384C19.1691 6.49544 17.5816 4.90784 15.6231 4.90784C13.6647 4.90784 12.0771 6.49544 12.0771 8.45384C12.0771 10.4122 13.6647 11.9998 15.6231 11.9998Z" fill="#FF8A5B"/>
</g>
<mask id="mask1_136_21411" style="mask-type:luminance" maskUnits="userSpaceOnUse" x="0" y="0" width="25" height="24">
<path d="M9.89555 0H14.2587C19.6815 0 24.0771 4.3956 24.0771 9.8184V14.1816C24.0771 19.6044 19.6815 24 14.2587 24H9.89555C4.47275 24 0.0771484 19.6044 0.0771484 14.1816V9.8184C0.0771484 4.3956 4.47275 0 9.89555 0Z" fill="white"/>
</mask>
<g mask="url(#mask1_136_21411)">
<path d="M15.6222 10.7101C16.8682 10.7101 17.8782 9.70001 17.8782 8.45406C17.8782 7.2081 16.8682 6.19806 15.6222 6.19806C14.3763 6.19806 13.3662 7.2081 13.3662 8.45406C13.3662 9.70001 14.3763 10.7101 15.6222 10.7101Z" fill="#FF723A"/>
</g>
<mask id="mask2_136_21411" style="mask-type:luminance" maskUnits="userSpaceOnUse" x="0" y="0" width="25" height="24">
<path d="M9.89555 0H14.2587C19.6815 0 24.0771 4.3956 24.0771 9.8184V14.1816C24.0771 19.6044 19.6815 24 14.2587 24H9.89555C4.47275 24 0.0771484 19.6044 0.0771484 14.1816V9.8184C0.0771484 4.3956 4.47275 0 9.89555 0Z" fill="white"/>
</mask>
<g mask="url(#mask2_136_21411)">
<path d="M15.3008 8.21147C15.4616 8.15027 15.6428 8.18867 15.7652 8.31107C15.8708 8.41667 15.914 8.56907 15.8816 8.71307L12.0344 18.8099C11.9768 18.9599 11.8424 19.0643 11.6864 19.0859L11.6168 19.0907C11.4536 19.0859 11.3072 18.9911 11.2364 18.8471L11.2136 18.7919L9.73402 14.3435L5.28322 12.8639C5.10802 12.8051 4.98922 12.6431 4.98442 12.4595C4.98202 12.2951 5.06962 12.1451 5.21122 12.0671L5.26522 12.0431L15.3008 8.21027V8.21147Z" fill="white"/>
<mask id="mask3_136_21411" style="mask-type:luminance" maskUnits="userSpaceOnUse" x="4" y="8" width="12" height="12">
<path d="M15.2998 8.21227C15.4606 8.15107 15.6418 8.18947 15.7642 8.31187C15.8698 8.41747 15.913 8.56987 15.8806 8.71387L12.0334 18.8107C11.9758 18.9607 11.8414 19.0651 11.6854 19.0867L11.6158 19.0915C11.4526 19.0867 11.3062 18.9919 11.2354 18.8479L11.2126 18.7927L9.73305 14.3443L5.28225 12.8647C5.10705 12.8059 4.98825 12.6439 4.98345 12.4603C4.98105 12.2959 5.06865 12.1459 5.21025 12.0679L5.26425 12.0439L15.2998 8.21107V8.21227Z" fill="white"/>
</mask>
<g mask="url(#mask3_136_21411)">
<path opacity="0.5" fill-rule="evenodd" clip-rule="evenodd" d="M9.73281 14.3445L15.764 8.31213L16.3376 8.66013L13.166 18.5421L11.2208 20.0853L9.06201 19.0917L9.73281 14.3445Z" fill="#D8D8D8"/>
</g>
</g>
</g>
<defs>
<clipPath id="clip0_136_21411">
<rect width="24" height="24" fill="white" transform="translate(0.0771484)"/>
</clipPath>
</defs>
</svg>
