<svg width="25" height="24" viewBox="0 0 25 24" fill="none" xmlns="http://www.w3.org/2000/svg">
<rect x="0.615723" width="24" height="24" rx="12" fill="#BABABA" fill-opacity="0.6"/>
<g clip-path="url(#clip0_56_5222)">
<path d="M17.1161 8.7C17.1161 8.03726 16.5789 7.5 15.9161 7.5H8.71611C8.05337 7.5 7.51611 8.03726 7.51611 8.7V15.3C7.51611 15.9628 8.05337 16.5 8.71611 16.5H15.9161C16.5789 16.5 17.1161 15.9628 17.1161 15.3" stroke="white" stroke-width="0.9" stroke-linecap="round"/>
<path d="M8.11816 16.0484L11.9219 12.8945C12.1482 12.6966 12.4859 12.6967 12.7121 12.8946L16.5146 16.0485" stroke="white" stroke-width="0.9"/>
<path d="M10.3659 11.25C10.9458 11.25 11.4159 10.7799 11.4159 10.2C11.4159 9.62009 10.9458 9.14999 10.3659 9.14999C9.78602 9.14999 9.31592 9.62009 9.31592 10.2C9.31592 10.7799 9.78602 11.25 10.3659 11.25Z" stroke="white" stroke-width="0.9"/>
<path d="M16.9062 10.89V13.11" stroke="white" stroke-width="0.78" stroke-linecap="round"/>
<path d="M17.9261 12.09H15.7061" stroke="white" stroke-width="0.78" stroke-linecap="round"/>
</g>
<defs>
<clipPath id="clip0_56_5222">
<rect width="11.4" height="10.2" fill="white" transform="translate(6.91602 6.89999)"/>
</clipPath>
</defs>
</svg>
