<svg width="706" height="300" viewBox="0 0 706 300" fill="none" xmlns="http://www.w3.org/2000/svg">
<g clip-path="url(#clip0_162_20944)">
<path d="M24.1766 31.5192C23.5914 31.5192 23.0744 31.4155 22.6255 31.2081C22.1795 30.9979 21.8315 30.7096 21.5815 30.3431C21.3315 29.9738 21.2079 29.5533 21.2107 29.0817C21.2079 28.7124 21.2803 28.3715 21.4281 28.059C21.5758 27.7437 21.7775 27.4809 22.0332 27.2706C22.2917 27.0576 22.5801 26.9226 22.8982 26.8658V26.8147C22.4806 26.7067 22.1482 26.4723 21.9011 26.1115C21.6539 25.7479 21.5318 25.3346 21.5346 24.8715C21.5318 24.4283 21.644 24.032 21.8713 23.6826C22.0985 23.3331 22.411 23.0576 22.8088 22.8559C23.2093 22.6542 23.6653 22.5533 24.1766 22.5533C24.6823 22.5533 25.134 22.6542 25.5318 22.8559C25.9295 23.0576 26.242 23.3331 26.4693 23.6826C26.6994 24.032 26.8159 24.4283 26.8187 24.8715C26.8159 25.3346 26.6894 25.7479 26.4394 26.1115C26.1923 26.4723 25.8641 26.7067 25.4551 26.8147V26.8658C25.7704 26.9226 26.0545 27.0576 26.3073 27.2706C26.5602 27.4809 26.7619 27.7437 26.9124 28.059C27.063 28.3715 27.1397 28.7124 27.1426 29.0817C27.1397 29.5533 27.0119 29.9738 26.759 30.3431C26.509 30.7096 26.161 30.9979 25.715 31.2081C25.2718 31.4155 24.759 31.5192 24.1766 31.5192ZM24.1766 30.5817C24.5715 30.5817 24.9124 30.5178 25.1994 30.39C25.4863 30.2621 25.7079 30.0817 25.8641 29.8488C26.0204 29.6158 26.0999 29.3431 26.1028 29.0306C26.0999 28.701 26.0147 28.4098 25.8471 28.157C25.6795 27.9042 25.4508 27.7053 25.161 27.5604C24.8741 27.4155 24.546 27.3431 24.1766 27.3431C23.8045 27.3431 23.4721 27.4155 23.1795 27.5604C22.8897 27.7053 22.661 27.9042 22.4934 28.157C22.3286 28.4098 22.2477 28.701 22.2505 29.0306C22.2477 29.3431 22.323 29.6158 22.4764 29.8488C22.6326 30.0817 22.8556 30.2621 23.1454 30.39C23.4352 30.5178 23.7789 30.5817 24.1766 30.5817ZM24.1766 26.4397C24.4891 26.4397 24.7661 26.3772 25.0076 26.2522C25.2519 26.1272 25.4437 25.9525 25.5829 25.728C25.7221 25.5036 25.7931 25.2408 25.796 24.9397C25.7931 24.6442 25.7235 24.3871 25.5872 24.1684C25.4508 23.9468 25.2619 23.7763 25.0204 23.657C24.7789 23.5348 24.4977 23.4738 24.1766 23.4738C23.8499 23.4738 23.5644 23.5348 23.3201 23.657C23.0758 23.7763 22.8869 23.9468 22.7534 24.1684C22.6198 24.3871 22.5545 24.6442 22.5573 24.9397C22.5545 25.2408 22.6213 25.5036 22.7576 25.728C22.8968 25.9525 23.0886 26.1272 23.3329 26.2522C23.5772 26.3772 23.8585 26.4397 24.1766 26.4397Z" fill="#979797"/>
<path d="M24.1852 89.5998C23.8272 89.5941 23.4693 89.5259 23.1113 89.3952C22.7534 89.2646 22.4266 89.0444 22.1312 88.7347C21.8357 88.4222 21.5985 88.0004 21.4195 87.4691C21.2406 86.935 21.1511 86.2646 21.1511 85.4577C21.1511 84.685 21.2235 84.0004 21.3684 83.4038C21.5133 82.8043 21.7235 82.3001 21.9991 81.891C22.2747 81.479 22.607 81.1665 22.9963 80.9535C23.3883 80.7404 23.8301 80.6339 24.3215 80.6339C24.8102 80.6339 25.2448 80.7319 25.6255 80.9279C26.009 81.1211 26.3215 81.391 26.563 81.7376C26.8045 82.0842 26.9607 82.4833 27.0318 82.935H25.992C25.8954 82.543 25.7079 82.2177 25.4295 81.9592C25.1511 81.7006 24.7818 81.5714 24.3215 81.5714C23.6454 81.5714 23.1127 81.8654 22.7235 82.4535C22.3372 83.0415 22.1426 83.8668 22.1397 84.9293H22.2079C22.367 84.6879 22.5559 84.4819 22.7747 84.3114C22.9963 84.1381 23.2406 84.0046 23.5076 83.9109C23.7747 83.8171 24.0573 83.7702 24.3556 83.7702C24.8556 83.7702 25.313 83.8952 25.7278 84.1452C26.1426 84.3924 26.4749 84.7347 26.7249 85.1722C26.9749 85.6069 27.0999 86.1055 27.0999 86.668C27.0999 87.2077 26.9792 87.7021 26.7377 88.1509C26.4963 88.5969 26.1568 88.9521 25.7193 89.2163C25.2846 89.4776 24.7732 89.6055 24.1852 89.5998ZM24.1852 88.6623C24.5431 88.6623 24.8641 88.5728 25.1482 88.3938C25.4352 88.2148 25.661 87.9748 25.8258 87.6737C25.9934 87.3725 26.0772 87.0373 26.0772 86.668C26.0772 86.3072 25.9963 85.979 25.8343 85.6836C25.6752 85.3853 25.4551 85.1481 25.1738 84.9719C24.8954 84.7958 24.5772 84.7077 24.2193 84.7077C23.9494 84.7077 23.698 84.7617 23.465 84.8697C23.232 84.9748 23.0275 85.1197 22.8514 85.3043C22.6781 85.489 22.5417 85.7006 22.4423 85.9393C22.3428 86.1751 22.2931 86.4237 22.2931 86.685C22.2931 87.0316 22.3741 87.3555 22.536 87.6566C22.7008 87.9577 22.9252 88.2006 23.2093 88.3853C23.4963 88.57 23.8215 88.6623 24.1852 88.6623Z" fill="#979797"/>
<path d="M20.872 145.772V144.902L24.7072 138.834H25.3379V140.181H24.9117L22.014 144.766V144.834H27.1788V145.772H20.872ZM24.9799 147.561V145.507V145.102V138.834H25.9856V147.561H24.9799Z" fill="#979797"/>
<path d="M21.5101 205.642V204.875L24.3908 201.721C24.7289 201.352 25.0073 201.031 25.226 200.758C25.4448 200.483 25.6067 200.224 25.7118 199.983C25.8198 199.738 25.8737 199.483 25.8737 199.216C25.8737 198.909 25.7999 198.643 25.6521 198.419C25.5073 198.194 25.3084 198.021 25.0556 197.899C24.8027 197.777 24.5186 197.716 24.2033 197.716C23.8681 197.716 23.5754 197.785 23.3254 197.925C23.0783 198.061 22.8865 198.253 22.7502 198.5C22.6166 198.747 22.5499 199.037 22.5499 199.369H21.5442C21.5442 198.858 21.6621 198.409 21.8979 198.023C22.1337 197.636 22.4547 197.335 22.861 197.119C23.27 196.903 23.7289 196.795 24.2374 196.795C24.7487 196.795 25.2019 196.903 25.5967 197.119C25.9916 197.335 26.3013 197.626 26.5257 197.993C26.7502 198.359 26.8624 198.767 26.8624 199.216C26.8624 199.537 26.8041 199.851 26.6877 200.157C26.574 200.461 26.3752 200.801 26.0911 201.176C25.8098 201.548 25.4192 202.003 24.9192 202.54L22.959 204.636V204.704H27.0158V205.642H21.5101Z" fill="#979797"/>
<path d="M24.1223 263.842C23.4803 263.842 22.9334 263.667 22.4817 263.318C22.03 262.966 21.6848 262.456 21.4462 261.788C21.2075 261.118 21.0882 260.308 21.0882 259.359C21.0882 258.416 21.2075 257.61 21.4462 256.943C21.6877 256.272 22.0342 255.761 22.486 255.409C22.9405 255.054 23.486 254.876 24.1223 254.876C24.7587 254.876 25.3027 255.054 25.7544 255.409C26.209 255.761 26.5556 256.272 26.7942 256.943C27.0357 257.61 27.1564 258.416 27.1564 259.359C27.1564 260.308 27.0371 261.118 26.7985 261.788C26.5598 262.456 26.2146 262.966 25.7629 263.318C25.3112 263.667 24.7644 263.842 24.1223 263.842ZM24.1223 262.904C24.7587 262.904 25.253 262.598 25.6053 261.984C25.9575 261.37 26.1337 260.495 26.1337 259.359C26.1337 258.603 26.0527 257.96 25.8908 257.429C25.7317 256.897 25.5016 256.493 25.2004 256.214C24.9021 255.936 24.5428 255.797 24.1223 255.797C23.4916 255.797 22.9987 256.108 22.6436 256.73C22.2885 257.349 22.111 258.225 22.111 259.359C22.111 260.115 22.1905 260.757 22.3496 261.285C22.5087 261.814 22.7374 262.216 23.0357 262.491C23.3368 262.767 23.699 262.904 24.1223 262.904Z" fill="#979797"/>
<path d="M381.377 0V262.323" stroke="#B6B6B6" stroke-dasharray="3 3"/>
<path d="M39.6387 88.0806H675.388" stroke="#E0E0E0"/>
<path d="M39.6387 146.161H675.388" stroke="#E0E0E0"/>
<path d="M39.6387 204.242H675.388" stroke="#E0E0E0"/>
<mask id="mask0_162_20944" style="mask-type:luminance" maskUnits="userSpaceOnUse" x="36" y="29" width="643" height="235">
<path d="M678.917 29H36.1074V263.323H678.917V29Z" fill="white"/>
</mask>
<g mask="url(#mask0_162_20944)">
<path d="M39.6367 262.323C56.753 262.323 71.4242 262.323 88.5405 262.323C105.657 262.323 120.328 262.323 137.444 262.323C154.561 262.323 169.232 262.323 186.348 262.323C203.464 262.323 218.136 262.323 235.252 262.323C252.368 262.323 267.039 262.323 284.156 262.323C301.272 262.323 315.943 30 333.059 30C350.176 30 364.847 59.0403 381.963 59.0403C399.08 59.0403 413.751 204.242 430.867 204.242C447.983 204.242 462.655 204.242 479.771 204.242C496.887 204.242 511.558 204.242 528.675 204.242C545.791 204.242 560.462 262.323 577.578 262.323C594.695 262.323 609.366 262.323 626.482 262.323C643.599 262.323 658.27 262.323 675.386 262.323" fill="#FF5B14" fill-opacity="0.2"/>
</g>
<mask id="mask1_162_20944" style="mask-type:luminance" maskUnits="userSpaceOnUse" x="36" y="29" width="643" height="235">
<path d="M678.917 29H36.1074V263.323H678.917V29Z" fill="white"/>
</mask>
<g mask="url(#mask1_162_20944)">
<path d="M39.6367 262.323C56.753 262.323 71.4242 262.323 88.5405 262.323C105.657 262.323 120.328 262.323 137.444 262.323C154.561 262.323 169.232 262.323 186.348 262.323C203.464 262.323 218.136 262.323 235.252 262.323C252.368 262.323 267.039 262.323 284.156 262.323C301.272 262.323 315.943 30 333.059 30C350.176 30 364.847 59.0403 381.963 59.0403C399.08 59.0403 413.751 204.242 430.867 204.242C447.983 204.242 462.655 204.242 479.771 204.242C496.887 204.242 511.558 204.242 528.675 204.242C545.791 204.242 560.462 262.323 577.578 262.323C594.695 262.323 609.366 262.323 626.482 262.323C643.599 262.323 658.27 262.323 675.386 262.323" stroke="#FF5B14" stroke-width="2"/>
</g>
<mask id="mask2_162_20944" style="mask-type:luminance" maskUnits="userSpaceOnUse" x="22" y="15" width="671" height="262">
<path d="M692.096 15.8H22.9297V276.523H692.096V15.8Z" fill="white"/>
</mask>
<g mask="url(#mask2_162_20944)">
<path d="M39.6392 262.423C39.7041 262.423 39.7568 262.378 39.7568 262.323C39.7568 262.267 39.7041 262.223 39.6392 262.223C39.5742 262.223 39.5215 262.267 39.5215 262.323C39.5215 262.378 39.5742 262.423 39.6392 262.423Z" fill="#FF5B14"/>
<path d="M88.5434 262.423C88.6084 262.423 88.6611 262.378 88.6611 262.323C88.6611 262.267 88.6084 262.223 88.5434 262.223C88.4785 262.223 88.4258 262.267 88.4258 262.323C88.4258 262.378 88.4785 262.423 88.5434 262.423Z" fill="#FF5B14"/>
</g>
<mask id="mask3_162_20944" style="mask-type:luminance" maskUnits="userSpaceOnUse" x="22" y="15" width="671" height="262">
<path d="M692.096 15.8H22.9297V276.523H692.096V15.8Z" fill="white"/>
</mask>
<g mask="url(#mask3_162_20944)">
<path d="M137.446 262.423C137.511 262.423 137.563 262.378 137.563 262.323C137.563 262.267 137.511 262.223 137.446 262.223C137.381 262.223 137.328 262.267 137.328 262.323C137.328 262.378 137.381 262.423 137.446 262.423Z" fill="#FF5B14"/>
</g>
<mask id="mask4_162_20944" style="mask-type:luminance" maskUnits="userSpaceOnUse" x="22" y="15" width="671" height="262">
<path d="M692.096 15.8H22.9297V276.523H692.096V15.8Z" fill="white"/>
</mask>
<g mask="url(#mask4_162_20944)">
<path d="M186.35 262.423C186.415 262.423 186.468 262.378 186.468 262.323C186.468 262.267 186.415 262.223 186.35 262.223C186.285 262.223 186.232 262.267 186.232 262.323C186.232 262.378 186.285 262.423 186.35 262.423Z" fill="#FF5B14"/>
</g>
<mask id="mask5_162_20944" style="mask-type:luminance" maskUnits="userSpaceOnUse" x="22" y="15" width="671" height="262">
<path d="M692.096 15.8H22.9297V276.523H692.096V15.8Z" fill="white"/>
</mask>
<g mask="url(#mask5_162_20944)">
<path d="M235.254 262.423C235.319 262.423 235.372 262.378 235.372 262.323C235.372 262.267 235.319 262.223 235.254 262.223C235.189 262.223 235.137 262.267 235.137 262.323C235.137 262.378 235.189 262.423 235.254 262.423Z" fill="#FF5B14"/>
</g>
<mask id="mask6_162_20944" style="mask-type:luminance" maskUnits="userSpaceOnUse" x="22" y="15" width="671" height="262">
<path d="M692.096 15.8H22.9297V276.523H692.096V15.8Z" fill="white"/>
</mask>
<g mask="url(#mask6_162_20944)">
<path d="M284.157 262.423C284.222 262.423 284.274 262.378 284.274 262.323C284.274 262.267 284.222 262.223 284.157 262.223C284.092 262.223 284.039 262.267 284.039 262.323C284.039 262.378 284.092 262.423 284.157 262.423Z" fill="#FF5B14"/>
</g>
<mask id="mask7_162_20944" style="mask-type:luminance" maskUnits="userSpaceOnUse" x="22" y="15" width="671" height="262">
<path d="M692.096 15.8H22.9297V276.523H692.096V15.8Z" fill="white"/>
</mask>
<g mask="url(#mask7_162_20944)">
<path d="M333.061 30.1001C333.126 30.1001 333.179 30.0554 333.179 30.0001C333.179 29.9449 333.126 29.9001 333.061 29.9001C332.996 29.9001 332.943 29.9449 332.943 30.0001C332.943 30.0554 332.996 30.1001 333.061 30.1001Z" fill="#FF5B14"/>
</g>
<mask id="mask8_162_20944" style="mask-type:luminance" maskUnits="userSpaceOnUse" x="22" y="15" width="671" height="262">
<path d="M692.096 15.8H22.9297V276.523H692.096V15.8Z" fill="white"/>
</mask>
<g mask="url(#mask8_162_20944)">
<path d="M381.965 59.1404C382.03 59.1404 382.083 59.0957 382.083 59.0404C382.083 58.9852 382.03 58.9404 381.965 58.9404C381.9 58.9404 381.848 58.9852 381.848 59.0404C381.848 59.0957 381.9 59.1404 381.965 59.1404Z" fill="#FF5B14"/>
</g>
<mask id="mask9_162_20944" style="mask-type:luminance" maskUnits="userSpaceOnUse" x="22" y="15" width="671" height="262">
<path d="M692.096 15.8H22.9297V276.523H692.096V15.8Z" fill="white"/>
</mask>
<g mask="url(#mask9_162_20944)">
<path d="M430.87 204.342C430.935 204.342 430.987 204.297 430.987 204.242C430.987 204.187 430.935 204.142 430.87 204.142C430.805 204.142 430.752 204.187 430.752 204.242C430.752 204.297 430.805 204.342 430.87 204.342Z" fill="#FF5B14"/>
</g>
<mask id="mask10_162_20944" style="mask-type:luminance" maskUnits="userSpaceOnUse" x="22" y="15" width="671" height="262">
<path d="M692.096 15.8H22.9297V276.523H692.096V15.8Z" fill="white"/>
</mask>
<g mask="url(#mask10_162_20944)">
<path d="M479.772 204.342C479.837 204.342 479.89 204.297 479.89 204.242C479.89 204.187 479.837 204.142 479.772 204.142C479.707 204.142 479.654 204.187 479.654 204.242C479.654 204.297 479.707 204.342 479.772 204.342Z" fill="#FF5B14"/>
</g>
<mask id="mask11_162_20944" style="mask-type:luminance" maskUnits="userSpaceOnUse" x="22" y="15" width="671" height="262">
<path d="M692.096 15.8H22.9297V276.523H692.096V15.8Z" fill="white"/>
</mask>
<g mask="url(#mask11_162_20944)">
<path d="M528.676 204.342C528.741 204.342 528.794 204.297 528.794 204.242C528.794 204.187 528.741 204.142 528.676 204.142C528.611 204.142 528.559 204.187 528.559 204.242C528.559 204.297 528.611 204.342 528.676 204.342Z" fill="#FF5B14"/>
</g>
<mask id="mask12_162_20944" style="mask-type:luminance" maskUnits="userSpaceOnUse" x="22" y="15" width="671" height="262">
<path d="M692.096 15.8H22.9297V276.523H692.096V15.8Z" fill="white"/>
</mask>
<g mask="url(#mask12_162_20944)">
<path d="M577.581 262.423C577.646 262.423 577.698 262.378 577.698 262.323C577.698 262.267 577.646 262.223 577.581 262.223C577.516 262.223 577.463 262.267 577.463 262.323C577.463 262.378 577.516 262.423 577.581 262.423Z" fill="#FF5B14"/>
</g>
<mask id="mask13_162_20944" style="mask-type:luminance" maskUnits="userSpaceOnUse" x="22" y="15" width="671" height="262">
<path d="M692.096 15.8H22.9297V276.523H692.096V15.8Z" fill="white"/>
</mask>
<g mask="url(#mask13_162_20944)">
<path d="M626.485 262.423C626.55 262.423 626.602 262.378 626.602 262.323C626.602 262.267 626.55 262.223 626.485 262.223C626.42 262.223 626.367 262.267 626.367 262.323C626.367 262.378 626.42 262.423 626.485 262.423Z" fill="#FF5B14"/>
</g>
<path d="M675.387 262.423C675.452 262.423 675.505 262.378 675.505 262.323C675.505 262.267 675.452 262.223 675.387 262.223C675.322 262.223 675.27 262.267 675.27 262.323C675.27 262.378 675.322 262.423 675.387 262.423Z" fill="#FF5B14"/>
<path d="M39.6387 30H675.388" stroke="#E0E0E0"/>
<path d="M39.6387 262.323H675.388" stroke="#E0E0E0"/>
<path d="M39.6387 263.323H675.388" stroke="#E0E0E0"/>
<path d="M39.6387 30H675.388" stroke="#B6B6B6"/>
<path d="M43.75 287.119C43.108 287.119 42.5611 286.945 42.1094 286.595C41.6577 286.243 41.3125 285.733 41.0739 285.065C40.8352 284.395 40.7159 283.585 40.7159 282.636C40.7159 281.693 40.8352 280.888 41.0739 280.22C41.3153 279.55 41.6619 279.038 42.1136 278.686C42.5682 278.331 43.1136 278.153 43.75 278.153C44.3864 278.153 44.9304 278.331 45.3821 278.686C45.8366 279.038 46.1832 279.55 46.4219 280.22C46.6634 280.888 46.7841 281.693 46.7841 282.636C46.7841 283.585 46.6648 284.395 46.4261 285.065C46.1875 285.733 45.8423 286.243 45.3906 286.595C44.9389 286.945 44.392 287.119 43.75 287.119ZM43.75 286.182C44.3864 286.182 44.8807 285.875 45.233 285.261C45.5852 284.648 45.7614 283.773 45.7614 282.636C45.7614 281.881 45.6804 281.237 45.5185 280.706C45.3594 280.175 45.1293 279.77 44.8281 279.491C44.5298 279.213 44.1705 279.074 43.75 279.074C43.1193 279.074 42.6264 279.385 42.2713 280.007C41.9162 280.626 41.7386 281.503 41.7386 282.636C41.7386 283.392 41.8182 284.034 41.9773 284.562C42.1364 285.091 42.3651 285.493 42.6634 285.768C42.9645 286.044 43.3267 286.182 43.75 286.182ZM51.1818 278.153C51.5398 278.156 51.8977 278.224 52.2557 278.358C52.6136 278.491 52.9403 278.713 53.2358 279.023C53.5313 279.33 53.7685 279.749 53.9474 280.28C54.1264 280.811 54.2159 281.477 54.2159 282.278C54.2159 283.054 54.142 283.743 53.9943 284.345C53.8494 284.945 53.6392 285.45 53.3636 285.862C53.0909 286.274 52.7585 286.587 52.3665 286.8C51.9773 287.013 51.5369 287.119 51.0455 287.119C50.5568 287.119 50.1207 287.023 49.7372 286.83C49.3565 286.634 49.044 286.362 48.7997 286.016C48.5582 285.666 48.4034 285.261 48.3352 284.801H49.375C49.4688 285.202 49.6548 285.533 49.9332 285.794C50.2145 286.053 50.5852 286.182 51.0455 286.182C51.7188 286.182 52.25 285.888 52.6392 285.3C53.0313 284.712 53.2273 283.881 53.2273 282.807H53.1591C53 283.045 52.8111 283.251 52.5923 283.425C52.3736 283.598 52.1307 283.732 51.8636 283.825C51.5966 283.919 51.3125 283.966 51.0114 283.966C50.5114 283.966 50.0526 283.842 49.6349 283.595C49.2202 283.345 48.8878 283.003 48.6378 282.568C48.3906 282.131 48.267 281.631 48.267 281.068C48.267 280.534 48.3864 280.045 48.625 279.602C48.8665 279.156 49.2045 278.801 49.6392 278.537C50.0767 278.273 50.5909 278.145 51.1818 278.153ZM51.1818 279.091C50.8239 279.091 50.5014 279.18 50.2145 279.359C49.9304 279.536 49.7045 279.774 49.5369 280.075C49.3722 280.374 49.2898 280.705 49.2898 281.068C49.2898 281.432 49.3693 281.763 49.5284 282.061C49.6903 282.357 49.9105 282.592 50.1889 282.768C50.4702 282.942 50.7898 283.028 51.1477 283.028C51.4176 283.028 51.669 282.976 51.902 282.871C52.1349 282.763 52.3381 282.616 52.5114 282.432C52.6875 282.244 52.8253 282.033 52.9247 281.797C53.0241 281.558 53.0739 281.31 53.0739 281.051C53.0739 280.71 52.9915 280.391 52.8267 280.092C52.6648 279.794 52.4403 279.553 52.1534 279.368C51.8693 279.183 51.5455 279.091 51.1818 279.091ZM58.994 277.864L56.1815 288.312H55.261L58.0735 277.864H58.994ZM63.2372 278.273V287H62.1804V279.381H62.1293L59.9986 280.795V279.722L62.1804 278.273H63.2372ZM68.6449 287.119C68.2869 287.114 67.929 287.045 67.571 286.915C67.2131 286.784 66.8864 286.564 66.5909 286.254C66.2955 285.942 66.0582 285.52 65.8793 284.989C65.7003 284.455 65.6108 283.784 65.6108 282.977C65.6108 282.205 65.6832 281.52 65.8281 280.923C65.973 280.324 66.1832 279.82 66.4588 279.411C66.7344 278.999 67.0668 278.686 67.456 278.473C67.848 278.26 68.2898 278.153 68.7812 278.153C69.2699 278.153 69.7045 278.251 70.0852 278.447C70.4688 278.641 70.7813 278.911 71.0227 279.257C71.2642 279.604 71.4205 280.003 71.4915 280.455H70.4517C70.3551 280.062 70.1676 279.737 69.8892 279.479C69.6108 279.22 69.2415 279.091 68.7812 279.091C68.1051 279.091 67.5724 279.385 67.1832 279.973C66.7969 280.561 66.6023 281.386 66.5994 282.449H66.6676C66.8267 282.207 67.0156 282.001 67.2344 281.831C67.456 281.658 67.7003 281.524 67.9673 281.43C68.2344 281.337 68.517 281.29 68.8153 281.29C69.3153 281.29 69.7727 281.415 70.1875 281.665C70.6023 281.912 70.9347 282.254 71.1847 282.692C71.4347 283.126 71.5597 283.625 71.5597 284.188C71.5597 284.727 71.4389 285.222 71.1974 285.67C70.956 286.116 70.6165 286.472 70.179 286.736C69.7443 286.997 69.233 287.125 68.6449 287.119ZM68.6449 286.182C69.0028 286.182 69.3239 286.092 69.608 285.913C69.8949 285.734 70.1207 285.494 70.2855 285.193C70.4531 284.892 70.5369 284.557 70.5369 284.188C70.5369 283.827 70.456 283.499 70.294 283.203C70.1349 282.905 69.9148 282.668 69.6335 282.491C69.3551 282.315 69.0369 282.227 68.679 282.227C68.4091 282.227 68.1577 282.281 67.9247 282.389C67.6918 282.494 67.4872 282.639 67.3111 282.824C67.1378 283.009 67.0014 283.22 66.902 283.459C66.8026 283.695 66.7528 283.943 66.7528 284.205C66.7528 284.551 66.8338 284.875 66.9957 285.176C67.1605 285.477 67.3849 285.72 67.669 285.905C67.956 286.089 68.2812 286.182 68.6449 286.182Z" fill="#979797"/>
<path d="M147.178 287.119C146.536 287.119 145.989 286.945 145.537 286.595C145.085 286.243 144.74 285.733 144.502 285.065C144.263 284.395 144.144 283.585 144.144 282.636C144.144 281.693 144.263 280.888 144.502 280.22C144.743 279.55 145.09 279.038 145.541 278.686C145.996 278.331 146.541 278.153 147.178 278.153C147.814 278.153 148.358 278.331 148.81 278.686C149.264 279.038 149.611 279.55 149.85 280.22C150.091 280.888 150.212 281.693 150.212 282.636C150.212 283.585 150.093 284.395 149.854 285.065C149.615 285.733 149.27 286.243 148.818 286.595C148.367 286.945 147.82 287.119 147.178 287.119ZM147.178 286.182C147.814 286.182 148.308 285.875 148.661 285.261C149.013 284.648 149.189 283.773 149.189 282.636C149.189 281.881 149.108 281.237 148.946 280.706C148.787 280.175 148.557 279.77 148.256 279.491C147.958 279.213 147.598 279.074 147.178 279.074C146.547 279.074 146.054 279.385 145.699 280.007C145.344 280.626 145.166 281.503 145.166 282.636C145.166 283.392 145.246 284.034 145.405 284.562C145.564 285.091 145.793 285.493 146.091 285.768C146.392 286.044 146.754 286.182 147.178 286.182ZM154.61 278.153C154.968 278.156 155.325 278.224 155.683 278.358C156.041 278.491 156.368 278.713 156.664 279.023C156.959 279.33 157.196 279.749 157.375 280.28C157.554 280.811 157.644 281.477 157.644 282.278C157.644 283.054 157.57 283.743 157.422 284.345C157.277 284.945 157.067 285.45 156.791 285.862C156.519 286.274 156.186 286.587 155.794 286.8C155.405 287.013 154.965 287.119 154.473 287.119C153.985 287.119 153.548 287.023 153.165 286.83C152.784 286.634 152.472 286.362 152.227 286.016C151.986 285.666 151.831 285.261 151.763 284.801H152.803C152.896 285.202 153.083 285.533 153.361 285.794C153.642 286.053 154.013 286.182 154.473 286.182C155.146 286.182 155.678 285.888 156.067 285.3C156.459 284.712 156.655 283.881 156.655 282.807H156.587C156.428 283.045 156.239 283.251 156.02 283.425C155.801 283.598 155.558 283.732 155.291 283.825C155.024 283.919 154.74 283.966 154.439 283.966C153.939 283.966 153.48 283.842 153.063 283.595C152.648 283.345 152.316 283.003 152.066 282.568C151.818 282.131 151.695 281.631 151.695 281.068C151.695 280.534 151.814 280.045 152.053 279.602C152.294 279.156 152.632 278.801 153.067 278.537C153.504 278.273 154.019 278.145 154.61 278.153ZM154.61 279.091C154.252 279.091 153.929 279.18 153.642 279.359C153.358 279.536 153.132 279.774 152.965 280.075C152.8 280.374 152.718 280.705 152.718 281.068C152.718 281.432 152.797 281.763 152.956 282.061C153.118 282.357 153.338 282.592 153.617 282.768C153.898 282.942 154.218 283.028 154.575 283.028C154.845 283.028 155.097 282.976 155.33 282.871C155.563 282.763 155.766 282.616 155.939 282.432C156.115 282.244 156.253 282.033 156.352 281.797C156.452 281.558 156.502 281.31 156.502 281.051C156.502 280.71 156.419 280.391 156.254 280.092C156.093 279.794 155.868 279.553 155.581 279.368C155.297 279.183 154.973 279.091 154.61 279.091ZM162.422 277.864L159.609 288.312H158.689L161.501 277.864H162.422ZM166.665 278.273V287H165.608V279.381H165.557L163.426 280.795V279.722L165.608 278.273H166.665ZM171.97 287.119C171.385 287.119 170.868 287.016 170.419 286.808C169.973 286.598 169.625 286.31 169.375 285.943C169.125 285.574 169.002 285.153 169.004 284.682C169.002 284.312 169.074 283.972 169.222 283.659C169.369 283.344 169.571 283.081 169.827 282.871C170.085 282.658 170.374 282.523 170.692 282.466V282.415C170.274 282.307 169.942 282.072 169.695 281.712C169.448 281.348 169.325 280.935 169.328 280.472C169.325 280.028 169.438 279.632 169.665 279.283C169.892 278.933 170.205 278.658 170.602 278.456C171.003 278.254 171.459 278.153 171.97 278.153C172.476 278.153 172.928 278.254 173.325 278.456C173.723 278.658 174.036 278.933 174.263 279.283C174.493 279.632 174.61 280.028 174.612 280.472C174.61 280.935 174.483 281.348 174.233 281.712C173.986 282.072 173.658 282.307 173.249 282.415V282.466C173.564 282.523 173.848 282.658 174.101 282.871C174.354 283.081 174.556 283.344 174.706 283.659C174.857 283.972 174.933 284.312 174.936 284.682C174.933 285.153 174.806 285.574 174.553 285.943C174.303 286.31 173.955 286.598 173.509 286.808C173.066 287.016 172.553 287.119 171.97 287.119ZM171.97 286.182C172.365 286.182 172.706 286.118 172.993 285.99C173.28 285.862 173.502 285.682 173.658 285.449C173.814 285.216 173.894 284.943 173.896 284.631C173.894 284.301 173.808 284.01 173.641 283.757C173.473 283.504 173.244 283.305 172.955 283.161C172.668 283.016 172.34 282.943 171.97 282.943C171.598 282.943 171.266 283.016 170.973 283.161C170.683 283.305 170.455 283.504 170.287 283.757C170.122 284.01 170.041 284.301 170.044 284.631C170.041 284.943 170.117 285.216 170.27 285.449C170.426 285.682 170.649 285.862 170.939 285.99C171.229 286.118 171.573 286.182 171.97 286.182ZM171.97 282.04C172.283 282.04 172.56 281.977 172.801 281.852C173.046 281.727 173.237 281.553 173.377 281.328C173.516 281.104 173.587 280.841 173.59 280.54C173.587 280.244 173.517 279.987 173.381 279.768C173.244 279.547 173.056 279.376 172.814 279.257C172.573 279.135 172.291 279.074 171.97 279.074C171.644 279.074 171.358 279.135 171.114 279.257C170.869 279.376 170.681 279.547 170.547 279.768C170.414 279.987 170.348 280.244 170.351 280.54C170.348 280.841 170.415 281.104 170.551 281.328C170.691 281.553 170.882 281.727 171.127 281.852C171.371 281.977 171.652 282.04 171.97 282.04Z" fill="#979797"/>
<path d="M250.607 287.119C249.965 287.119 249.419 286.945 248.967 286.595C248.515 286.243 248.17 285.733 247.931 285.065C247.693 284.395 247.573 283.585 247.573 282.636C247.573 281.693 247.693 280.888 247.931 280.22C248.173 279.55 248.519 279.038 248.971 278.686C249.426 278.331 249.971 278.153 250.607 278.153C251.244 278.153 251.788 278.331 252.24 278.686C252.694 279.038 253.041 279.55 253.279 280.22C253.521 280.888 253.642 281.693 253.642 282.636C253.642 283.585 253.522 284.395 253.284 285.065C253.045 285.733 252.7 286.243 252.248 286.595C251.796 286.945 251.249 287.119 250.607 287.119ZM250.607 286.182C251.244 286.182 251.738 285.875 252.09 285.261C252.443 284.648 252.619 283.773 252.619 282.636C252.619 281.881 252.538 281.237 252.376 280.706C252.217 280.175 251.987 279.77 251.686 279.491C251.387 279.213 251.028 279.074 250.607 279.074C249.977 279.074 249.484 279.385 249.129 280.007C248.774 280.626 248.596 281.503 248.596 282.636C248.596 283.392 248.676 284.034 248.835 284.562C248.994 285.091 249.222 285.493 249.521 285.768C249.822 286.044 250.184 286.182 250.607 286.182ZM258.039 278.153C258.397 278.156 258.755 278.224 259.113 278.358C259.471 278.491 259.798 278.713 260.093 279.023C260.389 279.33 260.626 279.749 260.805 280.28C260.984 280.811 261.073 281.477 261.073 282.278C261.073 283.054 260.999 283.743 260.852 284.345C260.707 284.945 260.497 285.45 260.221 285.862C259.948 286.274 259.616 286.587 259.224 286.8C258.835 287.013 258.394 287.119 257.903 287.119C257.414 287.119 256.978 287.023 256.595 286.83C256.214 286.634 255.901 286.362 255.657 286.016C255.416 285.666 255.261 285.261 255.193 284.801H256.232C256.326 285.202 256.512 285.533 256.791 285.794C257.072 286.053 257.443 286.182 257.903 286.182C258.576 286.182 259.107 285.888 259.497 285.3C259.889 284.712 260.085 283.881 260.085 282.807H260.017C259.857 283.045 259.669 283.251 259.45 283.425C259.231 283.598 258.988 283.732 258.721 283.825C258.454 283.919 258.17 283.966 257.869 283.966C257.369 283.966 256.91 283.842 256.492 283.595C256.078 283.345 255.745 283.003 255.495 282.568C255.248 282.131 255.124 281.631 255.124 281.068C255.124 280.534 255.244 280.045 255.482 279.602C255.724 279.156 256.062 278.801 256.497 278.537C256.934 278.273 257.448 278.145 258.039 278.153ZM258.039 279.091C257.681 279.091 257.359 279.18 257.072 279.359C256.788 279.536 256.562 279.774 256.394 280.075C256.23 280.374 256.147 280.705 256.147 281.068C256.147 281.432 256.227 281.763 256.386 282.061C256.548 282.357 256.768 282.592 257.046 282.768C257.328 282.942 257.647 283.028 258.005 283.028C258.275 283.028 258.526 282.976 258.759 282.871C258.992 282.763 259.195 282.616 259.369 282.432C259.545 282.244 259.683 282.033 259.782 281.797C259.882 281.558 259.931 281.31 259.931 281.051C259.931 280.71 259.849 280.391 259.684 280.092C259.522 279.794 259.298 279.553 259.011 279.368C258.727 279.183 258.403 279.091 258.039 279.091ZM265.851 277.864L263.039 288.312H262.118L264.931 277.864H265.851ZM267.026 287V286.233L269.907 283.08C270.245 282.71 270.524 282.389 270.742 282.116C270.961 281.841 271.123 281.582 271.228 281.341C271.336 281.097 271.39 280.841 271.39 280.574C271.39 280.267 271.316 280.001 271.169 279.777C271.024 279.553 270.825 279.379 270.572 279.257C270.319 279.135 270.035 279.074 269.72 279.074C269.384 279.074 269.092 279.143 268.842 279.283C268.595 279.419 268.403 279.611 268.267 279.858C268.133 280.105 268.066 280.395 268.066 280.727H267.061C267.061 280.216 267.178 279.767 267.414 279.381C267.65 278.994 267.971 278.693 268.377 278.477C268.786 278.261 269.245 278.153 269.754 278.153C270.265 278.153 270.718 278.261 271.113 278.477C271.508 278.693 271.818 278.984 272.042 279.351C272.267 279.717 272.379 280.125 272.379 280.574C272.379 280.895 272.32 281.209 272.204 281.516C272.09 281.82 271.892 282.159 271.607 282.534C271.326 282.906 270.936 283.361 270.436 283.898L268.475 285.994V286.062H272.532V287H267.026ZM277.139 287.119C276.497 287.119 275.95 286.945 275.498 286.595C275.046 286.243 274.701 285.733 274.463 285.065C274.224 284.395 274.105 283.585 274.105 282.636C274.105 281.693 274.224 280.888 274.463 280.22C274.704 279.55 275.051 279.038 275.502 278.686C275.957 278.331 276.502 278.153 277.139 278.153C277.775 278.153 278.319 278.331 278.771 278.686C279.225 279.038 279.572 279.55 279.811 280.22C280.052 280.888 280.173 281.693 280.173 282.636C280.173 283.585 280.053 284.395 279.815 285.065C279.576 285.733 279.231 286.243 278.779 286.595C278.328 286.945 277.781 287.119 277.139 287.119ZM277.139 286.182C277.775 286.182 278.269 285.875 278.622 285.261C278.974 284.648 279.15 283.773 279.15 282.636C279.15 281.881 279.069 281.237 278.907 280.706C278.748 280.175 278.518 279.77 278.217 279.491C277.919 279.213 277.559 279.074 277.139 279.074C276.508 279.074 276.015 279.385 275.66 280.007C275.305 280.626 275.127 281.503 275.127 282.636C275.127 283.392 275.207 284.034 275.366 284.562C275.525 285.091 275.754 285.493 276.052 285.768C276.353 286.044 276.715 286.182 277.139 286.182Z" fill="#979797"/>
<path d="M354.035 287.119C353.393 287.119 352.846 286.945 352.395 286.595C351.943 286.243 351.598 285.733 351.359 285.065C351.12 284.395 351.001 283.585 351.001 282.636C351.001 281.693 351.12 280.888 351.359 280.22C351.6 279.55 351.947 279.038 352.399 278.686C352.853 278.331 353.399 278.153 354.035 278.153C354.672 278.153 355.216 278.331 355.667 278.686C356.122 279.038 356.468 279.55 356.707 280.22C356.949 280.888 357.069 281.693 357.069 282.636C357.069 283.585 356.95 284.395 356.711 285.065C356.473 285.733 356.127 286.243 355.676 286.595C355.224 286.945 354.677 287.119 354.035 287.119ZM354.035 286.182C354.672 286.182 355.166 285.875 355.518 285.261C355.87 284.648 356.047 283.773 356.047 282.636C356.047 281.881 355.966 281.237 355.804 280.706C355.645 280.175 355.414 279.77 355.113 279.491C354.815 279.213 354.456 279.074 354.035 279.074C353.404 279.074 352.912 279.385 352.556 280.007C352.201 280.626 352.024 281.503 352.024 282.636C352.024 283.392 352.103 284.034 352.262 284.562C352.422 285.091 352.65 285.493 352.949 285.768C353.25 286.044 353.612 286.182 354.035 286.182ZM361.467 278.153C361.825 278.156 362.183 278.224 362.541 278.358C362.899 278.491 363.225 278.713 363.521 279.023C363.816 279.33 364.054 279.749 364.233 280.28C364.412 280.811 364.501 281.477 364.501 282.278C364.501 283.054 364.427 283.743 364.279 284.345C364.135 284.945 363.924 285.45 363.649 285.862C363.376 286.274 363.044 286.587 362.652 286.8C362.262 287.013 361.822 287.119 361.331 287.119C360.842 287.119 360.406 287.023 360.022 286.83C359.642 286.634 359.329 286.362 359.085 286.016C358.843 285.666 358.689 285.261 358.62 284.801H359.66C359.754 285.202 359.94 285.533 360.218 285.794C360.5 286.053 360.87 286.182 361.331 286.182C362.004 286.182 362.535 285.888 362.924 285.3C363.316 284.712 363.512 283.881 363.512 282.807H363.444C363.285 283.045 363.096 283.251 362.877 283.425C362.659 283.598 362.416 283.732 362.149 283.825C361.882 283.919 361.598 283.966 361.297 283.966C360.797 283.966 360.338 283.842 359.92 283.595C359.505 283.345 359.173 283.003 358.923 282.568C358.676 282.131 358.552 281.631 358.552 281.068C358.552 280.534 358.672 280.045 358.91 279.602C359.152 279.156 359.49 278.801 359.924 278.537C360.362 278.273 360.876 278.145 361.467 278.153ZM361.467 279.091C361.109 279.091 360.787 279.18 360.5 279.359C360.216 279.536 359.99 279.774 359.822 280.075C359.657 280.374 359.575 280.705 359.575 281.068C359.575 281.432 359.654 281.763 359.814 282.061C359.975 282.357 360.196 282.592 360.474 282.768C360.755 282.942 361.075 283.028 361.433 283.028C361.703 283.028 361.954 282.976 362.187 282.871C362.42 282.763 362.623 282.616 362.797 282.432C362.973 282.244 363.11 282.033 363.21 281.797C363.309 281.558 363.359 281.31 363.359 281.051C363.359 280.71 363.277 280.391 363.112 280.092C362.95 279.794 362.725 279.553 362.439 279.368C362.154 279.183 361.831 279.091 361.467 279.091ZM369.279 277.864L366.467 288.312H365.546L368.359 277.864H369.279ZM370.454 287V286.233L373.335 283.08C373.673 282.71 373.951 282.389 374.17 282.116C374.389 281.841 374.551 281.582 374.656 281.341C374.764 281.097 374.818 280.841 374.818 280.574C374.818 280.267 374.744 280.001 374.596 279.777C374.451 279.553 374.252 279.379 374 279.257C373.747 279.135 373.463 279.074 373.147 279.074C372.812 279.074 372.52 279.143 372.27 279.283C372.022 279.419 371.831 279.611 371.694 279.858C371.561 280.105 371.494 280.395 371.494 280.727H370.488C370.488 280.216 370.606 279.767 370.842 279.381C371.078 278.994 371.399 278.693 371.805 278.477C372.214 278.261 372.673 278.153 373.181 278.153C373.693 278.153 374.146 278.261 374.541 278.477C374.936 278.693 375.245 278.984 375.47 279.351C375.694 279.717 375.806 280.125 375.806 280.574C375.806 280.895 375.748 281.209 375.632 281.516C375.518 281.82 375.319 282.159 375.035 282.534C374.754 282.906 374.363 283.361 373.863 283.898L371.903 285.994V286.062H375.96V287H370.454ZM377.72 287V286.233L380.6 283.08C380.939 282.71 381.217 282.389 381.436 282.116C381.654 281.841 381.816 281.582 381.922 281.341C382.029 281.097 382.083 280.841 382.083 280.574C382.083 280.267 382.01 280.001 381.862 279.777C381.717 279.553 381.518 279.379 381.265 279.257C381.012 279.135 380.728 279.074 380.413 279.074C380.078 279.074 379.785 279.143 379.535 279.283C379.288 279.419 379.096 279.611 378.96 279.858C378.826 280.105 378.76 280.395 378.76 280.727H377.754C377.754 280.216 377.872 279.767 378.108 279.381C378.343 278.994 378.664 278.693 379.071 278.477C379.48 278.261 379.939 278.153 380.447 278.153C380.958 278.153 381.412 278.261 381.806 278.477C382.201 278.693 382.511 278.984 382.735 279.351C382.96 279.717 383.072 280.125 383.072 280.574C383.072 280.895 383.014 281.209 382.897 281.516C382.784 281.82 382.585 282.159 382.301 282.534C382.02 282.906 381.629 283.361 381.129 283.898L379.169 285.994V286.062H383.225V287H377.72Z" fill="#979797"/>
<path d="M457.465 287.119C456.823 287.119 456.276 286.945 455.824 286.595C455.373 286.243 455.027 285.733 454.789 285.065C454.55 284.395 454.431 283.585 454.431 282.636C454.431 281.693 454.55 280.888 454.789 280.22C455.03 279.55 455.377 279.038 455.828 278.686C456.283 278.331 456.828 278.153 457.465 278.153C458.101 278.153 458.645 278.331 459.097 278.686C459.551 279.038 459.898 279.55 460.137 280.22C460.378 280.888 460.499 281.693 460.499 282.636C460.499 283.585 460.38 284.395 460.141 285.065C459.902 285.733 459.557 286.243 459.105 286.595C458.654 286.945 458.107 287.119 457.465 287.119ZM457.465 286.182C458.101 286.182 458.596 285.875 458.948 285.261C459.3 284.648 459.476 283.773 459.476 282.636C459.476 281.881 459.395 281.237 459.233 280.706C459.074 280.175 458.844 279.77 458.543 279.491C458.245 279.213 457.885 279.074 457.465 279.074C456.834 279.074 456.341 279.385 455.986 280.007C455.631 280.626 455.453 281.503 455.453 282.636C455.453 283.392 455.533 284.034 455.692 284.562C455.851 285.091 456.08 285.493 456.378 285.768C456.679 286.044 457.042 286.182 457.465 286.182ZM464.897 278.153C465.255 278.156 465.613 278.224 465.971 278.358C466.328 278.491 466.655 278.713 466.951 279.023C467.246 279.33 467.483 279.749 467.662 280.28C467.841 280.811 467.931 281.477 467.931 282.278C467.931 283.054 467.857 283.743 467.709 284.345C467.564 284.945 467.354 285.45 467.078 285.862C466.806 286.274 466.473 286.587 466.081 286.8C465.692 287.013 465.252 287.119 464.76 287.119C464.272 287.119 463.836 287.023 463.452 286.83C463.071 286.634 462.759 286.362 462.515 286.016C462.273 285.666 462.118 285.261 462.05 284.801H463.09C463.184 285.202 463.37 285.533 463.648 285.794C463.929 286.053 464.3 286.182 464.76 286.182C465.434 286.182 465.965 285.888 466.354 285.3C466.746 284.712 466.942 283.881 466.942 282.807H466.874C466.715 283.045 466.526 283.251 466.307 283.425C466.088 283.598 465.846 283.732 465.578 283.825C465.311 283.919 465.027 283.966 464.726 283.966C464.226 283.966 463.767 283.842 463.35 283.595C462.935 283.345 462.603 283.003 462.353 282.568C462.105 282.131 461.982 281.631 461.982 281.068C461.982 280.534 462.101 280.045 462.34 279.602C462.581 279.156 462.919 278.801 463.354 278.537C463.792 278.273 464.306 278.145 464.897 278.153ZM464.897 279.091C464.539 279.091 464.216 279.18 463.929 279.359C463.645 279.536 463.419 279.774 463.252 280.075C463.087 280.374 463.005 280.705 463.005 281.068C463.005 281.432 463.084 281.763 463.243 282.061C463.405 282.357 463.625 282.592 463.904 282.768C464.185 282.942 464.505 283.028 464.863 283.028C465.132 283.028 465.384 282.976 465.617 282.871C465.85 282.763 466.053 282.616 466.226 282.432C466.402 282.244 466.54 282.033 466.64 281.797C466.739 281.558 466.789 281.31 466.789 281.051C466.789 280.71 466.706 280.391 466.542 280.092C466.38 279.794 466.155 279.553 465.868 279.368C465.584 279.183 465.26 279.091 464.897 279.091ZM472.709 277.864L469.896 288.312H468.976L471.788 277.864H472.709ZM473.884 287V286.233L476.765 283.08C477.103 282.71 477.381 282.389 477.6 282.116C477.819 281.841 477.98 281.582 478.086 281.341C478.194 281.097 478.248 280.841 478.248 280.574C478.248 280.267 478.174 280.001 478.026 279.777C477.881 279.553 477.682 279.379 477.429 279.257C477.176 279.135 476.892 279.074 476.577 279.074C476.242 279.074 475.949 279.143 475.699 279.283C475.452 279.419 475.26 279.611 475.124 279.858C474.99 280.105 474.924 280.395 474.924 280.727H473.918C473.918 280.216 474.036 279.767 474.272 279.381C474.507 278.994 474.828 278.693 475.235 278.477C475.644 278.261 476.103 278.153 476.611 278.153C477.123 278.153 477.576 278.261 477.971 278.477C478.365 278.693 478.675 278.984 478.9 279.351C479.124 279.717 479.236 280.125 479.236 280.574C479.236 280.895 479.178 281.209 479.061 281.516C478.948 281.82 478.749 282.159 478.465 282.534C478.184 282.906 477.793 283.361 477.293 283.898L475.333 285.994V286.062H479.39V287H473.884ZM480.757 285.21V284.341L484.593 278.273H485.223V279.619H484.797L481.9 284.205V284.273H487.064V285.21H480.757ZM484.865 287V284.946V284.541V278.273H485.871V287H484.865Z" fill="#979797"/>
<path d="M560.893 287.119C560.251 287.119 559.704 286.945 559.252 286.595C558.8 286.243 558.455 285.733 558.216 285.065C557.978 284.395 557.858 283.585 557.858 282.636C557.858 281.693 557.978 280.888 558.216 280.22C558.458 279.55 558.805 279.038 559.256 278.686C559.711 278.331 560.256 278.153 560.893 278.153C561.529 278.153 562.073 278.331 562.525 278.686C562.979 279.038 563.326 279.55 563.564 280.22C563.806 280.888 563.927 281.693 563.927 282.636C563.927 283.585 563.807 284.395 563.569 285.065C563.33 285.733 562.985 286.243 562.533 286.595C562.081 286.945 561.535 287.119 560.893 287.119ZM560.893 286.182C561.529 286.182 562.023 285.875 562.376 285.261C562.728 284.648 562.904 283.773 562.904 282.636C562.904 281.881 562.823 281.237 562.661 280.706C562.502 280.175 562.272 279.77 561.971 279.491C561.672 279.213 561.313 279.074 560.893 279.074C560.262 279.074 559.769 279.385 559.414 280.007C559.059 280.626 558.881 281.503 558.881 282.636C558.881 283.392 558.961 284.034 559.12 284.562C559.279 285.091 559.508 285.493 559.806 285.768C560.107 286.044 560.469 286.182 560.893 286.182ZM568.324 278.153C568.682 278.156 569.04 278.224 569.398 278.358C569.756 278.491 570.083 278.713 570.378 279.023C570.674 279.33 570.911 279.749 571.09 280.28C571.269 280.811 571.358 281.477 571.358 282.278C571.358 283.054 571.285 283.743 571.137 284.345C570.992 284.945 570.782 285.45 570.506 285.862C570.233 286.274 569.901 286.587 569.509 286.8C569.12 287.013 568.68 287.119 568.188 287.119C567.699 287.119 567.263 287.023 566.88 286.83C566.499 286.634 566.187 286.362 565.942 286.016C565.701 285.666 565.546 285.261 565.478 284.801H566.518C566.611 285.202 566.797 285.533 567.076 285.794C567.357 286.053 567.728 286.182 568.188 286.182C568.861 286.182 569.393 285.888 569.782 285.3C570.174 284.712 570.37 283.881 570.37 282.807H570.302C570.143 283.045 569.954 283.251 569.735 283.425C569.516 283.598 569.273 283.732 569.006 283.825C568.739 283.919 568.455 283.966 568.154 283.966C567.654 283.966 567.195 283.842 566.778 283.595C566.363 283.345 566.03 283.003 565.78 282.568C565.533 282.131 565.41 281.631 565.41 281.068C565.41 280.534 565.529 280.045 565.768 279.602C566.009 279.156 566.347 278.801 566.782 278.537C567.219 278.273 567.733 278.145 568.324 278.153ZM568.324 279.091C567.966 279.091 567.644 279.18 567.357 279.359C567.073 279.536 566.847 279.774 566.68 280.075C566.515 280.374 566.432 280.705 566.432 281.068C566.432 281.432 566.512 281.763 566.671 282.061C566.833 282.357 567.053 282.592 567.331 282.768C567.613 282.942 567.932 283.028 568.29 283.028C568.56 283.028 568.812 282.976 569.045 282.871C569.278 282.763 569.481 282.616 569.654 282.432C569.83 282.244 569.968 282.033 570.067 281.797C570.167 281.558 570.216 281.31 570.216 281.051C570.216 280.71 570.134 280.391 569.969 280.092C569.807 279.794 569.583 279.553 569.296 279.368C569.012 279.183 568.688 279.091 568.324 279.091ZM576.137 277.864L573.324 288.312H572.404L575.216 277.864H576.137ZM577.312 287V286.233L580.192 283.08C580.53 282.71 580.809 282.389 581.028 282.116C581.246 281.841 581.408 281.582 581.513 281.341C581.621 281.097 581.675 280.841 581.675 280.574C581.675 280.267 581.601 280.001 581.454 279.777C581.309 279.553 581.11 279.379 580.857 279.257C580.604 279.135 580.32 279.074 580.005 279.074C579.67 279.074 579.377 279.143 579.127 279.283C578.88 279.419 578.688 279.611 578.552 279.858C578.418 280.105 578.351 280.395 578.351 280.727H577.346C577.346 280.216 577.464 279.767 577.699 279.381C577.935 278.994 578.256 278.693 578.662 278.477C579.072 278.261 579.53 278.153 580.039 278.153C580.55 278.153 581.003 278.261 581.398 278.477C581.793 278.693 582.103 278.984 582.327 279.351C582.552 279.717 582.664 280.125 582.664 280.574C582.664 280.895 582.606 281.209 582.489 281.516C582.376 281.82 582.177 282.159 581.893 282.534C581.611 282.906 581.221 283.361 580.721 283.898L578.76 285.994V286.062H582.817V287H577.312ZM587.475 287.119C587.117 287.114 586.759 287.045 586.401 286.915C586.043 286.784 585.716 286.564 585.421 286.254C585.126 285.942 584.888 285.52 584.709 284.989C584.53 284.455 584.441 283.784 584.441 282.977C584.441 282.205 584.513 281.52 584.658 280.923C584.803 280.324 585.013 279.82 585.289 279.411C585.564 278.999 585.897 278.686 586.286 278.473C586.678 278.26 587.12 278.153 587.611 278.153C588.1 278.153 588.535 278.251 588.915 278.447C589.299 278.641 589.611 278.911 589.853 279.257C590.094 279.604 590.251 280.003 590.322 280.455H589.282C589.185 280.062 588.998 279.737 588.719 279.479C588.441 279.22 588.072 279.091 587.611 279.091C586.935 279.091 586.403 279.385 586.013 279.973C585.627 280.561 585.432 281.386 585.43 282.449H585.498C585.657 282.207 585.846 282.001 586.064 281.831C586.286 281.658 586.53 281.524 586.797 281.43C587.064 281.337 587.347 281.29 587.645 281.29C588.145 281.29 588.603 281.415 589.018 281.665C589.432 281.912 589.765 282.254 590.015 282.692C590.265 283.126 590.39 283.625 590.39 284.188C590.39 284.727 590.269 285.222 590.028 285.67C589.786 286.116 589.447 286.472 589.009 286.736C588.574 286.997 588.063 287.125 587.475 287.119ZM587.475 286.182C587.833 286.182 588.154 286.092 588.438 285.913C588.725 285.734 588.951 285.494 589.116 285.193C589.283 284.892 589.367 284.557 589.367 284.188C589.367 283.827 589.286 283.499 589.124 283.203C588.965 282.905 588.745 282.668 588.464 282.491C588.185 282.315 587.867 282.227 587.509 282.227C587.239 282.227 586.988 282.281 586.755 282.389C586.522 282.494 586.317 282.639 586.141 282.824C585.968 283.009 585.831 283.22 585.732 283.459C585.633 283.695 585.583 283.943 585.583 284.205C585.583 284.551 585.664 284.875 585.826 285.176C585.991 285.477 586.215 285.72 586.499 285.905C586.786 286.089 587.111 286.182 587.475 286.182Z" fill="#979797"/>
<path d="M664.322 287.119C663.68 287.119 663.133 286.945 662.682 286.595C662.23 286.243 661.885 285.733 661.646 285.065C661.407 284.395 661.288 283.585 661.288 282.636C661.288 281.693 661.407 280.888 661.646 280.22C661.888 279.55 662.234 279.038 662.686 278.686C663.14 278.331 663.686 278.153 664.322 278.153C664.959 278.153 665.503 278.331 665.954 278.686C666.409 279.038 666.756 279.55 666.994 280.22C667.236 280.888 667.356 281.693 667.356 282.636C667.356 283.585 667.237 284.395 666.998 285.065C666.76 285.733 666.415 286.243 665.963 286.595C665.511 286.945 664.964 287.119 664.322 287.119ZM664.322 286.182C664.959 286.182 665.453 285.875 665.805 285.261C666.157 284.648 666.334 283.773 666.334 282.636C666.334 281.881 666.253 281.237 666.091 280.706C665.932 280.175 665.702 279.77 665.4 279.491C665.102 279.213 664.743 279.074 664.322 279.074C663.692 279.074 663.199 279.385 662.844 280.007C662.488 280.626 662.311 281.503 662.311 282.636C662.311 283.392 662.39 284.034 662.55 284.562C662.709 285.091 662.937 285.493 663.236 285.768C663.537 286.044 663.899 286.182 664.322 286.182ZM671.754 278.153C672.112 278.156 672.47 278.224 672.828 278.358C673.186 278.491 673.513 278.713 673.808 279.023C674.104 279.33 674.341 279.749 674.52 280.28C674.699 280.811 674.788 281.477 674.788 282.278C674.788 283.054 674.714 283.743 674.567 284.345C674.422 284.945 674.211 285.45 673.936 285.862C673.663 286.274 673.331 286.587 672.939 286.8C672.55 287.013 672.109 287.119 671.618 287.119C671.129 287.119 670.693 287.023 670.309 286.83C669.929 286.634 669.616 286.362 669.372 286.016C669.131 285.666 668.976 285.261 668.907 284.801H669.947C670.041 285.202 670.227 285.533 670.506 285.794C670.787 286.053 671.157 286.182 671.618 286.182C672.291 286.182 672.822 285.888 673.211 285.3C673.604 284.712 673.8 283.881 673.8 282.807H673.731C673.572 283.045 673.383 283.251 673.165 283.425C672.946 283.598 672.703 283.732 672.436 283.825C672.169 283.919 671.885 283.966 671.584 283.966C671.084 283.966 670.625 283.842 670.207 283.595C669.792 283.345 669.46 283.003 669.21 282.568C668.963 282.131 668.839 281.631 668.839 281.068C668.839 280.534 668.959 280.045 669.197 279.602C669.439 279.156 669.777 278.801 670.211 278.537C670.649 278.273 671.163 278.145 671.754 278.153ZM671.754 279.091C671.396 279.091 671.074 279.18 670.787 279.359C670.503 279.536 670.277 279.774 670.109 280.075C669.944 280.374 669.862 280.705 669.862 281.068C669.862 281.432 669.942 281.763 670.101 282.061C670.263 282.357 670.483 282.592 670.761 282.768C671.042 282.942 671.362 283.028 671.72 283.028C671.99 283.028 672.241 282.976 672.474 282.871C672.707 282.763 672.91 282.616 673.084 282.432C673.26 282.244 673.398 282.033 673.497 281.797C673.596 281.558 673.646 281.31 673.646 281.051C673.646 280.71 673.564 280.391 673.399 280.092C673.237 279.794 673.013 279.553 672.726 279.368C672.442 279.183 672.118 279.091 671.754 279.091ZM679.566 277.864L676.754 288.312H675.833L678.646 277.864H679.566ZM680.741 287V286.233L683.622 283.08C683.96 282.71 684.238 282.389 684.457 282.116C684.676 281.841 684.838 281.582 684.943 281.341C685.051 281.097 685.105 280.841 685.105 280.574C685.105 280.267 685.031 280.001 684.883 279.777C684.738 279.553 684.54 279.379 684.287 279.257C684.034 279.135 683.75 279.074 683.434 279.074C683.099 279.074 682.807 279.143 682.557 279.283C682.309 279.419 682.118 279.611 681.981 279.858C681.848 280.105 681.781 280.395 681.781 280.727H680.775C680.775 280.216 680.893 279.767 681.129 279.381C681.365 278.994 681.686 278.693 682.092 278.477C682.501 278.261 682.96 278.153 683.469 278.153C683.98 278.153 684.433 278.261 684.828 278.477C685.223 278.693 685.532 278.984 685.757 279.351C685.981 279.717 686.094 280.125 686.094 280.574C686.094 280.895 686.035 281.209 685.919 281.516C685.805 281.82 685.606 282.159 685.322 282.534C685.041 282.906 684.65 283.361 684.15 283.898L682.19 285.994V286.062H686.247V287H680.741ZM690.802 287.119C690.217 287.119 689.7 287.016 689.251 286.808C688.805 286.598 688.457 286.31 688.207 285.943C687.957 285.574 687.834 285.153 687.836 284.682C687.834 284.312 687.906 283.972 688.054 283.659C688.202 283.344 688.403 283.081 688.659 282.871C688.917 282.658 689.206 282.523 689.524 282.466V282.415C689.106 282.307 688.774 282.072 688.527 281.712C688.28 281.348 688.157 280.935 688.16 280.472C688.157 280.028 688.27 279.632 688.497 279.283C688.724 278.933 689.037 278.658 689.434 278.456C689.835 278.254 690.291 278.153 690.802 278.153C691.308 278.153 691.76 278.254 692.157 278.456C692.555 278.658 692.868 278.933 693.095 279.283C693.325 279.632 693.442 280.028 693.444 280.472C693.442 280.935 693.315 281.348 693.065 281.712C692.818 282.072 692.49 282.307 692.081 282.415V282.466C692.396 282.523 692.68 282.658 692.933 282.871C693.186 283.081 693.388 283.344 693.538 283.659C693.689 283.972 693.765 284.312 693.768 284.682C693.765 285.153 693.638 285.574 693.385 285.943C693.135 286.31 692.787 286.598 692.341 286.808C691.898 287.016 691.385 287.119 690.802 287.119ZM690.802 286.182C691.197 286.182 691.538 286.118 691.825 285.99C692.112 285.862 692.334 285.682 692.49 285.449C692.646 285.216 692.726 284.943 692.729 284.631C692.726 284.301 692.64 284.01 692.473 283.757C692.305 283.504 692.077 283.305 691.787 283.161C691.5 283.016 691.172 282.943 690.802 282.943C690.43 282.943 690.098 283.016 689.805 283.161C689.515 283.305 689.287 283.504 689.119 283.757C688.954 284.01 688.873 284.301 688.876 284.631C688.873 284.943 688.949 285.216 689.102 285.449C689.258 285.682 689.481 285.862 689.771 285.99C690.061 286.118 690.405 286.182 690.802 286.182ZM690.802 282.04C691.115 282.04 691.392 281.977 691.633 281.852C691.878 281.727 692.069 281.553 692.209 281.328C692.348 281.104 692.419 280.841 692.422 280.54C692.419 280.244 692.349 279.987 692.213 279.768C692.077 279.547 691.888 279.376 691.646 279.257C691.405 279.135 691.123 279.074 690.802 279.074C690.476 279.074 690.19 279.135 689.946 279.257C689.702 279.376 689.513 279.547 689.379 279.768C689.246 279.987 689.18 280.244 689.183 280.54C689.18 280.841 689.247 281.104 689.383 281.328C689.523 281.553 689.714 281.727 689.959 281.852C690.203 281.977 690.484 282.04 690.802 282.04Z" fill="#979797"/>
</g>
<defs>
<clipPath id="clip0_162_20944">
<rect width="706" height="300" fill="white"/>
</clipPath>
</defs>
</svg>
